<?xml version="1.0" standalone="no"?>
<!DOCTYPE svg PUBLIC "-//W3C//DTD SVG 1.1//EN" "http://www.w3.org/Graphics/SVG/1.1/DTD/svg11.dtd" >
<svg xmlns="http://www.w3.org/2000/svg" xmlns:xlink="http://www.w3.org/1999/xlink" version="1.1">
<metadata>
Created by FontForge 20201107 at Mon Apr  7 14:21:10 2014
 By Unknown
Based on DIN 1451 the German Industrial standard by the Deutsches Institut Normung - (1936/1986)
</metadata>
<defs>
<font id="PFDinTextCondPro-Regular" horiz-adv-x="1818" >
  <font-face 
    font-family="PF Din Text Cond Pro"
    font-weight="400"
    font-stretch="normal"
    units-per-em="1000"
    panose-1="2 0 0 0 0 0 0 0 0 0"
    ascent="750"
    descent="-250"
    x-height="494"
    cap-height="696"
    bbox="-156 -254 1760 936"
    underline-thickness="55"
    underline-position="-100"
    stemh="75"
    stemv="81"
    unicode-range="U+0020-FB05"
  />
<missing-glyph horiz-adv-x="440" 
d="M0 0v700h440v-700h-440zM220 395l140 255h-280zM250 350l140 -255v510zM80 50h280l-140 255zM50 605v-510l140 255z" />
    <glyph glyph-name="ff" unicode="ff" horiz-adv-x="484" 
d="M230 723c36 0 66 -7 92 -19c21 23 53 34 90 34h55v-75h-44c-37 0 -49 -24 -49 -56v-113h91v-66h-91v-428h-81v428h-140v-428h-81v428h-56v66h56v81c0 107 72 148 158 148zM153 494h140v113c0 7 0 17 1 26c-19 10 -40 14 -64 14c-54 0 -77 -28 -77 -72v-81z" />
    <glyph glyph-name="fi" unicode="fi" horiz-adv-x="435" 
d="M377 0h-81v428h-142v-428h-82v428h-55v67h55v90c0 108 73 149 158 149c64 0 113 -19 148 -58l-52 -56c-21 24 -54 37 -96 37c-53 0 -76 -27 -76 -72v-90h223v-495z" />
    <glyph glyph-name="fl" unicode="fl" horiz-adv-x="464" 
d="M444 -3h-26c-78 0 -122 27 -122 118v535c-28 8 -46 10 -67 10c-53 0 -75 -28 -75 -78v-87h92v-67h-92v-428h-82v428h-55v67h55v90c0 107 69 152 158 152c25 0 76 -3 147 -26v-585c0 -37 12 -56 49 -56h18v-73z" />
    <glyph glyph-name="ffi" unicode="ffi" horiz-adv-x="661" 
d="M599 0h-82v428h-141v-428h-82v428h-140v-428h-82v428h-55v67h55v81c0 107 73 148 158 148c40 0 74 -9 101 -24c29 29 72 41 121 41c67 0 114 -18 149 -57l-53 -56c-21 24 -54 37 -96 37c-53 0 -76 -28 -76 -72v-98h223v-495zM230 647c-53 0 -76 -27 -76 -72v-80h140v98
c0 13 1 25 3 36c-19 11 -41 18 -67 18z" />
    <glyph glyph-name="ffl" unicode="ffl" horiz-adv-x="685" 
d="M230 723c35 0 74 -7 103 -23c29 28 70 41 118 41c25 0 77 -3 147 -26v-589c0 -37 12 -56 49 -56h18v-73h-25c-78 0 -123 27 -123 118v539c-28 8 -45 10 -66 10c-54 0 -76 -28 -76 -78v-91h91v-67h-91v-428h-81v428h-140v-428h-82v428h-55v67h55v80c0 107 73 148 158 148z
M230 647c-53 0 -76 -28 -76 -72v-80h140v94c0 14 1 28 4 41c-21 12 -43 17 -68 17z" />
    <glyph glyph-name="ft" unicode="ft" horiz-adv-x="473" 
d="M295 428h-141v-428h-82v428h-55v67h55v112c0 82 50 122 120 122h52v-75h-41c-37 0 -49 -25 -49 -57v-102h141v126h81v-126h70v-67h-70v-293c0 -40 15 -61 51 -61h27v-74h-45c-76 0 -114 49 -114 113v315z" />
    <glyph glyph-name="fj" unicode="fj" horiz-adv-x="435" 
d="M17 495h55v90c0 108 73 149 158 149c63 0 113 -19 148 -58l-52 -56c-21 24 -54 37 -96 37c-53 0 -76 -27 -76 -72v-90h223v-563c0 -75 -41 -133 -128 -133h-30v75c2 0 21 0 22 1c40 0 55 23 55 62v491h-142v-428h-82v428h-55v67z" />
    <glyph glyph-name="ffj" unicode="ffj" horiz-adv-x="661" 
d="M376 593v-98h223v-563c0 -75 -42 -133 -129 -133h-30v75c2 0 21 0 22 1c41 0 55 24 55 71v482h-141v-428h-82v428h-140v-428h-82v428h-55v67h55v81c0 107 73 148 158 148c40 0 74 -9 101 -24c29 29 72 41 121 41c65 0 114 -18 148 -57l-52 -56c-21 22 -54 37 -96 37
c-53 0 -76 -28 -76 -72zM230 647c-53 0 -76 -27 -76 -72v-80h140v98c0 13 1 26 4 38c-19 10 -42 16 -68 16z" />
    <glyph glyph-name=".notdef" horiz-adv-x="440" 
d="M0 0v700h440v-700h-440zM220 395l140 255h-280zM250 350l140 -255v510zM80 50h280l-140 255zM50 605v-510l140 255z" />
    <glyph glyph-name="NULL" horiz-adv-x="0" 
 />
    <glyph glyph-name="carriagereturn" unicode="&#x21b5;" horiz-adv-x="840" 
d="M713 353v339h65v-403l-576 1l146 -145l-46 -45l-220 221l220 222l46 -45l-146 -145h511z" />
    <glyph glyph-name="space" unicode=" " horiz-adv-x="210" 
 />
    <glyph glyph-name="percent" unicode="%" horiz-adv-x="640" 
d="M529 714l-370 -731h-56l369 731h57zM265 382c0 -66 -51 -107 -113 -107s-113 41 -113 107v210c0 65 49 107 113 107c65 0 113 -42 113 -107v-210zM202 382v210c0 28 -20 49 -50 49s-50 -21 -50 -49v-210c0 -30 20 -50 50 -50s50 20 50 50zM602 99
c0 -66 -53 -103 -113 -103s-113 37 -113 103v218c0 65 53 103 113 103s113 -38 113 -103v-218zM539 99v218c0 28 -20 45 -50 45s-50 -17 -50 -45v-218c0 -30 20 -46 50 -46s50 16 50 46z" />
    <glyph glyph-name="ampersand" unicode="&#x26;" horiz-adv-x="548" 
d="M433 0l-46 65c-48 -50 -104 -71 -163 -71c-106 0 -169 75 -169 174c0 85 41 147 122 209c-33 53 -71 104 -71 170c0 87 56 156 158 156c61 0 111 -19 147 -68l-58 -48c-30 33 -52 42 -91 42c-53 0 -77 -40 -77 -81c0 -73 135 -244 206 -350c18 37 26 72 32 111l75 -6
c-8 -57 -26 -121 -58 -175c28 -42 59 -87 88 -128h-95zM346 125c-43 64 -85 128 -129 192c-53 -43 -83 -88 -83 -144c0 -58 36 -105 101 -105c42 0 87 28 111 57z" />
    <glyph glyph-name="quoteright" unicode="&#x2019;" horiz-adv-x="223" 
d="M161 618l-52 -115h-47l28 113h-25v104h96v-102z" />
    <glyph glyph-name="parenleft" unicode="(" horiz-adv-x="250" 
d="M204 -115c-85 106 -161 253 -161 420c0 170 73 313 158 419l42 -23c-73 -110 -119 -258 -119 -392c0 -144 49 -290 118 -397z" />
    <glyph glyph-name="parenright" unicode=")" horiz-adv-x="250" 
d="M66 -115l-38 27c70 107 118 252 118 397c0 134 -46 281 -119 391c14 8 28 16 42 23c85 -106 158 -248 158 -419c0 -167 -76 -313 -161 -419z" />
    <glyph glyph-name="asterisk" unicode="*" horiz-adv-x="356" 
d="M212 533l77 -91c-10 -8 -43 -31 -53 -39l-61 102c-11 -17 -52 -85 -62 -103c-10 8 -44 32 -53 39l77 92c-19 5 -93 25 -111 29c3 12 15 49 19 62l107 -45c-1 20 -8 99 -9 119h64l-10 -119c18 7 88 36 107 45c3 -12 17 -51 20 -62z" />
    <glyph glyph-name="plus" unicode="+" horiz-adv-x="440" 
d="M421 263h-170v-178h-61v178h-171v62h171v177h61v-177h170v-62z" />
    <glyph glyph-name="comma" unicode="," horiz-adv-x="223" 
d="M155 -2l-51 -114h-47l28 112h-25v104h95v-102z" />
    <glyph glyph-name="hyphen" unicode="-" horiz-adv-x="369" 
d="M324 222h-273v71h273v-71z" />
    <glyph glyph-name="period" unicode="." horiz-adv-x="218" 
d="M156 0h-95v101h95v-101z" />
    <glyph glyph-name="slash" unicode="/" horiz-adv-x="287" 
d="M284 725l-219 -767h-63l219 767h63z" />
    <glyph glyph-name="zero" unicode="0" horiz-adv-x="440" 
d="M388 159c0 -107 -80 -165 -168 -165s-167 58 -167 165v377c0 106 79 166 167 166s168 -60 168 -166v-377zM307 159v377c0 55 -35 88 -87 88s-87 -33 -87 -88v-377c0 -55 35 -87 87 -87s87 32 87 87z" />
    <glyph glyph-name="one" unicode="1" horiz-adv-x="440" 
d="M290 696v-696h-81v611l-96 -73l1 86l94 72h82z" />
    <glyph glyph-name="two" unicode="2" horiz-adv-x="440" 
d="M218 625c-53 -1 -84 -42 -88 -114l-82 13c8 108 71 177 172 177c105 0 169 -60 169 -165c0 -48 -17 -101 -47 -148l-199 -311h238v-77h-334v75l225 352c22 34 30 79 30 108c0 45 -20 90 -84 90z" />
    <glyph glyph-name="three" unicode="3" horiz-adv-x="440" 
d="M49 146l81 16c8 -55 27 -92 86 -92c67 0 93 55 93 127c0 85 -30 130 -95 130h-41v70h37c66 0 95 38 95 110c0 60 -20 118 -87 118c-62 0 -77 -44 -84 -94l-80 13c12 89 63 158 163 158c135 0 169 -87 169 -193c0 -53 -14 -121 -77 -145c71 -17 81 -80 81 -160
c0 -120 -45 -210 -178 -210c-83 0 -154 51 -163 152z" />
    <glyph glyph-name="four" unicode="4" horiz-adv-x="440" 
d="M413 106h-53v-106h-80v106h-254v78l193 512h84l-194 -514h171v199h80v-199h53v-76z" />
    <glyph glyph-name="five" unicode="5" horiz-adv-x="440" 
d="M244 457c129 0 143 -105 143 -211c0 -162 -33 -252 -173 -252c-101 0 -157 52 -170 155l81 13c6 -61 31 -95 90 -95c89 0 91 93 91 174c0 69 -6 144 -85 144c-37 0 -64 -20 -81 -50h-75v361h316v-75h-243l3 -202c32 30 67 38 103 38z" />
    <glyph glyph-name="six" unicode="6" horiz-adv-x="440" 
d="M221 332c-80 0 -90 -78 -90 -137c0 -74 17 -126 87 -126c57 0 89 38 89 130c-1 68 -13 133 -86 133zM320 696l-138 -305l3 -1c15 9 39 14 59 14c107 0 145 -101 145 -192c0 -128 -48 -218 -173 -218c-116 0 -164 72 -164 199c0 77 13 133 40 191c43 96 126 276 142 312
h86z" />
    <glyph glyph-name="seven" unicode="7" horiz-adv-x="440" 
d="M389 621l-210 -621h-84l209 620h-178v-94h-75v170h338v-75z" />
    <glyph glyph-name="eight" unicode="8" horiz-adv-x="440" 
d="M395 194c0 -149 -88 -200 -175 -200c-93 0 -175 51 -175 200c0 88 25 143 77 168c-59 35 -70 78 -70 151c0 131 79 189 168 189c93 0 168 -57 168 -189c0 -73 -19 -118 -66 -151c57 -27 73 -85 73 -168zM220 625c-61 0 -87 -40 -87 -117s30 -113 87 -113s87 36 87 118
c0 72 -26 112 -87 112zM220 330c-56 0 -94 -36 -94 -130c0 -98 42 -131 94 -131c65 0 92 41 92 133s-33 128 -92 128z" />
    <glyph glyph-name="nine" unicode="9" horiz-adv-x="440" 
d="M222 627c-57 0 -90 -36 -90 -128c0 -70 15 -135 94 -135c67 0 82 62 82 134c0 74 -16 129 -86 129zM119 0l138 305l-3 1c-15 -9 -38 -13 -58 -13c-107 0 -146 100 -146 191c0 128 51 218 176 218c116 0 163 -72 163 -199c1 -77 -15 -133 -42 -191
c-12 -26 -138 -302 -142 -312h-86z" />
    <glyph glyph-name="colon" unicode=":" horiz-adv-x="216" 
d="M153 0h-95v101h95v-101zM153 292h-95v102h95v-102z" />
    <glyph glyph-name="semicolon" unicode=";" horiz-adv-x="216" 
d="M155 292h-95v102h95v-102zM155 -2l-51 -114h-48l28 112h-24v104h95v-102z" />
    <glyph glyph-name="less" unicode="&#x3c;" horiz-adv-x="440" 
d="M409 142v-68l-382 192v57l382 193v-68l-311 -153z" />
    <glyph glyph-name="equal" unicode="=" horiz-adv-x="440" 
d="M421 349h-402v65h402v-65zM421 176h-402v65h402v-65z" />
    <glyph glyph-name="greater" unicode="&#x3e;" horiz-adv-x="440" 
d="M28 74v68l311 153l-311 153v68l382 -193v-57z" />
    <glyph glyph-name="question" unicode="?" horiz-adv-x="434" 
d="M403 525c-1 -65 -18 -96 -51 -143c-29 -42 -81 -90 -81 -142v-60h-83v47c0 48 10 83 37 118c50 67 88 108 91 156c0 55 -11 121 -95 121c-62 0 -98 -56 -100 -110l-83 12c16 121 95 177 188 177c115 0 177 -70 177 -176zM270 0h-84v89h84v-89z" />
    <glyph glyph-name="at" unicode="@" horiz-adv-x="790" 
d="M514 429v-168c0 -40 23 -62 50 -62c53 0 102 31 102 185c0 165 -118 260 -256 260c-183 0 -291 -135 -291 -308c0 -190 109 -316 294 -316c72 0 123 10 188 44l23 -58c-62 -26 -132 -45 -206 -45c-218 0 -365 136 -365 375c0 213 138 368 354 368
c197 0 327 -135 327 -320c0 -183 -82 -246 -175 -246c-24 0 -81 21 -92 64l-3 -1c-16 -29 -60 -52 -108 -52c-71 0 -113 47 -113 114c0 58 34 118 116 118h91v48c0 35 -24 56 -70 56c-31 0 -57 -16 -69 -39l-54 27c22 43 67 71 122 71c79 0 135 -28 135 -115zM304 266
c0 -32 22 -57 70 -57c49 0 76 24 76 67v51h-75c-42 0 -71 -17 -71 -61z" />
    <glyph glyph-name="A" unicode="A" horiz-adv-x="497" 
d="M489 0h-86l-44 158h-222l-43 -158h-85l202 696h75zM340 233l-51 180l-39 154h-4l-39 -153l-51 -181h184z" />
    <glyph glyph-name="B" unicode="B" horiz-adv-x="506" 
d="M465 199c0 -130 -73 -199 -187 -199h-213v696h200c128 0 189 -71 189 -183c0 -64 -19 -113 -89 -148v-3c71 -19 100 -88 100 -163zM257 620h-109v-223h109c79 0 115 46 115 113c0 66 -36 110 -115 110zM267 325h-119v-244h121c88 0 114 56 114 125s-32 119 -116 119z" />
    <glyph glyph-name="C" unicode="C" horiz-adv-x="469" 
d="M367 158l79 -29c-24 -87 -98 -135 -193 -135c-126 0 -203 86 -203 208v292c0 118 74 207 203 207c94 0 168 -49 193 -133l-79 -31c-13 50 -52 84 -114 84c-78 0 -120 -60 -120 -125v-296c0 -66 43 -127 120 -127c60 0 101 33 114 85z" />
    <glyph glyph-name="D" unicode="D" horiz-adv-x="521" 
d="M64 696h195c93 0 162 -32 194 -111c20 -53 18 -130 18 -231c0 -105 3 -180 -17 -234c-36 -92 -116 -120 -208 -120h-182v696zM387 227v240c0 108 -49 152 -136 152h-103v-541h103c99 0 136 56 136 149z" />
    <glyph glyph-name="E" unicode="E" horiz-adv-x="455" 
d="M434 0h-369v696h369v-78h-286v-228h245v-75h-245v-234h286v-81z" />
    <glyph glyph-name="F" unicode="F" horiz-adv-x="445" 
d="M434 618h-286v-231h245v-75h-245v-312h-83v696h369v-78z" />
    <glyph glyph-name="G" unicode="G" horiz-adv-x="506" 
d="M253 70c71 0 120 53 120 120v110h-114v74h198v-179c0 -123 -87 -202 -204 -202c-128 0 -204 87 -204 209v292c0 118 75 207 204 207c94 0 168 -49 193 -135l-80 -27c-13 49 -53 82 -113 82c-78 0 -121 -60 -121 -125v-299c0 -66 43 -127 121 -127z" />
    <glyph glyph-name="H" unicode="H" horiz-adv-x="532" 
d="M467 0h-84v317h-235v-317h-83v696h83v-306h235v306h84v-696z" />
    <glyph glyph-name="I" unicode="I" horiz-adv-x="217" 
d="M150 0h-84v696h84v-696z" />
    <glyph glyph-name="J" unicode="J" horiz-adv-x="406" 
d="M339 696v-514c0 -135 -87 -188 -191 -188c-63 0 -117 26 -150 70l65 50c19 -22 50 -41 83 -41c61 0 109 30 109 110v513h84z" />
    <glyph glyph-name="K" unicode="K" horiz-adv-x="516" 
d="M507 0h-92l-166 345c-34 -49 -67 -100 -101 -148v-197h-84v696h84v-365c1 0 2 1 3 1c78 123 160 242 239 364h91c-60 -91 -120 -180 -179 -271z" />
    <glyph glyph-name="L" unicode="L" horiz-adv-x="442" 
d="M426 0h-361v696h83v-615h278v-81z" />
    <glyph glyph-name="M" unicode="M" horiz-adv-x="656" 
d="M597 0h-83v486l-4 -1l-55 -134l-96 -215h-57l-97 219l-53 131l-4 -1v-485h-83v696h84l115 -263l66 -161h3l68 163l113 261h83v-696z" />
    <glyph glyph-name="N" unicode="N" horiz-adv-x="562" 
d="M500 0h-80l-199 366l-71 139h-3v-505h-84v696h81l195 -361l74 -143l4 1v503h83v-696z" />
    <glyph glyph-name="O" unicode="O" horiz-adv-x="497" 
d="M452 203c0 -128 -84 -209 -204 -209c-147 0 -204 104 -204 221v279c0 94 54 207 204 207c141 0 204 -106 204 -207v-291zM367 195v298c0 42 -24 129 -120 129c-95 0 -121 -80 -121 -131l1 -275c0 -81 34 -145 123 -145c64 0 117 47 117 124z" />
    <glyph glyph-name="P" unicode="P" horiz-adv-x="484" 
d="M466 487c0 -107 -55 -207 -199 -207h-119v-280h-83v696h198c128 0 203 -69 203 -209zM382 488c0 80 -35 130 -121 130h-113v-260h114c93 0 120 64 120 130z" />
    <glyph glyph-name="Q" unicode="Q" horiz-adv-x="506" 
d="M462 204c0 -43 -10 -80 -26 -111l70 -56l-43 -54l-70 56c-35 -29 -82 -45 -135 -45c-147 0 -204 105 -204 222v279c0 94 54 206 204 206c141 0 204 -105 204 -206v-291zM377 196v298c0 42 -23 128 -119 128c-91 0 -122 -77 -122 -128l1 -277c0 -81 34 -146 123 -146
c25 0 49 7 68 21l-82 66l45 53l78 -64c5 15 8 31 8 49z" />
    <glyph glyph-name="R" unicode="R" horiz-adv-x="506" 
d="M472 0h-91l-116 306h-117v-306h-83v696h218c113 0 183 -71 183 -194c0 -87 -39 -154 -120 -184zM382 502c0 77 -36 118 -114 118h-120v-241h122c74 0 112 48 112 123z" />
    <glyph glyph-name="S" unicode="S" horiz-adv-x="478" 
d="M444 190c0 -120 -77 -197 -207 -197c-107 0 -180 48 -215 123l74 43c27 -47 71 -85 142 -85c86 0 120 49 120 116c0 74 -47 101 -123 125c-139 42 -192 90 -192 196c0 112 78 191 201 191c102 0 164 -41 194 -97l-71 -49c-26 47 -65 66 -127 66c-77 0 -112 -49 -112 -111
c0 -73 68 -95 155 -123c120 -38 161 -94 161 -198z" />
    <glyph glyph-name="T" unicode="T" horiz-adv-x="403" 
d="M402 620h-159v-620h-83v620h-159v76h401v-76z" />
    <glyph glyph-name="U" unicode="U" horiz-adv-x="519" 
d="M380 696h84v-494c0 -128 -84 -208 -204 -208c-127 0 -204 87 -204 208v494h83v-497c0 -66 46 -126 121 -126c70 0 120 48 120 126v497z" />
    <glyph glyph-name="V" unicode="V" horiz-adv-x="469" 
d="M455 696l-182 -696h-78l-181 696h87l82 -325l50 -225h3l51 227l81 323h87z" />
    <glyph glyph-name="W" unicode="W" horiz-adv-x="702" 
d="M683 696l-138 -696h-74l-78 338l-41 191h-3l-40 -187l-78 -342h-74l-138 696h87l58 -319l32 -198h3l42 195l75 322h71l75 -323l42 -194h3l31 194l57 323h88z" />
    <glyph glyph-name="X" unicode="X" horiz-adv-x="450" 
d="M446 0h-90l-131 282l-130 -282h-91l177 361l-165 335h91l118 -259l118 259h91l-166 -335z" />
    <glyph glyph-name="Y" unicode="Y" horiz-adv-x="442" 
d="M217 386h6l51 134l72 176h87l-172 -406v-290h-81v290l-173 406h88c24 -60 50 -120 74 -180c16 -40 33 -90 48 -130z" />
    <glyph glyph-name="Z" unicode="Z" horiz-adv-x="413" 
d="M387 0h-360v77l271 543h-260v76h350v-72l-271 -545h270v-79z" />
    <glyph glyph-name="bracketleft" unicode="[" horiz-adv-x="236" 
d="M220 -103h-152v801h152v-53h-80v-695h80v-53z" />
    <glyph glyph-name="backslash" unicode="\" horiz-adv-x="264" 
d="M193 -25l-188 739h62l189 -739h-63z" />
    <glyph glyph-name="bracketright" unicode="]" horiz-adv-x="236" 
d="M171 -104h-150v54h79v695h-79v53h150v-802z" />
    <glyph glyph-name="asciicircum" unicode="^" horiz-adv-x="440" 
d="M85 332h-67l177 362h57l178 -362h-68l-139 289z" />
    <glyph glyph-name="underscore" unicode="_" horiz-adv-x="500" 
d="M500 -130h-500v61h500v-61z" />
    <glyph glyph-name="quoteleft" unicode="&#x2018;" horiz-adv-x="223" 
d="M62 605l51 114h48l-28 -112h24v-104h-95v102z" />
    <glyph glyph-name="a" unicode="a" horiz-adv-x="426" 
d="M299 36l-4 2c-23 -29 -65 -44 -117 -44c-97 0 -142 67 -142 145c0 88 52 153 172 153h91v61c0 45 -31 72 -89 72c-38 0 -76 -12 -91 -47c-21 12 -42 25 -63 38c26 54 86 85 154 85c94 0 171 -35 171 -149v-352h-82v36zM299 155v68h-97c-52 0 -89 -24 -89 -79
c0 -44 29 -74 89 -74c56 0 97 23 97 85z" />
    <glyph glyph-name="b" unicode="b" horiz-adv-x="432" 
d="M132 47c-1 0 -1 -1 -2 -1v-46h-81v726h81v-283h2c31 41 73 57 113 57c136 0 149 -124 149 -248c0 -137 -19 -258 -149 -258c-46 0 -84 16 -113 53zM220 420c-83 0 -92 -89 -92 -160c0 -78 -5 -190 92 -190c80 0 92 74 92 178c0 109 -16 172 -92 172z" />
    <glyph glyph-name="c" unicode="c" horiz-adv-x="385" 
d="M301 121c22 -13 45 -24 68 -37c-26 -55 -81 -90 -152 -90c-148 0 -186 106 -186 264c0 148 58 243 186 243c72 0 125 -36 151 -91l-66 -41c-15 34 -45 55 -84 55c-89 0 -106 -73 -106 -168c0 -96 18 -186 105 -186c40 0 70 24 84 51z" />
    <glyph glyph-name="d" unicode="d" horiz-adv-x="433" 
d="M301 47c-29 -37 -67 -53 -113 -53c-130 0 -149 118 -149 252c0 124 21 254 157 254c40 0 76 -14 105 -47h2v273h81v-726h-81v46c-1 0 -1 1 -2 1zM214 420c-82 0 -93 -80 -93 -172c0 -95 12 -177 92 -177c97 0 91 123 91 189c0 82 -10 160 -90 160z" />
    <glyph glyph-name="e" unicode="e" horiz-adv-x="424" 
d="M306 124l66 -35c-27 -58 -83 -95 -149 -95c-133 0 -186 72 -186 253c0 126 33 254 175 254c111 0 173 -77 173 -201v-77h-267c0 -87 17 -156 102 -156c36 0 68 27 86 57zM305 288c0 90 -33 137 -92 137c-69 0 -90 -53 -93 -137h185z" />
    <glyph glyph-name="f" unicode="f" horiz-adv-x="263" 
d="M244 428h-90v-428h-82v428h-55v66h55v113c0 82 50 122 120 122h52v-75h-41c-37 0 -49 -25 -49 -57v-103h90v-66z" />
    <glyph glyph-name="g" unicode="g" horiz-adv-x="441" 
d="M385 -4c0 -123 -56 -203 -181 -203c-64 0 -120 33 -146 88l67 39c14 -27 43 -51 82 -51c67 0 97 43 97 114v69h-2c-31 -41 -73 -57 -113 -57c-136 0 -150 124 -150 248c0 129 14 258 150 258c46 0 84 -16 113 -53c1 0 1 1 2 1v46h81v-499zM211 75c80 0 94 78 94 160
c0 78 6 188 -91 188c-85 0 -92 -81 -92 -176c0 -107 13 -172 89 -172z" />
    <glyph glyph-name="h" unicode="h" horiz-adv-x="438" 
d="M390 0h-81v323c0 60 -30 97 -90 97c-55 0 -92 -37 -92 -99v-321h-80v726h81v-287h3c28 39 71 61 119 61c79 0 140 -55 140 -150v-350z" />
    <glyph glyph-name="i" unicode="i" horiz-adv-x="197" 
d="M139 615h-81v81h81v-81zM139 0h-81v495h81v-495z" />
    <glyph glyph-name="j" unicode="j" horiz-adv-x="210" 
d="M146 615h-81v81h81v-81zM146 495v-568c0 -74 -44 -132 -131 -132h-27v75c2 0 18 -1 19 0c41 1 58 28 58 75v550h81z" />
    <glyph glyph-name="k" unicode="k" horiz-adv-x="440" 
d="M435 0h-90l-131 241l-78 -108v-133h-81v726h81v-470h2l176 239h93l-141 -189z" />
    <glyph glyph-name="l" unicode="l" horiz-adv-x="227" 
d="M207 -3h-22c-78 0 -127 27 -126 118v611h81v-598c0 -37 13 -56 50 -56h17v-75z" />
    <glyph glyph-name="m" unicode="m" horiz-adv-x="702" 
d="M649 350v-350h-81v294c0 73 -18 125 -87 125c-63 0 -90 -48 -90 -124v-295h-81v294c0 71 -18 125 -88 125c-64 0 -90 -52 -90 -127v-292h-80v494h81v-53h2c28 39 67 59 115 59c54 0 97 -26 121 -63h1c38 44 80 63 137 63c80 0 140 -60 140 -150z" />
    <glyph glyph-name="n" unicode="n" horiz-adv-x="436" 
d="M389 0h-81v323c0 60 -32 96 -91 96c-54 0 -91 -38 -91 -98v-321h-80v495h81v-55h3c28 39 71 60 119 60c79 0 140 -57 140 -150v-350z" />
    <glyph glyph-name="o" unicode="o" horiz-adv-x="438" 
d="M222 501c78 0 120 -35 147 -82c18 -31 26 -110 26 -172c0 -36 -6 -117 -17 -150c-25 -78 -96 -104 -167 -104c-76 0 -124 36 -148 86c-17 36 -23 100 -23 165c0 62 5 124 20 160c26 60 82 97 162 97zM220 428c-38 0 -72 -19 -86 -56c-9 -25 -14 -75 -14 -137
c0 -44 1 -85 11 -111c14 -36 43 -57 85 -57c41 0 74 19 89 63c7 19 9 68 9 122c0 47 -2 92 -10 116c-14 40 -45 60 -84 60z" />
    <glyph glyph-name="p" unicode="p" horiz-adv-x="432" 
d="M127 448c29 37 67 53 113 53c130 0 149 -118 149 -252c0 -124 -23 -254 -157 -254c-40 0 -76 16 -105 49h-2v-244h-81v695h81v-46c1 0 1 -1 2 -1zM214 75c82 0 93 80 93 172c0 95 -10 177 -92 177c-97 0 -91 -111 -91 -189c0 -71 7 -160 90 -160z" />
    <glyph glyph-name="q" unicode="q" horiz-adv-x="440" 
d="M307 448c1 0 1 1 2 1v46h81v-697h-81v254h-2c-31 -41 -73 -57 -113 -57c-136 0 -151 124 -151 248c0 129 21 258 151 258c46 0 84 -16 113 -53zM219 75c80 0 91 89 91 160c0 78 6 190 -91 190c-80 0 -92 -83 -92 -178c0 -92 9 -172 92 -172z" />
    <glyph glyph-name="r" unicode="r" horiz-adv-x="311" 
d="M139 435h3c30 52 68 66 121 66c18 -1 35 -5 45 -11l-18 -87c-15 7 -32 11 -49 11c-61 0 -102 -33 -102 -107v-307h-80v494h80v-59z" />
    <glyph glyph-name="s" unicode="s" horiz-adv-x="405" 
d="M27 98l66 38c21 -43 56 -68 109 -68c55 0 89 22 89 74c0 50 -39 61 -93 76c-96 25 -158 57 -158 142c0 87 62 141 161 141c89 0 136 -36 159 -95l-63 -39c-19 39 -52 60 -97 60c-59 0 -80 -32 -80 -67c0 -45 53 -55 112 -72c93 -22 139 -58 139 -148
c0 -89 -64 -147 -171 -147c-85 0 -142 37 -173 105z" />
    <glyph glyph-name="t" unicode="t" horiz-adv-x="255" 
d="M230 0h-45c-76 0 -114 50 -114 113v316h-55v66h55v127h81v-127h70v-66h-70v-293c0 -41 15 -62 51 -62h27v-74z" />
    <glyph glyph-name="u" unicode="u" horiz-adv-x="442" 
d="M389 0h-80v53h-3c-28 -40 -72 -59 -119 -59c-80 0 -141 57 -141 150v350h81v-323c0 -59 36 -98 91 -98c54 0 91 39 91 100v321h80v-494z" />
    <glyph glyph-name="v" unicode="v" horiz-adv-x="395" 
d="M198 116h3c8 25 38 146 45 170c12 36 44 173 56 209h87c-30 -82 -120 -413 -150 -495h-82c-30 82 -121 413 -151 495h87c12 -35 46 -175 58 -210z" />
    <glyph glyph-name="w" unicode="w" horiz-adv-x="635" 
d="M625 495l-135 -495h-79c-21 80 -44 159 -64 240l-31 115h-2c-10 -42 -21 -87 -32 -128l-60 -227h-80l-134 495h86c22 -87 43 -175 64 -262l24 -102h4l25 101c21 86 45 174 67 263h79c22 -85 43 -171 64 -256l27 -113h4l25 108c21 87 40 174 61 261h87z" />
    <glyph glyph-name="x" unicode="x" horiz-adv-x="394" 
d="M386 0h-91l-97 190l-98 -190h-91l145 254l-138 241h91l91 -181l90 181h91l-138 -242z" />
    <glyph glyph-name="y" unicode="y" horiz-adv-x="384" 
d="M384 495l-178 -594c-21 -70 -67 -103 -129 -103h-26v70h24c32 0 53 24 64 71l21 73l-159 483h86l61 -198l47 -167h3l44 167l58 198h84z" />
    <glyph glyph-name="z" unicode="z" horiz-adv-x="370" 
d="M342 0h-313v71l222 352h-208v71h299v-69l-221 -349h221v-76z" />
    <glyph glyph-name="braceleft" unicode="{" horiz-adv-x="246" 
d="M234 -103h-56c-51 0 -90 42 -90 107v139c0 70 -20 122 -71 128v51c51 7 71 66 71 130v137c0 66 39 108 90 108h56v-54h-30c-35 0 -45 -47 -45 -87v-126c0 -86 -47 -124 -68 -131v-3c21 -7 68 -46 68 -129v-130c0 -40 10 -87 45 -87h30v-53z" />
    <glyph glyph-name="bar" unicode="|" horiz-adv-x="207" 
d="M136 -162h-64v878h64v-878z" />
    <glyph glyph-name="braceright" unicode="}" horiz-adv-x="246" 
d="M232 271c-51 -6 -70 -58 -70 -128v-139c0 -65 -39 -107 -90 -107h-57v53h31c35 0 45 47 45 87v130c0 83 47 122 68 129v3c-21 7 -68 45 -68 131v126c0 40 -5 87 -45 87h-31v52h56c56 0 91 -43 91 -106v-137c0 -64 19 -123 70 -130v-51z" />
    <glyph glyph-name="asciitilde" unicode="~" horiz-adv-x="440" 
d="M423 289c-31 -51 -65 -86 -119 -86c-51 0 -114 57 -169 57c-30 0 -42 -14 -68 -45l-49 34c29 50 69 81 118 81c63 0 116 -55 169 -55c29 0 42 17 67 49z" />
    <glyph glyph-name="sterling" unicode="&#xa3;" horiz-adv-x="440" 
d="M32 298v66h61c-13 68 -40 109 -40 170c0 94 64 167 166 167c84 0 156 -37 189 -131l-76 -29c-29 66 -65 83 -110 83c-41 0 -81 -33 -81 -92c0 -50 27 -101 38 -168h127v-66h-121c0 -88 -17 -152 -56 -223h262v-75h-360v67c38 61 67 120 72 199l2 32h-73z" />
    <glyph glyph-name="yen" unicode="&#xa5;" horiz-adv-x="440" 
d="M418 696l-135 -349h111v-51h-130l-5 -15v-64h135v-52h-135v-165h-76v165h-134v52h134v63l-5 16h-129v51h109l-137 349h82c39 -105 77 -210 115 -315h4c38 105 76 210 113 315h83z" />
    <glyph glyph-name="section" unicode="&#xa7;" horiz-adv-x="445" 
d="M413 289c0 -45 -20 -85 -54 -113c22 -28 38 -61 38 -98c0 -91 -70 -153 -182 -153c-65 0 -130 29 -169 69c16 16 30 34 46 50c39 -39 79 -51 124 -51c65 0 103 29 103 82c0 46 -42 76 -117 110c-97 41 -149 77 -149 160c0 43 24 85 58 112c-26 27 -42 56 -42 98
c0 86 71 147 165 147c65 0 120 -21 162 -60c-15 -18 -31 -36 -47 -54c-42 36 -80 46 -116 46c-54 0 -86 -32 -86 -73c0 -49 51 -73 111 -101c74 -34 155 -78 155 -171zM339 287v3c0 46 -42 70 -114 100c-17 8 -35 14 -54 24c-27 -10 -43 -34 -43 -63c0 -41 49 -72 97 -93
c26 -12 54 -23 77 -36c25 13 37 38 37 65z" />
    <glyph glyph-name="quotesingle" unicode="'" horiz-adv-x="207" 
d="M133 498h-62v198h62v-198z" />
    <glyph glyph-name="quotedblleft" unicode="&#x201c;" horiz-adv-x="300" 
d="M37 605l51 114h47l-28 -112h25v-104h-95v102zM167 605l51 114h48l-28 -112h24v-104h-95v102z" />
    <glyph glyph-name="guillemotleft" unicode="&#xab;" horiz-adv-x="447" 
d="M406 46h-78l-117 186l117 186h78l-114 -186zM239 46h-78l-117 186l117 186h78l-115 -186z" />
    <glyph glyph-name="endash" unicode="&#x2013;" horiz-adv-x="440" 
d="M420 230h-400v76h400v-76z" />
    <glyph glyph-name="dagger" unicode="&#x2020;" horiz-adv-x="412" 
d="M395 394h-151v-591h-75v591h-152v68h152v234h75v-234h151v-68z" />
    <glyph glyph-name="periodcentered" unicode="&#xb7;" horiz-adv-x="215" 
d="M154 223h-95v101h95v-101z" />
    <glyph glyph-name="bullet" unicode="&#x2022;" horiz-adv-x="410" 
d="M334 279c0 -70 -57 -127 -128 -127s-127 57 -127 127s56 128 127 128s128 -58 128 -128z" />
    <glyph glyph-name="quotedblright" unicode="&#x201d;" horiz-adv-x="300" 
d="M271 618l-51 -115h-47l28 113h-25v104h95v-102zM141 618l-51 -115h-48l28 113h-24v104h95v-102z" />
    <glyph glyph-name="guillemotright" unicode="&#xbb;" horiz-adv-x="447" 
d="M123 46h-78l114 186l-114 186h78l117 -186zM290 46h-78l115 186l-115 186h78l117 -186z" />
    <glyph glyph-name="ellipsis" unicode="&#x2026;" horiz-adv-x="708" 
d="M163 0h-95v101h95v-101zM398 0h-95v101h95v-101zM638 0h-95v101h95v-101z" />
    <glyph glyph-name="perthousand" unicode="&#x2030;" horiz-adv-x="908" 
d="M537 714l-370 -731h-56l369 731h57zM266 382c0 -66 -51 -107 -113 -107s-113 41 -113 107v210c0 65 49 107 113 107c65 0 113 -42 113 -107v-210zM203 382v210c0 28 -20 49 -50 49s-50 -21 -50 -49v-210c0 -30 20 -50 50 -50s50 20 50 50zM612 99
c0 -66 -53 -103 -113 -103s-113 37 -113 103v218c0 65 53 103 113 103s113 -38 113 -103v-218zM549 99v218c0 28 -20 45 -50 45s-50 -17 -50 -45v-218c0 -30 20 -46 50 -46s50 16 50 46zM868 99c0 -66 -53 -103 -113 -103s-113 37 -113 103v218c0 65 53 103 113 103
s113 -38 113 -103v-218zM805 99v218c0 28 -20 45 -50 45s-50 -17 -50 -45v-218c0 -30 20 -46 50 -46s50 16 50 46z" />
    <glyph glyph-name="grave" unicode="`" horiz-adv-x="424" 
d="M311 572l-48 -19l-98 167l76 25z" />
    <glyph glyph-name="dieresis" unicode="&#xa8;" horiz-adv-x="427" 
d="M335 593h-78v84h78v-84zM169 593h-79v84h79v-84z" />
    <glyph glyph-name="oe" unicode="&#x153;" horiz-adv-x="702" 
d="M584 124l66 -35c-27 -58 -83 -95 -149 -95c-69 0 -117 19 -147 63c-33 -46 -88 -64 -143 -64c-76 0 -124 36 -148 86c-17 36 -23 100 -23 165c0 62 5 124 20 160c26 60 82 97 162 97c63 0 108 -26 137 -64c26 39 68 64 131 64c111 0 173 -77 173 -201v-77h-267
c0 -87 17 -156 102 -156c36 0 68 27 86 57zM220 428c-38 0 -70 -19 -86 -56c-11 -24 -14 -75 -14 -137c0 -44 1 -85 11 -111c14 -36 43 -57 85 -57c41 0 74 23 89 67c7 19 9 64 9 118c0 47 -2 92 -10 116c-14 40 -45 60 -84 60zM583 288c0 90 -33 137 -92 137
c-69 0 -90 -53 -93 -137h185z" />
    <glyph glyph-name="germandbls" unicode="&#xdf;" horiz-adv-x="446" 
d="M316 421c82 -35 83 -116 83 -197c0 -116 -23 -229 -164 -229h-29v67h20c97 0 89 108 89 184c0 68 -16 136 -80 136h-24v70h19c59 0 71 54 71 100c0 61 -22 103 -83 103c-74 0 -85 -60 -85 -115v-540h-80v536c0 117 56 192 168 192c107 0 161 -68 161 -169
c0 -59 -15 -115 -66 -138z" />
    <glyph glyph-name="mu" unicode="&#xb5;" horiz-adv-x="454" 
d="M320 0v52h-3c-28 -39 -72 -57 -119 -57c-20 0 -41 5 -59 15l-1 -212h-81v696h81v-294c0 -71 24 -125 91 -125c69 0 91 54 91 132v287h80v-494h-80z" />
    <glyph glyph-name="mu" unicode="&#x3bc;" horiz-adv-x="454" 
d="M320 0v52h-3c-28 -39 -72 -57 -119 -57c-20 0 -41 5 -59 15l-1 -212h-81v696h81v-294c0 -71 24 -125 91 -125c69 0 91 54 91 132v287h80v-494h-80z" />
    <glyph glyph-name="trademark" unicode="&#x2122;" horiz-adv-x="757" 
d="M637 536l-82 -175h-53l-81 176h-1v-241h-62v399h62l111 -248l109 248h61v-399h-63zM308 638h-104v-341h-63v341h-104v58h271v-58z" />
    <glyph glyph-name="plusminus" unicode="&#xb1;" horiz-adv-x="440" 
d="M421 278h-168v-169h-61v169h-168v62h168v169h61v-169h168v-62zM421 0h-397v62h397v-62z" />
    <glyph glyph-name="divide" unicode="&#xf7;" horiz-adv-x="440" 
d="M277 463c0 -30 -25 -55 -54 -55c-31 0 -55 25 -55 55s24 55 55 55c29 0 54 -25 54 -55zM425 263h-406v62h406v-62zM223 179c29 0 54 -24 54 -54c0 -31 -25 -55 -54 -55c-31 0 -55 24 -55 55c0 30 24 54 55 54z" />
    <glyph glyph-name="degree" unicode="&#xb0;" horiz-adv-x="333" 
d="M286 584c0 -65 -53 -117 -118 -117s-117 52 -117 117s52 117 117 117s118 -52 118 -117zM236 584c0 38 -30 68 -68 68c-37 0 -68 -30 -68 -68s31 -69 68 -69c38 0 68 31 68 69z" />
    <glyph glyph-name="registered" unicode="&#xae;" horiz-adv-x="523" 
d="M261 278c-122 0 -201 91 -201 213c0 123 79 215 201 215c120 0 199 -92 199 -215c0 -122 -79 -213 -199 -213zM261 670c-100 0 -160 -78 -160 -178c0 -102 63 -176 160 -176c99 0 158 76 158 176s-62 178 -158 178zM352 362h-47c-14 35 -29 70 -44 105h-33v-105h-42v255
h73c49 0 85 -20 85 -75c0 -31 -14 -56 -41 -69c17 -36 34 -74 49 -111zM302 542c0 30 -17 37 -50 37h-24v-75h32c26 0 42 12 42 38z" />
    <glyph glyph-name="copyright" unicode="&#xa9;" horiz-adv-x="753" 
d="M443 228l56 -21c-15 -56 -64 -89 -121 -89c-80 0 -128 54 -128 130v176c0 72 47 128 128 128c57 0 105 -32 121 -88l-56 -22c-8 30 -31 52 -65 52c-45 0 -68 -34 -68 -69v-179c0 -36 23 -71 68 -71c32 0 57 21 65 53zM376 -8c-200 0 -325 150 -325 349
c0 201 128 351 325 351c196 0 326 -150 326 -351c0 -199 -130 -349 -326 -349zM376 636c-164 0 -265 -129 -265 -295c0 -164 105 -293 265 -293c164 0 265 129 265 293c0 166 -103 295 -265 295z" />
    <glyph glyph-name="acircumflex" unicode="&#xe2;" horiz-adv-x="426" 
d="M309 36l-4 2c-23 -29 -65 -44 -117 -44c-97 0 -142 67 -142 145c0 88 52 153 172 153h91v61c0 45 -31 72 -89 72c-38 0 -76 -12 -91 -47c-21 12 -42 25 -63 38c26 54 86 85 154 85c94 0 171 -35 171 -149v-352h-82v36zM309 155v68h-97c-52 0 -89 -24 -89 -79
c0 -44 29 -74 89 -74c56 0 97 23 97 85zM343 553l-125 100l-125 -101l-37 33l141 146h50l133 -144z" />
    <glyph glyph-name="adieresis" unicode="&#xe4;" horiz-adv-x="426" 
d="M309 36l-4 2c-23 -29 -65 -44 -117 -44c-97 0 -142 67 -142 145c0 88 52 153 172 153h91v61c0 45 -31 72 -89 72c-38 0 -76 -12 -91 -47c-21 12 -42 25 -63 38c26 54 86 85 154 85c94 0 171 -35 171 -149v-352h-82v36zM309 155v68h-97c-52 0 -89 -24 -89 -79
c0 -44 29 -74 89 -74c56 0 97 23 97 85zM341 593h-78v84h78v-84zM175 593h-79v84h79v-84z" />
    <glyph glyph-name="agrave" unicode="&#xe0;" horiz-adv-x="426" 
d="M309 36l-4 2c-23 -29 -65 -44 -117 -44c-97 0 -142 67 -142 145c0 88 52 153 172 153h91v61c0 45 -31 72 -89 72c-38 0 -76 -12 -91 -47c-21 12 -42 25 -63 38c26 54 86 85 154 85c94 0 171 -35 171 -149v-352h-82v36zM309 155v68h-97c-52 0 -89 -24 -89 -79
c0 -44 29 -74 89 -74c56 0 97 23 97 85zM261 572l-48 -19l-98 167l76 25z" />
    <glyph glyph-name="ccedilla" unicode="&#xe7;" horiz-adv-x="385" 
d="M301 121c22 -13 45 -24 68 -37c-25 -53 -76 -87 -143 -90l-12 -41c69 -4 89 -49 89 -80c0 -33 -25 -78 -93 -78c-11 0 -56 0 -89 16l14 37c25 -12 50 -13 68 -13c23 0 44 14 44 37c0 27 -20 45 -64 42l-18 15l20 67c-122 14 -154 116 -154 262c0 148 58 243 186 243
c72 0 125 -36 151 -91l-66 -41c-15 34 -45 55 -84 55c-89 0 -106 -73 -106 -168c0 -96 18 -186 105 -186c40 0 70 24 84 51z" />
    <glyph glyph-name="pi" unicode="&#x3c0;" horiz-adv-x="458" 
d="M401 0h-81v423h-181v-423h-81v495h343v-495z" />
    <glyph glyph-name="dieresistonos" unicode="&#x385;" horiz-adv-x="426" 
d="M361 589h-78v85h78v-85zM140 589h-78v85h78v-85zM197 553l-48 19l70 173l76 -25z" />
    <glyph glyph-name="tonos" unicode="&#x384;" horiz-adv-x="426" 
d="M250 553l-48 19l70 173l76 -25z" />
    <glyph glyph-name="sfthyphen" unicode="&#xad;" horiz-adv-x="369" 
d="M324 222h-273v71h273v-71z" />
    <glyph glyph-name="Gamma" unicode="&#x393;" horiz-adv-x="441" 
d="M426 618h-278v-618h-83v696h361v-78z" />
    <glyph glyph-name="Delta" unicode="&#x394;" horiz-adv-x="497" 
d="M488 0h-479l202 696h75zM381 75c-16 61 -122 447 -132 486h-2c-9 -26 -26 -93 -44 -168c-30 -107 -61 -223 -89 -318h267z" />
    <glyph glyph-name="Delta" unicode="&#x2206;" horiz-adv-x="497" 
d="M488 0h-479l202 696h75zM381 75c-16 61 -122 447 -132 486h-2c-9 -26 -26 -93 -44 -168c-30 -107 -61 -223 -89 -318h267z" />
    <glyph glyph-name="Theta" unicode="&#x398;" horiz-adv-x="497" 
d="M156 317v74h185v-74h-185zM452 204c0 -128 -84 -210 -204 -210c-147 0 -204 105 -204 222v279c0 94 54 206 204 206c141 0 204 -105 204 -206v-291zM367 196v298c0 42 -23 128 -119 128c-91 0 -122 -77 -122 -128l1 -277c0 -81 34 -146 123 -146c64 0 117 48 117 125z
" />
    <glyph glyph-name="Lambda" unicode="&#x39b;" horiz-adv-x="497" 
d="M488 0h-85l-46 165c-16 56 -41 142 -108 388h-2c-19 -72 -32 -113 -41 -145c-38 -143 -55 -205 -67 -248l-46 -160h-84l202 696h75z" />
    <glyph glyph-name="Xi" unicode="&#x39e;" horiz-adv-x="463" 
d="M417 618h-370v78h370v-78zM377 315h-290v75h290v-75zM417 0h-370v81h370v-81z" />
    <glyph glyph-name="Pi" unicode="&#x3a0;" horiz-adv-x="525" 
d="M461 0h-84v623h-229v-623h-83v696h396v-696z" />
    <glyph glyph-name="Sigma" unicode="&#x3a3;" horiz-adv-x="408" 
d="M387 0h-362v72l134 286l-135 269v69h351v-76h-260l136 -262l-135 -281h271v-77z" />
    <glyph glyph-name="Iotadieresis" unicode="&#x3aa;" horiz-adv-x="217" 
d="M150 0h-84v696h84v-696zM231 748h-78v84h78v-84zM65 748h-79v84h79v-84z" />
    <glyph glyph-name="Phi" unicode="&#x3a6;" horiz-adv-x="613" 
d="M265 0v56h-1c-163 12 -221 106 -221 305c0 185 69 287 221 300h1v35h83v-35h4c155 -13 221 -115 221 -300c0 -199 -62 -284 -221 -305h-4v-56h-83zM264 128v463c-95 -4 -141 -76 -141 -229c0 -180 54 -228 141 -234zM350 591v-463c87 6 145 49 145 234
c0 156 -50 225 -145 229z" />
    <glyph glyph-name="Psi" unicode="&#x3a8;" horiz-adv-x="608" 
d="M555 337c0 -115 -88 -195 -209 -198v-139h-83v139c-122 2 -209 85 -209 203v354h84v-343c0 -81 49 -131 125 -133v476h83v-476c75 1 126 47 126 128v348h83v-359z" />
    <glyph glyph-name="Omega" unicode="&#x3a9;" horiz-adv-x="497" 
d="M291 93c49 17 77 64 77 127v270c0 77 -46 131 -120 131c-78 0 -121 -58 -121 -131v-270c0 -58 28 -108 79 -127l-1 -93h-172v78h71c-45 29 -60 91 -60 151v262c0 122 81 211 204 211c115 0 204 -83 204 -211v-262c0 -63 -16 -118 -60 -151h71v-78h-172v93z" />
    <glyph glyph-name="afii00208" unicode="&#x2015;" horiz-adv-x="710" 
d="M690 230h-670v76h670v-76z" />
    <glyph glyph-name="alpha" unicode="&#x3b1;" horiz-adv-x="445" 
d="M307 448c1 0 1 1 2 1v46h81v-495h-81v51c-1 0 -1 1 -2 1c-31 -41 -72 -57 -112 -57c-128 0 -152 114 -152 234c0 127 21 272 154 272c46 0 81 -17 110 -53zM219 425c-87 0 -91 -116 -92 -189c-1 -101 21 -162 88 -162c71 0 95 67 95 163c0 101 -7 188 -91 188z" />
    <glyph glyph-name="beta" unicode="&#x3b2;" horiz-adv-x="443" 
d="M133 560v-321c0 -29 1 -61 6 -90c7 -45 33 -79 85 -79c83 0 92 76 92 164c-1 81 -15 139 -84 139h-54v70h43c62 0 77 48 77 102c0 60 -20 109 -82 109s-83 -49 -83 -94zM53 -145v668c0 23 1 45 4 66c11 84 69 138 162 138c116 0 161 -79 161 -176
c0 -71 -19 -113 -66 -139v-1c72 -20 86 -80 86 -180c0 -129 -23 -237 -152 -237c-46 0 -83 15 -113 52c-1 0 -1 -1 -2 -1v-190h-80z" />
    <glyph glyph-name="psi" unicode="&#x3c8;" horiz-adv-x="547" 
d="M498 159c0 -101 -82 -161 -184 -165v-196h-81v196c-101 4 -181 64 -181 163v337h80v-327c0 -55 40 -95 101 -98v435h81v-435c59 5 103 41 103 98v327h81v-335z" />
    <glyph glyph-name="delta" unicode="&#x3b4;" horiz-adv-x="427" 
d="M364 705l-22 -68c-33 11 -63 18 -93 18c-63 0 -93 -22 -93 -63c0 -31 33 -60 94 -91c44 -23 84 -48 106 -80c30 -41 34 -97 34 -177c0 -44 -2 -81 -9 -119c-15 -89 -93 -131 -173 -131c-67 0 -114 21 -141 64c-28 44 -32 109 -32 184c0 48 4 100 23 143
c16 36 39 67 87 85c-47 31 -71 67 -71 120c0 96 75 137 171 137c37 0 79 -6 119 -22zM216 427c-49 -10 -79 -36 -90 -78c-8 -28 -10 -67 -10 -116c0 -43 1 -78 10 -105c14 -41 42 -61 88 -61c45 0 75 23 89 73c7 25 7 55 7 95c0 22 0 43 -1 65c-3 61 -30 111 -93 127z" />
    <glyph glyph-name="epsilon" unicode="&#x3b5;" horiz-adv-x="380" 
d="M302 124l68 -39c-25 -55 -79 -90 -155 -90c-108 0 -171 53 -171 150c0 39 19 92 73 112v1c-56 19 -69 63 -69 103c0 76 56 140 163 140c81 0 133 -36 158 -91c-22 -13 -44 -27 -66 -41c-14 31 -48 54 -89 54c-56 0 -86 -26 -86 -65c0 -40 33 -63 80 -63h64v-70h-69
c-39 0 -79 -28 -79 -79c0 -43 33 -75 91 -75c41 0 73 23 87 53z" />
    <glyph glyph-name="phi" unicode="&#x3c6;" horiz-adv-x="531" 
d="M225 -196v190c-94 4 -148 37 -173 111c-10 33 -13 89 -13 139c0 67 7 137 29 177c18 33 46 58 89 71l24 -71c-58 -21 -62 -95 -62 -186c0 -37 2 -70 9 -97c13 -44 46 -69 97 -71v434h85c77 0 134 -35 159 -84c22 -44 26 -112 26 -179c0 -57 -2 -110 -26 -158
c-29 -57 -92 -83 -163 -86v-190h-81zM306 427v-359c55 4 95 29 104 81c5 25 5 60 5 97c0 50 -2 96 -11 121c-15 40 -55 59 -98 60z" />
    <glyph glyph-name="gamma" unicode="&#x3b3;" horiz-adv-x="396" 
d="M163 -196v210c-35 133 -64 240 -105 365c-13 41 -18 43 -44 43h-4l-6 70c17 6 35 8 48 8c42 0 62 -27 76 -70c24 -72 53 -189 74 -268h6l40 146c19 63 37 126 57 187h84c-50 -156 -98 -307 -146 -471v-220h-80z" />
    <glyph glyph-name="eta" unicode="&#x3b7;" horiz-adv-x="445" 
d="M393 0h-81v323c0 60 -32 96 -90 96c-55 0 -91 -38 -91 -98v-321h-81v495h81v-55h3c28 39 71 60 119 60c80 0 140 -57 140 -150v-350z" />
    <glyph glyph-name="iota" unicode="&#x3b9;" horiz-adv-x="217" 
d="M178 70l-2 -71c-85 -7 -118 18 -118 105v390h81v-379c0 -39 9 -45 39 -45z" />
    <glyph glyph-name="xi" unicode="&#x3be;" horiz-adv-x="363" 
d="M221 728c57 0 128 -24 159 -86l-58 -46c-37 43 -71 53 -107 53c-56 0 -88 -46 -88 -108c0 -58 37 -114 113 -114h85v-70h-97c-79 0 -111 -78 -111 -146c0 -73 29 -105 81 -127l60 -24c81 -32 109 -54 109 -97c0 -34 -20 -81 -67 -143l-62 34c27 46 39 70 39 85
c0 13 -12 24 -31 33c-29 14 -66 27 -99 41c-77 32 -113 91 -113 195c0 69 22 147 95 183c-71 26 -85 99 -85 151c0 108 60 186 177 186z" />
    <glyph glyph-name="kappa" unicode="&#x3ba;" horiz-adv-x="435" 
d="M432 0h-90l-128 241l-78 -110v-131h-81v495h81v-239h2l175 239h94l-141 -190z" />
    <glyph glyph-name="lambda" unicode="&#x3bb;" horiz-adv-x="401" 
d="M398 66l3 -67c-14 -3 -28 -4 -39 -4c-41 0 -63 17 -76 62l-48 165c-12 43 -22 86 -35 128h-3c-15 -53 -32 -106 -47 -159l-63 -191h-85l159 479l-30 121c-9 34 -19 52 -57 52c-5 0 -12 0 -19 -1l-4 71c17 4 35 6 48 6c57 0 88 -30 106 -98l143 -512c12 -42 15 -52 47 -52
z" />
    <glyph glyph-name="nu" unicode="&#x3bd;" horiz-adv-x="392" 
d="M387 495l-151 -495h-80l-151 495h85l59 -206l46 -172h3l47 174l56 204h86z" />
    <glyph glyph-name="omicron" unicode="&#x3bf;" horiz-adv-x="438" 
d="M222 501c78 0 120 -35 147 -82c18 -31 26 -110 26 -172c0 -36 -6 -117 -17 -150c-25 -78 -96 -104 -167 -104c-76 0 -124 36 -148 86c-17 36 -23 100 -23 165c0 62 5 124 20 160c26 60 82 97 162 97zM220 428c-38 0 -72 -19 -86 -56c-9 -25 -14 -75 -14 -137
c0 -44 1 -85 11 -111c14 -36 43 -57 85 -57c41 0 74 19 89 63c7 19 9 68 9 122c0 47 -2 92 -10 116c-14 40 -45 60 -84 60z" />
    <glyph glyph-name="omegatonos" unicode="&#x3ce;" horiz-adv-x="647" 
d="M452 425l7 75c125 -7 156 -97 156 -256c0 -142 -28 -250 -170 -250c-40 0 -93 17 -121 62h-3c-30 -42 -71 -62 -119 -62c-139 0 -165 106 -165 250c0 159 32 249 158 256c2 -25 4 -50 5 -75c-59 -6 -82 -52 -82 -190c0 -104 17 -164 85 -164c69 0 78 55 78 117v173h80
v-173c0 -62 16 -120 84 -120c74 0 88 64 88 167c0 134 -18 181 -81 190zM329 553l-48 19l70 173l76 -25z" />
    <glyph glyph-name="rho" unicode="&#x3c1;" horiz-adv-x="438" 
d="M221 428c-37 0 -66 -19 -83 -56c-11 -27 -13 -75 -14 -137c0 -44 1 -85 11 -111c14 -36 42 -57 84 -57c40 0 74 23 88 67c7 19 10 64 10 110c0 51 -2 99 -11 124c-14 40 -46 60 -85 60zM223 501c73 0 123 -33 149 -81c22 -45 25 -117 25 -184c0 -51 -4 -91 -16 -126
c-21 -68 -73 -116 -150 -116c-41 0 -75 17 -103 51l-2 -1v-240h-81v440c0 62 7 130 19 160c25 60 79 97 159 97z" />
    <glyph glyph-name="sigma" unicode="&#x3c3;" horiz-adv-x="442" 
d="M347 425c-1 -1 -1 -2 -1 -4c24 -19 37 -48 41 -84c4 -31 4 -66 4 -101c0 -39 -2 -74 -9 -109c-19 -100 -92 -133 -171 -133c-95 0 -144 50 -162 120c-8 31 -10 84 -10 129c0 71 11 138 34 176c26 50 81 76 144 76h207v-70h-77zM216 416c-33 0 -60 -14 -76 -44
c-15 -28 -20 -72 -21 -137c0 -49 5 -93 19 -119c14 -30 40 -47 78 -47c33 0 59 16 74 44c14 22 21 74 21 130s-6 101 -20 128c-15 30 -41 45 -75 45z" />
    <glyph glyph-name="tau" unicode="&#x3c4;" horiz-adv-x="298" 
d="M283 423h-103v-287c0 -41 15 -60 51 -60h34v-76h-52c-76 0 -114 50 -114 113v310h-88v72h272v-72z" />
    <glyph glyph-name="theta" unicode="&#x3b8;" horiz-adv-x="426" 
d="M390 465v-229c0 -51 -1 -97 -14 -135c-25 -86 -99 -108 -166 -108c-76 0 -123 36 -146 85c-19 37 -24 103 -24 165v229c0 62 4 125 19 160c25 61 78 97 158 97c73 0 121 -32 147 -81c22 -45 26 -116 26 -183zM132 124c14 -36 42 -57 84 -57c40 0 71 22 85 66
c7 19 9 65 9 111v102h-190v-112c0 -44 2 -84 12 -110zM310 412v61c0 51 -3 98 -12 124c-14 40 -43 59 -82 59c-38 0 -67 -18 -83 -55c-11 -28 -12 -76 -13 -138v-51h190z" />
    <glyph glyph-name="omega" unicode="&#x3c9;" horiz-adv-x="647" 
d="M452 425l7 75c125 -7 156 -97 156 -256c0 -142 -28 -250 -170 -250c-40 0 -93 17 -121 62h-3c-30 -42 -71 -62 -119 -62c-139 0 -165 106 -165 250c0 159 32 249 158 256c2 -25 4 -50 5 -75c-59 -6 -82 -52 -82 -190c0 -104 17 -164 85 -164c69 0 78 55 78 117v173h80
v-173c0 -62 16 -120 84 -120c74 0 88 64 88 167c0 134 -18 181 -81 190z" />
    <glyph glyph-name="sigma1" unicode="&#x3c2;" horiz-adv-x="380" 
d="M45 214c0 58 1 149 28 200c30 59 87 87 159 87c71 0 134 -33 154 -101l-67 -37c-17 41 -56 61 -92 61c-31 0 -54 -9 -70 -29c-21 -27 -30 -82 -30 -157c0 -78 9 -108 71 -143c25 -12 52 -24 81 -37c56 -25 77 -53 77 -89c0 -42 -34 -95 -68 -138l-62 36
c25 39 38 60 38 83c0 18 -13 29 -45 43c-124 49 -174 84 -174 221z" />
    <glyph glyph-name="chi" unicode="&#x3c7;" horiz-adv-x="394" 
d="M386 0h-91l-97 190l-98 -190h-91l145 254l-138 241h91l91 -181l90 181h91l-138 -242z" />
    <glyph glyph-name="upsilon" unicode="&#x3c5;" horiz-adv-x="445" 
d="M396 495v-254c0 -89 -5 -110 -10 -131c-21 -85 -91 -116 -167 -116c-85 0 -137 43 -158 100c-7 22 -10 54 -11 85v316h80v-284c0 -22 0 -45 3 -56c5 -53 40 -86 91 -86c47 0 83 34 88 85c4 15 5 67 5 103v238h79z" />
    <glyph glyph-name="zeta" unicode="&#x3b6;" horiz-adv-x="358" 
d="M117 189c0 -50 27 -76 80 -99c134 -59 166 -68 166 -122c0 -37 -34 -93 -78 -148l-58 38c25 36 45 77 45 93c0 17 -14 27 -45 39c-110 43 -195 74 -195 198c0 113 90 285 257 438h-225v76h333v-72c-185 -163 -280 -321 -280 -441z" />
    <glyph glyph-name="iotadieresis" unicode="&#x3ca;" horiz-adv-x="217" 
d="M178 70l-2 -71c-85 -7 -118 18 -118 105v390h81v-379c0 -39 9 -45 39 -45zM222 593h-78v84h78v-84zM56 593h-79v84h79v-84z" />
    <glyph glyph-name="upsilondieresis" unicode="&#x3cb;" horiz-adv-x="446" 
d="M396 495v-254c0 -89 -5 -110 -10 -131c-21 -85 -91 -116 -167 -116c-85 0 -137 43 -158 100c-7 22 -10 54 -11 85v316h80v-284c0 -22 0 -45 3 -56c5 -53 40 -86 91 -86c47 0 83 34 88 85c4 15 5 67 5 103v238h79zM343 593h-78v84h78v-84zM177 593h-79v84h79v-84z" />
    <glyph glyph-name="iotadieresistonos" unicode="&#x390;" horiz-adv-x="217" 
d="M178 70l-2 -71c-85 -7 -118 18 -118 105v390h81v-379c0 -39 9 -45 39 -45zM248 589h-78v85h78v-85zM27 589h-78v85h78v-85zM84 553l-48 19l70 173l76 -25z" />
    <glyph glyph-name="upsilondieresistonos" unicode="&#x3b0;" horiz-adv-x="446" 
d="M396 495v-254c0 -89 -5 -110 -10 -131c-21 -85 -91 -116 -167 -116c-85 0 -137 43 -158 100c-7 22 -10 54 -11 85v316h80v-284c0 -22 0 -45 3 -56c5 -53 40 -86 91 -86c47 0 83 34 88 85c4 15 5 67 5 103v238h79zM371 589h-78v85h78v-85zM150 589h-78v85h78v-85zM207 553
l-48 19l70 173l76 -25z" />
    <glyph glyph-name="Euro" unicode="&#x20ac;" horiz-adv-x="440" 
d="M313 378h-177v-59h177v-52h-177v-77c0 -63 36 -120 109 -120c59 0 91 35 110 87l75 -23c-23 -88 -94 -140 -185 -140c-119 0 -192 82 -192 205v68h-39v52h39v59h-39v51h39v69c0 118 71 203 192 203c90 0 163 -51 185 -139l-80 -23c-14 47 -47 85 -105 85
c-77 0 -109 -59 -109 -124v-71h177v-51z" />
    <glyph glyph-name="logicalnot" unicode="&#xac;" horiz-adv-x="440" 
d="M421 325l-1 -240h-62v178h-339v62h402z" />
    <glyph glyph-name="dollar" unicode="$" horiz-adv-x="440" 
d="M200 -105v100c-85 5 -145 56 -173 118l66 41c19 -41 53 -76 107 -83v247c-109 41 -161 92 -161 189c0 103 59 179 161 188v81h44v-81c83 -6 137 -55 158 -104l-67 -44c-17 39 -47 65 -91 71v-229c125 -29 163 -96 163 -200c0 -112 -56 -186 -163 -194v-100h-44zM325 188
c0 68 -28 93 -81 115v-231c61 9 81 55 81 116zM122 506c0 -50 27 -78 78 -101v214c-53 -9 -78 -55 -78 -113z" />
    <glyph glyph-name="circumflex" unicode="&#x2c6;" horiz-adv-x="491" 
d="M375 553l-125 100l-125 -101l-37 33l141 146h50l133 -144z" />
    <glyph glyph-name="caron" unicode="&#x2c7;" horiz-adv-x="426" 
d="M219 632l125 100l37 -35l-133 -144h-50l-141 146l37 33z" />
    <glyph glyph-name="breve" unicode="&#x2d8;" horiz-adv-x="426" 
d="M86 699h69c2 -27 28 -63 69 -63c45 0 70 36 70 63h67c-5 -52 -36 -126 -137 -126c-103 0 -137 74 -138 126z" />
    <glyph glyph-name="tilde" unicode="&#x2dc;" horiz-adv-x="427" 
d="M151 689c43 0 84 -42 122 -42c19 0 36 13 57 42l45 -28c-27 -54 -62 -82 -98 -82c-44 0 -87 41 -122 41c-20 0 -37 -12 -58 -38l-44 25c22 45 60 82 98 82z" />
    <glyph glyph-name="Dieresis" unicode="&#xf6cb;" horiz-adv-x="497" 
d="M369 748h-78v84h78v-84zM203 748h-79v84h79v-84z" />
    <glyph glyph-name="acute" unicode="&#xb4;" horiz-adv-x="424" 
d="M213 553l-48 19l70 173l76 -25z" />
    <glyph glyph-name="cedilla" unicode="&#xb8;" horiz-adv-x="431" 
d="M195 29l41 -3l-22 -73c69 -4 89 -49 89 -80c0 -33 -25 -78 -93 -78c-11 0 -56 0 -89 16l14 37c25 -12 50 -13 68 -13c23 0 44 14 44 37c0 27 -20 45 -64 42l-18 15z" />
    <glyph glyph-name="AE" unicode="&#xc6;" horiz-adv-x="801" 
d="M395 0v193h-206l-96 -193h-86c115 232 231 464 347 696h411v-78h-286v-228h245v-75h-245v-235h286v-80h-370zM394 617l-168 -349h169v349h-1z" />
    <glyph glyph-name="Ccedilla" unicode="&#xc7;" horiz-adv-x="469" 
d="M367 158l79 -29c-23 -82 -90 -129 -178 -134l-12 -42c69 -4 89 -49 89 -80c0 -33 -25 -78 -93 -78c-11 0 -56 0 -89 16l14 37c25 -12 50 -13 68 -13c23 0 44 14 44 37c0 27 -20 45 -64 42l-18 15l20 67c-111 10 -177 92 -177 206v292c0 118 74 207 203 207
c94 0 168 -49 193 -133l-79 -31c-13 50 -52 84 -114 84c-78 0 -120 -60 -120 -125v-296c0 -66 43 -127 120 -127c60 0 101 33 114 85z" />
    <glyph glyph-name="Ntilde" unicode="&#xd1;" horiz-adv-x="562" 
d="M500 0h-80l-199 366l-71 139h-3v-505h-84v696h81l195 -361l74 -143l4 1v503h83v-696zM216 857c43 0 84 -42 122 -42c19 0 36 13 57 42l45 -28c-27 -54 -62 -82 -98 -82c-44 0 -87 41 -122 41c-20 0 -37 -12 -58 -38l-44 25c22 45 60 82 98 82z" />
    <glyph glyph-name="multiply" unicode="&#xd7;" horiz-adv-x="484" 
d="M443 434l-149 -150l146 -146l-44 -44l-146 146l-150 -149l-43 43l150 150l-146 146l43 44l146 -146l149 150z" />
    <glyph glyph-name="ae" unicode="&#xe6;" horiz-adv-x="690" 
d="M573 117l64 -35c-27 -58 -82 -88 -148 -88c-73 0 -121 21 -151 70c-58 -64 -119 -70 -160 -70c-97 0 -142 67 -142 145c0 88 52 153 172 153h91v61c0 45 -31 72 -89 72c-38 0 -76 -12 -91 -47c-21 12 -42 25 -63 38c26 54 86 85 154 85c60 0 113 -15 144 -55
c27 34 66 55 124 55c111 0 173 -77 173 -201v-77h-267c0 -87 17 -156 102 -156c36 0 69 20 87 50zM299 155v68h-97c-52 0 -89 -24 -89 -79c0 -44 29 -74 89 -74c56 0 97 23 97 85zM571 288c0 90 -33 137 -92 137c-69 0 -90 -53 -93 -137h185z" />
    <glyph glyph-name="eth" unicode="&#xf0;" horiz-adv-x="440" 
d="M208 478c24 0 80 -9 108 -54h3c-1 47 -5 106 -26 142l-63 -45l-24 34l63 46c-22 30 -70 53 -128 63l11 65c101 -10 149 -47 179 -80c22 17 46 33 68 50l27 -34l-70 -51c32 -51 41 -151 41 -302c0 -166 -13 -318 -187 -318c-131 0 -175 83 -175 232c0 134 34 252 173 252z
M214 406c-52 0 -96 -27 -99 -174c0 -105 21 -166 96 -166c60 0 100 41 100 176c0 119 -33 164 -97 164z" />
    <glyph glyph-name="otilde" unicode="&#xf5;" horiz-adv-x="438" 
d="M222 501c78 0 120 -35 147 -82c18 -31 26 -110 26 -172c0 -36 -6 -117 -17 -150c-25 -78 -96 -104 -167 -104c-76 0 -124 36 -148 86c-17 36 -23 100 -23 165c0 62 5 124 20 160c26 60 82 97 162 97zM220 428c-38 0 -72 -19 -86 -56c-9 -25 -14 -75 -14 -137
c0 -44 1 -85 11 -111c14 -36 43 -57 85 -57c41 0 74 19 89 63c7 19 9 68 9 122c0 47 -2 92 -10 116c-14 40 -45 60 -84 60zM154 689c43 0 84 -42 122 -42c19 0 36 13 57 42l45 -28c-27 -54 -62 -82 -98 -82c-44 0 -87 41 -122 41c-20 0 -37 -12 -58 -38l-44 25
c22 45 60 82 98 82z" />
    <glyph glyph-name="dotlessi" unicode="&#x131;" horiz-adv-x="197" 
d="M139 0h-81v495h81v-495z" />
    <glyph glyph-name="florin" unicode="&#x192;" horiz-adv-x="440" 
d="M107 350v69h88l11 81c12 92 47 198 165 198c26 0 53 -5 71 -13c-6 -26 -12 -47 -17 -73c-17 7 -41 10 -58 10c-54 0 -74 -53 -82 -117l-12 -86h94v-69h-103l-31 -236c-15 -127 -51 -204 -149 -204c-25 0 -60 7 -85 18c8 27 14 39 23 64c20 -8 38 -11 53 -11
c50 0 68 49 79 132l31 237h-78z" />
    <glyph glyph-name="Adieresis" unicode="&#xc4;" horiz-adv-x="497" 
d="M489 0h-86l-44 158h-222l-43 -158h-85l202 696h75zM340 233l-51 180l-39 154h-4l-39 -153l-51 -181h184zM370 748h-78v84h78v-84zM204 748h-79v84h79v-84z" />
    <glyph glyph-name="Eacute" unicode="&#xc9;" horiz-adv-x="455" 
d="M434 0h-369v696h369v-78h-286v-228h245v-75h-245v-234h286v-81zM208 727l-33 39l145 118l54 -59z" />
    <glyph glyph-name="Odieresis" unicode="&#xd6;" horiz-adv-x="497" 
d="M452 203c0 -128 -84 -209 -204 -209c-147 0 -204 104 -204 221v279c0 94 54 207 204 207c141 0 204 -106 204 -207v-291zM367 195v298c0 42 -24 129 -120 129c-95 0 -121 -80 -121 -131l1 -275c0 -81 34 -145 123 -145c64 0 117 47 117 124zM368 748h-78v84h78v-84z
M202 748h-79v84h79v-84z" />
    <glyph glyph-name="Udieresis" unicode="&#xdc;" horiz-adv-x="519" 
d="M380 696h84v-494c0 -128 -84 -208 -204 -208c-127 0 -204 87 -204 208v494h83v-497c0 -66 46 -126 121 -126c70 0 120 48 120 126v497zM385 748h-78v84h78v-84zM219 748h-79v84h79v-84z" />
    <glyph glyph-name="eacute" unicode="&#xe9;" horiz-adv-x="424" 
d="M306 124l66 -35c-27 -58 -83 -95 -149 -95c-133 0 -186 72 -186 253c0 126 33 254 175 254c111 0 173 -77 173 -201v-77h-267c0 -87 17 -156 102 -156c36 0 68 27 86 57zM305 288c0 90 -33 137 -92 137c-69 0 -90 -53 -93 -137h185zM222 553l-48 19l70 173l76 -25z" />
    <glyph glyph-name="egrave" unicode="&#xe8;" horiz-adv-x="424" 
d="M306 124l66 -35c-27 -58 -83 -95 -149 -95c-133 0 -186 72 -186 253c0 126 33 254 175 254c111 0 173 -77 173 -201v-77h-267c0 -87 17 -156 102 -156c36 0 68 27 86 57zM305 288c0 90 -33 137 -92 137c-69 0 -90 -53 -93 -137h185zM255 572l-48 -19l-98 167l76 25z" />
    <glyph glyph-name="ecircumflex" unicode="&#xea;" horiz-adv-x="424" 
d="M306 124l66 -35c-27 -58 -83 -95 -149 -95c-133 0 -186 72 -186 253c0 126 33 254 175 254c111 0 173 -77 173 -201v-77h-267c0 -87 17 -156 102 -156c36 0 68 27 86 57zM305 288c0 90 -33 137 -92 137c-69 0 -90 -53 -93 -137h185zM339 553l-125 100l-125 -101l-37 33
l141 146h50l133 -144z" />
    <glyph glyph-name="edieresis" unicode="&#xeb;" horiz-adv-x="424" 
d="M306 124l66 -35c-27 -58 -83 -95 -149 -95c-133 0 -186 72 -186 253c0 126 33 254 175 254c111 0 173 -77 173 -201v-77h-267c0 -87 17 -156 102 -156c36 0 68 27 86 57zM305 288c0 90 -33 137 -92 137c-69 0 -90 -53 -93 -137h185zM338 593h-78v84h78v-84zM172 593h-79
v84h79v-84z" />
    <glyph glyph-name="icircumflex" unicode="&#xee;" horiz-adv-x="274" 
d="M177 0h-81v495h81v-495zM262 553l-125 100l-125 -101l-37 33l141 146h50l133 -144z" />
    <glyph glyph-name="idieresis" unicode="&#xef;" horiz-adv-x="205" 
d="M143 0h-81v495h81v-495zM225 593h-78v84h78v-84zM59 593h-79v84h79v-84z" />
    <glyph glyph-name="ocircumflex" unicode="&#xf4;" horiz-adv-x="438" 
d="M222 501c78 0 120 -35 147 -82c18 -31 26 -110 26 -172c0 -36 -6 -117 -17 -150c-25 -78 -96 -104 -167 -104c-76 0 -124 36 -148 86c-17 36 -23 100 -23 165c0 62 5 124 20 160c26 60 82 97 162 97zM220 428c-38 0 -72 -19 -86 -56c-9 -25 -14 -75 -14 -137
c0 -44 1 -85 11 -111c14 -36 43 -57 85 -57c41 0 74 19 89 63c7 19 9 68 9 122c0 47 -2 92 -10 116c-14 40 -45 60 -84 60zM340 553l-125 100l-125 -101l-37 33l141 146h50l133 -144z" />
    <glyph glyph-name="odieresis" unicode="&#xf6;" horiz-adv-x="438" 
d="M222 501c78 0 120 -35 147 -82c18 -31 26 -110 26 -172c0 -36 -6 -117 -17 -150c-25 -78 -96 -104 -167 -104c-76 0 -124 36 -148 86c-17 36 -23 100 -23 165c0 62 5 124 20 160c26 60 82 97 162 97zM220 428c-38 0 -72 -19 -86 -56c-9 -25 -14 -75 -14 -137
c0 -44 1 -85 11 -111c14 -36 43 -57 85 -57c41 0 74 19 89 63c7 19 9 68 9 122c0 47 -2 92 -10 116c-14 40 -45 60 -84 60zM338 593h-78v84h78v-84zM172 593h-79v84h79v-84z" />
    <glyph glyph-name="ugrave" unicode="&#xf9;" horiz-adv-x="442" 
d="M389 0h-80v53h-3c-28 -40 -72 -59 -119 -59c-80 0 -141 57 -141 150v350h81v-323c0 -59 36 -98 91 -98c54 0 91 39 91 100v321h80v-494zM260 572l-48 -19l-98 167l76 25z" />
    <glyph glyph-name="ucircumflex" unicode="&#xfb;" horiz-adv-x="442" 
d="M389 0h-80v53h-3c-28 -40 -72 -59 -119 -59c-80 0 -141 57 -141 150v350h81v-323c0 -59 36 -98 91 -98c54 0 91 39 91 100v321h80v-494zM340 553l-125 100l-125 -101l-37 33l141 146h50l133 -144z" />
    <glyph glyph-name="udieresis" unicode="&#xfc;" horiz-adv-x="442" 
d="M389 0h-80v53h-3c-28 -40 -72 -59 -119 -59c-80 0 -141 57 -141 150v350h81v-323c0 -59 36 -98 91 -98c54 0 91 39 91 100v321h80v-494zM335 593h-78v84h78v-84zM169 593h-79v84h79v-84z" />
    <glyph glyph-name="Alpha" unicode="&#x391;" horiz-adv-x="497" 
d="M489 0h-86l-44 158h-222l-43 -158h-85l202 696h75zM340 233l-51 180l-39 154h-4l-39 -153l-51 -181h184z" />
    <glyph glyph-name="Beta" unicode="&#x392;" horiz-adv-x="506" 
d="M465 199c0 -130 -73 -199 -187 -199h-213v696h200c128 0 189 -71 189 -183c0 -64 -19 -113 -89 -148v-3c71 -19 100 -88 100 -163zM257 620h-109v-223h109c79 0 115 46 115 113c0 66 -36 110 -115 110zM267 325h-119v-244h121c88 0 114 56 114 125s-32 119 -116 119z" />
    <glyph glyph-name="Epsilon" unicode="&#x395;" horiz-adv-x="455" 
d="M434 0h-369v696h369v-78h-286v-228h245v-75h-245v-234h286v-81z" />
    <glyph glyph-name="Zeta" unicode="&#x396;" horiz-adv-x="413" 
d="M387 0h-360v77l271 543h-260v76h350v-72l-271 -545h270v-79z" />
    <glyph glyph-name="Eta" unicode="&#x397;" horiz-adv-x="532" 
d="M467 0h-84v317h-235v-317h-83v696h83v-306h235v306h84v-696z" />
    <glyph glyph-name="Iota" unicode="&#x399;" horiz-adv-x="217" 
d="M150 0h-84v696h84v-696z" />
    <glyph glyph-name="Kappa" unicode="&#x39a;" horiz-adv-x="516" 
d="M507 0h-92l-166 345c-34 -49 -67 -100 -101 -148v-197h-84v696h84v-365c1 0 2 1 3 1c78 123 160 242 239 364h91c-60 -91 -120 -180 -179 -271z" />
    <glyph glyph-name="Mu" unicode="&#x39c;" horiz-adv-x="656" 
d="M597 0h-83v486l-4 -1l-55 -134l-96 -215h-57l-97 219l-53 131l-4 -1v-485h-83v696h84l115 -263l66 -161h3l68 163l113 261h83v-696z" />
    <glyph glyph-name="Upsilondieresis" unicode="&#x3ab;" horiz-adv-x="442" 
d="M217 386h6l51 134l72 176h87l-172 -406v-290h-81v290l-173 406h88c24 -60 50 -120 74 -180c16 -40 33 -90 48 -130zM176 748h-79v84h79v-84zM342 748h-78v84h78v-84z" />
    <glyph glyph-name="alphatonos" unicode="&#x3ac;" horiz-adv-x="445" 
d="M307 448c1 0 1 1 2 1v46h81v-495h-81v51c-1 0 -1 1 -2 1c-31 -41 -72 -57 -112 -57c-128 0 -152 114 -152 234c0 127 21 272 154 272c46 0 81 -17 110 -53zM219 425c-87 0 -91 -116 -92 -189c-1 -101 21 -162 88 -162c71 0 95 67 95 163c0 101 -7 188 -91 188zM229 553
l-48 19l70 173l76 -25z" />
    <glyph glyph-name="Nu" unicode="&#x39d;" horiz-adv-x="562" 
d="M500 0h-80l-199 366l-71 139h-3v-505h-84v696h81l195 -361l74 -143l4 1v503h83v-696z" />
    <glyph glyph-name="Omicron" unicode="&#x39f;" horiz-adv-x="497" 
d="M452 203c0 -128 -84 -209 -204 -209c-147 0 -204 104 -204 221v279c0 94 54 207 204 207c141 0 204 -106 204 -207v-291zM367 195v298c0 42 -24 129 -120 129c-95 0 -121 -80 -121 -131l1 -275c0 -81 34 -145 123 -145c64 0 117 47 117 124z" />
    <glyph glyph-name="Rho" unicode="&#x3a1;" horiz-adv-x="484" 
d="M466 487c0 -107 -55 -207 -199 -207h-119v-280h-83v696h198c128 0 203 -69 203 -209zM382 488c0 80 -35 130 -121 130h-113v-260h114c93 0 120 64 120 130z" />
    <glyph glyph-name="Tau" unicode="&#x3a4;" horiz-adv-x="403" 
d="M402 620h-159v-620h-83v620h-159v76h401v-76z" />
    <glyph glyph-name="Upsilon" unicode="&#x3a5;" horiz-adv-x="442" 
d="M217 386h6l51 134l72 176h87l-172 -406v-290h-81v290l-173 406h88c24 -60 50 -120 74 -180c16 -40 33 -90 48 -130z" />
    <glyph glyph-name="Chi" unicode="&#x3a7;" horiz-adv-x="450" 
d="M446 0h-90l-131 282l-130 -282h-91l177 361l-165 335h91l118 -259l118 259h91l-166 -335z" />
    <glyph glyph-name="Alphatonos" unicode="&#x386;" horiz-adv-x="497" 
d="M489 0h-86l-44 158h-222l-43 -158h-85l202 696h75zM340 233l-51 180l-39 154h-4l-39 -153l-51 -181h184zM27 533l-48 19l70 173l76 -25z" />
    <glyph glyph-name="Epsilontonos" unicode="&#x388;" horiz-adv-x="455" 
d="M434 0h-369v696h369v-78h-286v-228h245v-75h-245v-234h286v-81zM-60 533l-48 19l70 173l76 -25z" />
    <glyph glyph-name="Etatonos" unicode="&#x389;" horiz-adv-x="532" 
d="M467 0h-84v317h-235v-317h-83v696h83v-306h235v306h84v-696zM-63 533l-48 19l70 173l76 -25z" />
    <glyph glyph-name="Iotatonos" unicode="&#x38a;" horiz-adv-x="217" 
d="M150 0h-84v696h84v-696zM-65 533l-48 19l70 173l76 -25z" />
    <glyph glyph-name="Omicrontonos" unicode="&#x38c;" horiz-adv-x="497" 
d="M452 203c0 -128 -84 -209 -204 -209c-147 0 -204 104 -204 221v279c0 94 54 207 204 207c141 0 204 -106 204 -207v-291zM367 195v298c0 42 -24 129 -120 129c-95 0 -121 -80 -121 -131l1 -275c0 -81 34 -145 123 -145c64 0 117 47 117 124zM-42 533l-48 19l70 173
l76 -25z" />
    <glyph glyph-name="Upsilontonos" unicode="&#x38e;" horiz-adv-x="442" 
d="M217 386h6l51 134l72 176h87l-172 -406v-290h-81v290l-173 406h88c24 -60 50 -120 74 -180c16 -40 33 -90 48 -130zM-99 533l-48 19l70 173l76 -25z" />
    <glyph glyph-name="epsilontonos" unicode="&#x3ad;" horiz-adv-x="380" 
d="M302 124l68 -39c-25 -55 -79 -90 -155 -90c-108 0 -171 53 -171 150c0 39 19 92 73 112v1c-56 19 -69 63 -69 103c0 76 56 140 163 140c81 0 133 -36 158 -91c-22 -13 -44 -27 -66 -41c-14 31 -48 54 -89 54c-56 0 -86 -26 -86 -65c0 -40 33 -63 80 -63h64v-70h-69
c-39 0 -79 -28 -79 -79c0 -43 33 -75 91 -75c41 0 73 23 87 53zM211 553l-48 19l70 173l76 -25z" />
    <glyph glyph-name="etatonos" unicode="&#x3ae;" horiz-adv-x="445" 
d="M393 0h-81v323c0 60 -32 96 -90 96c-55 0 -91 -38 -91 -98v-321h-81v495h81v-55h3c28 39 71 60 119 60c80 0 140 -57 140 -150v-350zM204 553l-48 19l70 173l76 -25z" />
    <glyph glyph-name="iotatonos" unicode="&#x3af;" horiz-adv-x="217" 
d="M178 70l-2 -71c-85 -7 -118 18 -118 105v390h81v-379c0 -39 9 -45 39 -45zM115 553l-48 19l70 173l76 -25z" />
    <glyph glyph-name="omicrontonos" unicode="&#x3cc;" horiz-adv-x="438" 
d="M222 501c78 0 120 -35 147 -82c18 -31 26 -110 26 -172c0 -36 -6 -117 -17 -150c-25 -78 -96 -104 -167 -104c-76 0 -124 36 -148 86c-17 36 -23 100 -23 165c0 62 5 124 20 160c26 60 82 97 162 97zM220 428c-38 0 -72 -19 -86 -56c-9 -25 -14 -75 -14 -137
c0 -44 1 -85 11 -111c14 -36 43 -57 85 -57c41 0 74 19 89 63c7 19 9 68 9 122c0 47 -2 92 -10 116c-14 40 -45 60 -84 60zM224 553l-48 19l70 173l76 -25z" />
    <glyph glyph-name="Omegatonos" unicode="&#x38f;" horiz-adv-x="497" 
d="M291 93c49 17 77 64 77 127v270c0 77 -46 131 -120 131c-78 0 -121 -58 -121 -131v-270c0 -58 28 -108 79 -127l-1 -93h-172v78h71c-45 29 -60 91 -60 151v262c0 122 81 211 204 211c115 0 204 -83 204 -211v-262c0 -63 -16 -118 -60 -151h71v-78h-172v93zM-50 533
l-48 19l70 173l76 -25z" />
    <glyph glyph-name="upsilontonos" unicode="&#x3cd;" horiz-adv-x="446" 
d="M396 495v-254c0 -89 -5 -110 -10 -131c-21 -85 -91 -116 -167 -116c-85 0 -137 43 -158 100c-7 22 -10 54 -11 85v316h80v-284c0 -22 0 -45 3 -56c5 -53 40 -86 91 -86c47 0 83 34 88 85c4 15 5 67 5 103v238h79zM230 553l-48 19l70 173l76 -25z" />
    <glyph glyph-name="exclam" unicode="!" horiz-adv-x="235" 
d="M157 696l-8 -519h-63l-8 519h79zM161 0h-85v89h85v-89z" />
    <glyph glyph-name="guilsinglleft" unicode="&#x2039;" horiz-adv-x="289" 
d="M239 46h-78l-117 186l117 186h78l-115 -186z" />
    <glyph glyph-name="guilsinglright" unicode="&#x203a;" horiz-adv-x="279" 
d="M123 46h-78l114 186l-114 186h78l117 -186z" />
    <glyph glyph-name="exclamdown" unicode="&#xa1;" horiz-adv-x="235" 
d="M149 519l8 -519h-79l8 519h63zM76 696h85v-89h-85v89z" />
    <glyph glyph-name="quotesinglbase" unicode="&#x201a;" horiz-adv-x="223" 
d="M155 -2l-51 -114h-47l28 112h-25v104h95v-102z" />
    <glyph glyph-name="quotedblbase" unicode="&#x201e;" horiz-adv-x="371" 
d="M155 -2l-51 -114h-47l28 112h-25v104h95v-102zM310 -2l-51 -114h-47l28 112h-25v104h95v-102z" />
    <glyph glyph-name="questiondown" unicode="&#xbf;" horiz-adv-x="434" 
d="M56 -33c1 65 18 96 51 143c29 42 81 90 81 142v60h83v-47c0 -48 -10 -83 -37 -118c-50 -67 -88 -108 -91 -156c0 -55 11 -121 95 -121c62 0 98 56 100 110l83 -12c-16 -121 -95 -177 -188 -177c-115 0 -177 70 -177 176zM189 492h84v-89h-84v89z" />
    <glyph glyph-name="daggerdbl" unicode="&#x2021;" horiz-adv-x="412" 
d="M169 202v192h-152v68h152v234h75v-234h151v-68h-151v-192h151v-68h-151v-331h-75v331h-152v68h152z" />
    <glyph glyph-name="OE" unicode="&#x152;" horiz-adv-x="714" 
d="M668 0h-365c-17 -4 -36 -6 -55 -6c-147 0 -204 102 -204 219v283c0 94 54 205 204 205c18 0 35 -2 51 -5h369v-78h-286v-228h245v-75h-245v-234h286v-81zM248 72c18 0 35 4 51 11v529c-14 6 -31 10 -51 10c-91 0 -121 -73 -121 -124v-284c0 -81 32 -142 121 -142z" />
    <glyph glyph-name="brokenbar" unicode="&#xa6;" horiz-adv-x="207" 
d="M136 297h-64v419h64v-419zM72 256h64v-418h-64v418z" />
    <glyph glyph-name="emdash" unicode="&#x2014;" horiz-adv-x="710" 
d="M690 230h-670v76h670v-76z" />
    <glyph glyph-name="Thorn" unicode="&#xde;" horiz-adv-x="484" 
d="M464 357c0 -107 -55 -207 -199 -207h-119l2 -150h-83v726h83l-2 -160h115c128 0 203 -69 203 -209zM380 358c0 80 -35 130 -121 130h-113v-260h114c93 0 120 64 120 130z" />
    <glyph glyph-name="thorn" unicode="&#xfe;" horiz-adv-x="432" 
d="M127 448c29 37 67 53 113 53c130 0 149 -118 149 -252c0 -124 -23 -254 -157 -254c-40 0 -76 16 -105 49h-2v-244h-81v901h81v-252c1 0 1 -1 2 -1zM214 75c82 0 93 80 93 172c0 95 -10 177 -92 177c-97 0 -91 -111 -91 -189c0 -71 7 -160 90 -160z" />
    <glyph glyph-name="Circumflex" unicode="&#xf6c0;" horiz-adv-x="497" 
d="M378 733l-130 80l-130 -80l-31 33l140 123h50l133 -121z" />
    <glyph glyph-name="commaaccent" unicode="&#xf6c3;" horiz-adv-x="506" 
d="M290 -163l-51 -91h-47l31 89h-28v103h95v-101z" />
    <glyph glyph-name="Acute" unicode="&#xf6c9;" horiz-adv-x="451" 
d="M208 727l-33 39l145 118l54 -59z" />
    <glyph glyph-name="Caron" unicode="&#xf6ca;" horiz-adv-x="497" 
d="M246 811l130 80l32 -34l-133 -122h-50l-140 124l31 33z" />
    <glyph glyph-name="DieresisAcute" unicode="&#xf6cc;" horiz-adv-x="391" 
d="M360 777h-78v85h78v-85zM106 777h-78v85h78v-85zM157 751l-42 31l114 154l67 -44z" />
    <glyph glyph-name="DieresisGrave" unicode="&#xf6cd;" horiz-adv-x="391" 
d="M273 776l-42 -28l-131 140l68 42zM105 781h-77v84h77v-84zM358 781h-78v84h78v-84z" />
    <glyph glyph-name="Grave" unicode="&#xf6ce;" horiz-adv-x="598" 
d="M351 780l-37 -42l-170 103l59 61z" />
    <glyph glyph-name="Hungarumlaut" unicode="&#xf6cf;" horiz-adv-x="598" 
d="M159 728l-33 39l145 117l54 -59zM331 728l-33 39l145 117l54 -59z" />
    <glyph glyph-name="Macron" unicode="&#xf6d0;" horiz-adv-x="497" 
d="M368 763h-248v75h248v-75z" />
    <glyph glyph-name="cyrBreve" unicode="&#xf6d1;" horiz-adv-x="497" 
d="M107 876h69c2 -27 28 -63 69 -63c45 0 70 36 70 63h67c-5 -52 -36 -126 -137 -126c-103 0 -137 74 -138 126z" />
    <glyph glyph-name="cyrbreve" unicode="&#xf6d4;" horiz-adv-x="426" 
d="M91 699h69c2 -27 28 -63 69 -63c45 0 70 36 70 63h67c-5 -52 -36 -126 -137 -126c-103 0 -137 74 -138 126z" />
    <glyph glyph-name="dotaccent" unicode="&#x2d9;" horiz-adv-x="426" 
d="M267 593h-78v84h78v-84z" />
    <glyph glyph-name="ring" unicode="&#x2da;" horiz-adv-x="426" 
d="M230 551c-50 0 -89 38 -89 84c0 47 39 86 89 86c46 0 85 -39 85 -86c0 -46 -39 -84 -85 -84zM230 680c-27 0 -47 -20 -47 -45c0 -24 20 -43 47 -43c24 0 44 19 44 43c0 25 -20 45 -44 45z" />
    <glyph glyph-name="ogonek" unicode="&#x2db;" horiz-adv-x="281" 
d="M59 -92c0 27 11 57 39 96h58l1 -2c-22 -31 -33 -56 -33 -79c0 -28 18 -44 48 -44c16 0 33 5 57 16l20 -50c-26 -14 -60 -25 -93 -25c-57 0 -97 40 -97 88z" />
    <glyph glyph-name="hungarumlaut" unicode="&#x2dd;" horiz-adv-x="426" 
d="M178 553l-48 19l70 173l76 -25zM307 553l-48 19l70 173l76 -25z" />
    <glyph glyph-name="macron" unicode="&#xaf;" horiz-adv-x="426" 
d="M348 588h-248v75h248v-75z" />
    <glyph glyph-name="Scaron" unicode="&#x160;" horiz-adv-x="478" 
d="M444 190c0 -120 -77 -197 -207 -197c-107 0 -180 48 -215 123l74 43c27 -47 71 -85 142 -85c86 0 120 49 120 116c0 74 -47 101 -123 125c-139 42 -192 90 -192 196c0 112 78 191 201 191c102 0 164 -41 194 -97l-71 -49c-26 47 -65 66 -127 66c-77 0 -112 -49 -112 -111
c0 -73 68 -95 155 -123c120 -38 161 -94 161 -198zM226 811l130 80l32 -34l-133 -122h-50l-140 124l31 33z" />
    <glyph glyph-name="Zcaron" unicode="&#x17d;" horiz-adv-x="413" 
d="M387 0h-360v77l271 543h-260v76h350v-72l-271 -545h270v-79zM212 811l130 80l32 -34l-133 -122h-50l-140 124l31 33z" />
    <glyph glyph-name="scaron" unicode="&#x161;" horiz-adv-x="405" 
d="M27 98l66 38c21 -43 56 -68 109 -68c55 0 89 22 89 74c0 50 -39 61 -93 76c-96 25 -158 57 -158 142c0 87 62 141 161 141c89 0 136 -36 159 -95l-63 -39c-19 39 -52 60 -97 60c-59 0 -80 -32 -80 -67c0 -45 53 -55 112 -72c93 -22 139 -58 139 -148
c0 -89 -64 -147 -171 -147c-85 0 -142 37 -173 105zM192 632l125 100l37 -35l-133 -144h-50l-141 146l37 33z" />
    <glyph glyph-name="zcaron" unicode="&#x17e;" horiz-adv-x="370" 
d="M342 0h-313v71l222 352h-208v71h299v-69l-221 -349h221v-76zM189 632l125 100l37 -35l-133 -144h-50l-141 146l37 33z" />
    <glyph glyph-name="Ydieresis" unicode="&#x178;" horiz-adv-x="442" 
d="M217 386h6l51 134l72 176h87l-172 -406v-290h-81v290l-173 406h88c24 -60 50 -120 74 -180c16 -40 33 -90 48 -130zM177 748h-79v84h79v-84zM343 748h-78v84h78v-84z" />
    <glyph glyph-name="Agrave" unicode="&#xc0;" horiz-adv-x="497" 
d="M489 0h-86l-44 158h-222l-43 -158h-85l202 696h75zM340 233l-51 180l-39 154h-4l-39 -153l-51 -181h184zM290 780l-37 -42l-170 103l59 61z" />
    <glyph glyph-name="Aacute" unicode="&#xc1;" horiz-adv-x="497" 
d="M489 0h-86l-44 158h-222l-43 -158h-85l202 696h75zM340 233l-51 180l-39 154h-4l-39 -153l-51 -181h184zM258 727l-33 39l145 118l54 -59z" />
    <glyph glyph-name="Acircumflex" unicode="&#xc2;" horiz-adv-x="497" 
d="M489 0h-86l-44 158h-222l-43 -158h-85l202 696h75zM340 233l-51 180l-39 154h-4l-39 -153l-51 -181h184zM378 733l-130 80l-130 -80l-31 33l140 123h50l133 -121z" />
    <glyph glyph-name="Atilde" unicode="&#xc3;" horiz-adv-x="497" 
d="M489 0h-86l-44 158h-222l-43 -158h-85l202 696h75zM340 233l-51 180l-39 154h-4l-39 -153l-51 -181h184zM181 859c43 0 84 -42 122 -42c19 0 36 13 57 42l45 -28c-27 -54 -62 -82 -98 -82c-44 0 -87 41 -122 41c-20 0 -37 -12 -58 -38l-44 25c22 45 60 82 98 82z" />
    <glyph glyph-name="Aring" unicode="&#xc5;" horiz-adv-x="497" 
d="M489 0h-86l-44 158h-222l-43 -158h-85l202 696h75zM340 233l-51 180l-39 154h-4l-39 -153l-51 -181h184zM249 719c-50 0 -89 38 -89 84c0 47 39 86 89 86c46 0 85 -39 85 -86c0 -46 -39 -84 -85 -84zM249 848c-27 0 -47 -20 -47 -45c0 -24 20 -43 47 -43
c24 0 44 19 44 43c0 25 -20 45 -44 45z" />
    <glyph glyph-name="Egrave" unicode="&#xc8;" horiz-adv-x="455" 
d="M434 0h-369v696h369v-78h-286v-228h245v-75h-245v-234h286v-81zM297 780l-37 -42l-170 103l59 61z" />
    <glyph glyph-name="Ecircumflex" unicode="&#xca;" horiz-adv-x="455" 
d="M434 0h-369v696h369v-78h-286v-228h245v-75h-245v-234h286v-81zM378 733l-130 80l-130 -80l-31 33l140 123h50l133 -121z" />
    <glyph glyph-name="Edieresis" unicode="&#xcb;" horiz-adv-x="455" 
d="M434 0h-369v696h369v-78h-286v-228h245v-75h-245v-234h286v-81zM372 763h-78v84h78v-84zM206 763h-79v84h79v-84z" />
    <glyph glyph-name="Igrave" unicode="&#xcc;" horiz-adv-x="217" 
d="M150 0h-84v696h84v-696zM153 780l-37 -42l-170 103l59 61z" />
    <glyph glyph-name="Iacute" unicode="&#xcd;" horiz-adv-x="217" 
d="M150 0h-84v696h84v-696zM111 727l-33 39l145 118l54 -59z" />
    <glyph glyph-name="Icircumflex" unicode="&#xce;" horiz-adv-x="217" 
d="M150 0h-84v696h84v-696zM234 733l-130 80l-130 -80l-31 33l140 123h50l133 -121z" />
    <glyph glyph-name="Idieresis" unicode="&#xcf;" horiz-adv-x="217" 
d="M150 0h-84v696h84v-696zM227 763h-78v84h78v-84zM61 763h-79v84h79v-84z" />
    <glyph glyph-name="Eth" unicode="&#xd0;" horiz-adv-x="521" 
d="M6 328v63h58v305h195c93 0 162 -32 194 -111c20 -53 18 -130 18 -231c0 -105 3 -180 -17 -234c-36 -92 -116 -120 -208 -120h-182v328h-58zM387 227v240c0 108 -49 152 -136 152h-103v-228h121v-63h-121v-250h103c99 0 136 56 136 149z" />
    <glyph glyph-name="Ograve" unicode="&#xd2;" horiz-adv-x="497" 
d="M452 203c0 -128 -84 -209 -204 -209c-147 0 -204 104 -204 221v279c0 94 54 207 204 207c141 0 204 -106 204 -207v-291zM367 195v298c0 42 -24 129 -120 129c-95 0 -121 -80 -121 -131l1 -275c0 -81 34 -145 123 -145c64 0 117 47 117 124zM349 780l-37 -42l-170 103
l59 61z" />
    <glyph glyph-name="Oacute" unicode="&#xd3;" horiz-adv-x="497" 
d="M452 203c0 -128 -84 -209 -204 -209c-147 0 -204 104 -204 221v279c0 94 54 207 204 207c141 0 204 -106 204 -207v-291zM367 195v298c0 42 -24 129 -120 129c-95 0 -121 -80 -121 -131l1 -275c0 -81 34 -145 123 -145c64 0 117 47 117 124zM208 727l-33 39l145 118
l54 -59z" />
    <glyph glyph-name="Ocircumflex" unicode="&#xd4;" horiz-adv-x="497" 
d="M452 203c0 -128 -84 -209 -204 -209c-147 0 -204 104 -204 221v279c0 94 54 207 204 207c141 0 204 -106 204 -207v-291zM367 195v298c0 42 -24 129 -120 129c-95 0 -121 -80 -121 -131l1 -275c0 -81 34 -145 123 -145c64 0 117 47 117 124zM378 733l-130 80l-130 -80
l-31 33l140 123h50l133 -121z" />
    <glyph glyph-name="Otilde" unicode="&#xd5;" horiz-adv-x="497" 
d="M452 203c0 -128 -84 -209 -204 -209c-147 0 -204 104 -204 221v279c0 94 54 207 204 207c141 0 204 -106 204 -207v-291zM367 195v298c0 42 -24 129 -120 129c-95 0 -121 -80 -121 -131l1 -275c0 -81 34 -145 123 -145c64 0 117 47 117 124zM183 859c43 0 84 -42 122 -42
c19 0 36 13 57 42l45 -28c-27 -54 -62 -82 -98 -82c-44 0 -87 41 -122 41c-20 0 -37 -12 -58 -38l-44 25c22 45 60 82 98 82z" />
    <glyph glyph-name="Ugrave" unicode="&#xd9;" horiz-adv-x="519" 
d="M380 696h84v-494c0 -128 -84 -208 -204 -208c-127 0 -204 87 -204 208v494h83v-497c0 -66 46 -126 121 -126c70 0 120 48 120 126v497zM351 780l-37 -42l-170 103l59 61z" />
    <glyph glyph-name="Uacute" unicode="&#xda;" horiz-adv-x="519" 
d="M380 696h84v-494c0 -128 -84 -208 -204 -208c-127 0 -204 87 -204 208v494h83v-497c0 -66 46 -126 121 -126c70 0 120 48 120 126v497zM208 727l-33 39l145 118l54 -59z" />
    <glyph glyph-name="Ucircumflex" unicode="&#xdb;" horiz-adv-x="519" 
d="M380 696h84v-494c0 -128 -84 -208 -204 -208c-127 0 -204 87 -204 208v494h83v-497c0 -66 46 -126 121 -126c70 0 120 48 120 126v497zM384 733l-130 80l-130 -80l-31 33l140 123h50l133 -121z" />
    <glyph glyph-name="Yacute" unicode="&#xdd;" horiz-adv-x="442" 
d="M217 386h6l51 134l72 176h87l-172 -406v-290h-81v290l-173 406h88c24 -60 50 -120 74 -180c16 -40 33 -90 48 -130zM176 727l-33 39l145 118l54 -59z" />
    <glyph glyph-name="aacute" unicode="&#xe1;" horiz-adv-x="426" 
d="M309 36l-4 2c-23 -29 -65 -44 -117 -44c-97 0 -142 67 -142 145c0 88 52 153 172 153h91v61c0 45 -31 72 -89 72c-38 0 -76 -12 -91 -47c-21 12 -42 25 -63 38c26 54 86 85 154 85c94 0 171 -35 171 -149v-352h-82v36zM309 155v68h-97c-52 0 -89 -24 -89 -79
c0 -44 29 -74 89 -74c56 0 97 23 97 85zM256 553l-48 19l70 173l76 -25z" />
    <glyph glyph-name="atilde" unicode="&#xe3;" horiz-adv-x="426" 
d="M309 36l-4 2c-23 -29 -65 -44 -117 -44c-97 0 -142 67 -142 145c0 88 52 153 172 153h91v61c0 45 -31 72 -89 72c-38 0 -76 -12 -91 -47c-21 12 -42 25 -63 38c26 54 86 85 154 85c94 0 171 -35 171 -149v-352h-82v36zM309 155v68h-97c-52 0 -89 -24 -89 -79
c0 -44 29 -74 89 -74c56 0 97 23 97 85zM162 689c43 0 84 -42 122 -42c19 0 36 13 57 42l45 -28c-27 -54 -62 -82 -98 -82c-44 0 -87 41 -122 41c-20 0 -37 -12 -58 -38l-44 25c22 45 60 82 98 82z" />
    <glyph glyph-name="aring" unicode="&#xe5;" horiz-adv-x="426" 
d="M309 36l-4 2c-23 -29 -65 -44 -117 -44c-97 0 -142 67 -142 145c0 88 52 153 172 153h91v61c0 45 -31 72 -89 72c-38 0 -76 -12 -91 -47c-21 12 -42 25 -63 38c26 54 86 85 154 85c94 0 171 -35 171 -149v-352h-82v36zM309 155v68h-97c-52 0 -89 -24 -89 -79
c0 -44 29 -74 89 -74c56 0 97 23 97 85zM220 551c-50 0 -89 38 -89 84c0 47 39 86 89 86c46 0 85 -39 85 -86c0 -46 -39 -84 -85 -84zM220 680c-27 0 -47 -20 -47 -45c0 -24 20 -43 47 -43c24 0 44 19 44 43c0 25 -20 45 -44 45z" />
    <glyph glyph-name="igrave" unicode="&#xec;" horiz-adv-x="200" 
d="M139 0h-81v495h81v-495zM125 572l-48 -19l-98 167l76 25z" />
    <glyph glyph-name="iacute" unicode="&#xed;" horiz-adv-x="200" 
d="M139 0h-81v495h81v-495zM107 553l-48 19l70 173l76 -25z" />
    <glyph glyph-name="ntilde" unicode="&#xf1;" horiz-adv-x="436" 
d="M389 0h-81v323c0 60 -32 96 -91 96c-54 0 -91 -38 -91 -98v-321h-80v495h81v-55h3c28 39 71 60 119 60c79 0 140 -57 140 -150v-350zM145 689c43 0 84 -42 122 -42c19 0 36 13 57 42l45 -28c-27 -54 -62 -82 -98 -82c-44 0 -87 41 -122 41c-20 0 -37 -12 -58 -38l-44 25
c22 45 60 82 98 82z" />
    <glyph glyph-name="ograve" unicode="&#xf2;" horiz-adv-x="438" 
d="M222 501c78 0 120 -35 147 -82c18 -31 26 -110 26 -172c0 -36 -6 -117 -17 -150c-25 -78 -96 -104 -167 -104c-76 0 -124 36 -148 86c-17 36 -23 100 -23 165c0 62 5 124 20 160c26 60 82 97 162 97zM220 428c-38 0 -72 -19 -86 -56c-9 -25 -14 -75 -14 -137
c0 -44 1 -85 11 -111c14 -36 43 -57 85 -57c41 0 74 19 89 63c7 19 9 68 9 122c0 47 -2 92 -10 116c-14 40 -45 60 -84 60zM249 572l-48 -19l-98 167l76 25z" />
    <glyph glyph-name="oacute" unicode="&#xf3;" horiz-adv-x="438" 
d="M222 501c78 0 120 -35 147 -82c18 -31 26 -110 26 -172c0 -36 -6 -117 -17 -150c-25 -78 -96 -104 -167 -104c-76 0 -124 36 -148 86c-17 36 -23 100 -23 165c0 62 5 124 20 160c26 60 82 97 162 97zM220 428c-38 0 -72 -19 -86 -56c-9 -25 -14 -75 -14 -137
c0 -44 1 -85 11 -111c14 -36 43 -57 85 -57c41 0 74 19 89 63c7 19 9 68 9 122c0 47 -2 92 -10 116c-14 40 -45 60 -84 60zM220 553l-48 19l70 173l76 -25z" />
    <glyph glyph-name="uacute" unicode="&#xfa;" horiz-adv-x="442" 
d="M389 0h-80v53h-3c-28 -40 -72 -59 -119 -59c-80 0 -141 57 -141 150v350h81v-323c0 -59 36 -98 91 -98c54 0 91 39 91 100v321h80v-494zM225 553l-48 19l70 173l76 -25z" />
    <glyph glyph-name="yacute" unicode="&#xfd;" horiz-adv-x="384" 
d="M384 495l-178 -594c-21 -70 -67 -103 -129 -103h-26v70h24c32 0 53 24 64 71l21 73l-159 483h86l61 -198l47 -167h3l44 167l58 198h84zM215 553l-48 19l70 173l76 -25z" />
    <glyph glyph-name="ydieresis" unicode="&#xff;" horiz-adv-x="384" 
d="M384 495l-178 -594c-21 -70 -67 -103 -129 -103h-26v70h24c32 0 53 24 64 71l21 73l-159 483h86l61 -198l47 -167h3l44 167l58 198h84zM318 593h-78v84h78v-84zM152 593h-79v84h79v-84z" />
    <glyph glyph-name="Amacron" unicode="&#x100;" horiz-adv-x="497" 
d="M489 0h-86l-44 158h-222l-43 -158h-85l202 696h75zM340 233l-51 180l-39 154h-4l-39 -153l-51 -181h184zM371 763h-248v75h248v-75z" />
    <glyph glyph-name="amacron" unicode="&#x101;" horiz-adv-x="426" 
d="M309 36l-4 2c-23 -29 -65 -44 -117 -44c-97 0 -142 67 -142 145c0 88 52 153 172 153h91v61c0 45 -31 72 -89 72c-38 0 -76 -12 -91 -47c-21 12 -42 25 -63 38c26 54 86 85 154 85c94 0 171 -35 171 -149v-352h-82v36zM309 155v68h-97c-52 0 -89 -24 -89 -79
c0 -44 29 -74 89 -74c56 0 97 23 97 85zM348 588h-248v75h248v-75z" />
    <glyph glyph-name="Abreve" unicode="&#x102;" horiz-adv-x="497" 
d="M489 0h-86l-44 158h-222l-43 -158h-85l202 696h75zM340 233l-51 180l-39 154h-4l-39 -153l-51 -181h184zM110 876h69c2 -27 28 -63 69 -63c45 0 70 36 70 63h67c-5 -52 -36 -126 -137 -126c-103 0 -137 74 -138 126z" />
    <glyph glyph-name="abreve" unicode="&#x103;" horiz-adv-x="426" 
d="M309 36l-4 2c-23 -29 -65 -44 -117 -44c-97 0 -142 67 -142 145c0 88 52 153 172 153h91v61c0 45 -31 72 -89 72c-38 0 -76 -12 -91 -47c-21 12 -42 25 -63 38c26 54 86 85 154 85c94 0 171 -35 171 -149v-352h-82v36zM309 155v68h-97c-52 0 -89 -24 -89 -79
c0 -44 29 -74 89 -74c56 0 97 23 97 85zM76 699h69c2 -27 28 -63 69 -63c45 0 70 36 70 63h67c-5 -52 -36 -126 -137 -126c-103 0 -137 74 -138 126z" />
    <glyph glyph-name="Aogonek" unicode="&#x104;" horiz-adv-x="497" 
d="M366 -92c0 27 10 56 37 93l-44 157h-222l-43 -158h-85l202 696h75l203 -696h-27c-21 -30 -31 -54 -31 -77c0 -28 18 -44 48 -44c16 0 33 5 57 16l20 -50c-26 -14 -60 -25 -93 -25c-57 0 -97 40 -97 88zM340 233l-51 180l-39 154h-4l-39 -153l-51 -181h184z" />
    <glyph glyph-name="aogonek" unicode="&#x105;" horiz-adv-x="426" 
d="M262 -91c0 27 11 57 39 96h8v31l-4 2c-23 -29 -65 -44 -117 -44c-97 0 -142 67 -142 145c0 88 52 153 172 153h91v61c0 45 -31 72 -89 72c-38 0 -76 -12 -91 -47c-21 12 -42 25 -63 38c26 54 86 85 154 85c94 0 171 -35 171 -149v-352h-33c-21 -29 -31 -53 -31 -76
c0 -28 18 -44 48 -44c16 0 33 5 57 16l20 -50c-26 -14 -60 -25 -93 -25c-57 0 -97 40 -97 88zM309 155v68h-97c-52 0 -89 -24 -89 -79c0 -44 29 -74 89 -74c56 0 97 23 97 85z" />
    <glyph glyph-name="Cacute" unicode="&#x106;" horiz-adv-x="469" 
d="M367 158l79 -29c-24 -87 -98 -135 -193 -135c-126 0 -203 86 -203 208v292c0 118 74 207 203 207c94 0 168 -49 193 -133l-79 -31c-13 50 -52 84 -114 84c-78 0 -120 -60 -120 -125v-296c0 -66 43 -127 120 -127c60 0 101 33 114 85zM212 727l-33 39l145 118l54 -59z" />
    <glyph glyph-name="cacute" unicode="&#x107;" horiz-adv-x="385" 
d="M301 121c22 -13 45 -24 68 -37c-26 -55 -81 -90 -152 -90c-148 0 -186 106 -186 264c0 148 58 243 186 243c72 0 125 -36 151 -91l-66 -41c-15 34 -45 55 -84 55c-89 0 -106 -73 -106 -168c0 -96 18 -186 105 -186c40 0 70 24 84 51zM213 553l-48 19l70 173l76 -25z" />
    <glyph glyph-name="Ccircumflex" unicode="&#x108;" horiz-adv-x="469" 
d="M367 158l79 -29c-24 -87 -98 -135 -193 -135c-126 0 -203 86 -203 208v292c0 118 74 207 203 207c94 0 168 -49 193 -133l-79 -31c-13 50 -52 84 -114 84c-78 0 -120 -60 -120 -125v-296c0 -66 43 -127 120 -127c60 0 101 33 114 85zM380 733l-130 80l-130 -80l-31 33
l140 123h50l133 -121z" />
    <glyph glyph-name="ccircumflex" unicode="&#x109;" horiz-adv-x="385" 
d="M301 121c22 -13 45 -24 68 -37c-26 -55 -81 -90 -152 -90c-148 0 -186 106 -186 264c0 148 58 243 186 243c72 0 125 -36 151 -91l-66 -41c-15 34 -45 55 -84 55c-89 0 -106 -73 -106 -168c0 -96 18 -186 105 -186c40 0 70 24 84 51zM340 553l-125 100l-125 -101l-37 33
l141 146h50l133 -144z" />
    <glyph glyph-name="Cdotaccent" unicode="&#x10a;" horiz-adv-x="469" 
d="M367 158l79 -29c-24 -87 -98 -135 -193 -135c-126 0 -203 86 -203 208v292c0 118 74 207 203 207c94 0 168 -49 193 -133l-79 -31c-13 50 -52 84 -114 84c-78 0 -120 -60 -120 -125v-296c0 -66 43 -127 120 -127c60 0 101 33 114 85zM294 763h-78v84h78v-84z" />
    <glyph glyph-name="cdotaccent" unicode="&#x10b;" horiz-adv-x="385" 
d="M301 121c22 -13 45 -24 68 -37c-26 -55 -81 -90 -152 -90c-148 0 -186 106 -186 264c0 148 58 243 186 243c72 0 125 -36 151 -91l-66 -41c-15 34 -45 55 -84 55c-89 0 -106 -73 -106 -168c0 -96 18 -186 105 -186c40 0 70 24 84 51zM251 595h-78v84h78v-84z" />
    <glyph glyph-name="Ccaron" unicode="&#x10c;" horiz-adv-x="469" 
d="M367 158l79 -29c-24 -87 -98 -135 -193 -135c-126 0 -203 86 -203 208v292c0 118 74 207 203 207c94 0 168 -49 193 -133l-79 -31c-13 50 -52 84 -114 84c-78 0 -120 -60 -120 -125v-296c0 -66 43 -127 120 -127c60 0 101 33 114 85zM256 811l130 80l32 -34l-133 -122
h-50l-140 124l31 33z" />
    <glyph glyph-name="ccaron" unicode="&#x10d;" horiz-adv-x="385" 
d="M301 121c22 -13 45 -24 68 -37c-26 -55 -81 -90 -152 -90c-148 0 -186 106 -186 264c0 148 58 243 186 243c72 0 125 -36 151 -91l-66 -41c-15 34 -45 55 -84 55c-89 0 -106 -73 -106 -168c0 -96 18 -186 105 -186c40 0 70 24 84 51zM216 634l125 100l37 -35l-133 -144
h-50l-141 146l37 33z" />
    <glyph glyph-name="Dcaron" unicode="&#x10e;" horiz-adv-x="521" 
d="M64 696h195c93 0 162 -32 194 -111c20 -53 18 -130 18 -231c0 -105 3 -180 -17 -234c-36 -92 -116 -120 -208 -120h-182v696zM387 227v240c0 108 -49 152 -136 152h-103v-541h103c99 0 136 56 136 149zM243 811l130 80l32 -34l-133 -122h-50l-140 124l31 33z" />
    <glyph glyph-name="dcaron" unicode="&#x10f;" horiz-adv-x="518" 
d="M531 619l-51 -91h-47l31 89h-28v103h95v-101zM301 47c-29 -37 -67 -53 -113 -53c-130 0 -149 118 -149 252c0 124 21 254 157 254c40 0 76 -14 105 -47h2v273h81v-726h-81v46c-1 0 -1 1 -2 1zM214 420c-82 0 -93 -80 -93 -172c0 -95 12 -177 92 -177c97 0 91 123 91 189
c0 82 -10 160 -90 160z" />
    <glyph glyph-name="Dcroat" unicode="&#x110;" horiz-adv-x="521" 
d="M12 328v63h52v305h195c93 0 162 -32 194 -111c20 -53 18 -130 18 -231c0 -105 3 -180 -17 -234c-36 -92 -116 -120 -208 -120h-182v328h-52zM387 227v240c0 108 -49 152 -136 152h-103v-228h77v-63h-77v-250h103c99 0 136 56 136 149z" />
    <glyph glyph-name="dcroat" unicode="&#x111;" horiz-adv-x="433" 
d="M190 567v57h113v102h81v-102h48v-57h-48v-567h-81v46c-1 0 -1 1 -2 1c-29 -37 -67 -53 -113 -53c-130 0 -149 118 -149 252c0 124 21 254 157 254c40 0 76 -14 105 -47h2v114h-113zM214 420c-82 0 -93 -80 -93 -172c0 -95 12 -177 92 -177c97 0 91 123 91 189
c0 82 -10 160 -90 160z" />
    <glyph glyph-name="Emacron" unicode="&#x112;" horiz-adv-x="455" 
d="M434 0h-369v696h369v-78h-286v-228h245v-75h-245v-234h286v-81zM368 763h-248v75h248v-75z" />
    <glyph glyph-name="emacron" unicode="&#x113;" horiz-adv-x="424" 
d="M306 124l66 -35c-27 -58 -83 -95 -149 -95c-133 0 -186 72 -186 253c0 126 33 254 175 254c111 0 173 -77 173 -201v-77h-267c0 -87 17 -156 102 -156c36 0 68 27 86 57zM305 288c0 90 -33 137 -92 137c-69 0 -90 -53 -93 -137h185zM348 588h-248v75h248v-75z" />
    <glyph glyph-name="Ebreve" unicode="&#x114;" horiz-adv-x="455" 
d="M434 0h-369v696h369v-78h-286v-228h245v-75h-245v-234h286v-81zM107 876h69c2 -27 28 -63 69 -63c45 0 70 36 70 63h67c-5 -52 -36 -126 -137 -126c-103 0 -137 74 -138 126z" />
    <glyph glyph-name="ebreve" unicode="&#x115;" horiz-adv-x="424" 
d="M306 124l66 -35c-27 -58 -83 -95 -149 -95c-133 0 -186 72 -186 253c0 126 33 254 175 254c111 0 173 -77 173 -201v-77h-267c0 -87 17 -156 102 -156c36 0 68 27 86 57zM305 288c0 90 -33 137 -92 137c-69 0 -90 -53 -93 -137h185zM79 699h69c2 -27 28 -63 69 -63
c45 0 70 36 70 63h67c-5 -52 -36 -126 -137 -126c-103 0 -137 74 -138 126z" />
    <glyph glyph-name="Edotaccent" unicode="&#x116;" horiz-adv-x="455" 
d="M434 0h-369v696h369v-78h-286v-228h245v-75h-245v-234h286v-81zM276 763h-78v84h78v-84z" />
    <glyph glyph-name="edotaccent" unicode="&#x117;" horiz-adv-x="424" 
d="M306 124l66 -35c-27 -58 -83 -95 -149 -95c-133 0 -186 72 -186 253c0 126 33 254 175 254c111 0 173 -77 173 -201v-77h-267c0 -87 17 -156 102 -156c36 0 68 27 86 57zM305 288c0 90 -33 137 -92 137c-69 0 -90 -53 -93 -137h185zM253 593h-78v84h78v-84z" />
    <glyph glyph-name="Eogonek" unicode="&#x118;" horiz-adv-x="455" 
d="M338 -92c0 26 10 55 36 92h-309v696h369v-78h-286v-228h245v-75h-245v-234h286v-81c-21 -30 -31 -54 -31 -77c0 -28 18 -44 48 -44c16 0 33 5 57 16l20 -50c-26 -14 -60 -25 -93 -25c-57 0 -97 40 -97 88z" />
    <glyph glyph-name="eogonek" unicode="&#x119;" horiz-adv-x="424" 
d="M256 -33c0 10 1 21 5 32c-12 -3 -25 -5 -38 -5c-133 0 -186 72 -186 253c0 126 33 254 175 254c111 0 173 -77 173 -201v-77h-267c0 -87 17 -156 102 -156c36 0 68 27 86 57l66 -35c-7 -16 -17 -30 -28 -42c-16 -25 -23 -46 -23 -65c0 -28 18 -44 48 -44c16 0 33 5 57 16
l20 -50c-26 -14 -60 -25 -93 -25c-57 0 -97 40 -97 88zM305 288c0 90 -33 137 -92 137c-69 0 -90 -53 -93 -137h185z" />
    <glyph glyph-name="Ecaron" unicode="&#x11a;" horiz-adv-x="455" 
d="M434 0h-369v696h369v-78h-286v-228h245v-75h-245v-234h286v-81zM239 811l130 80l32 -34l-133 -122h-50l-140 124l31 33z" />
    <glyph glyph-name="ecaron" unicode="&#x11b;" horiz-adv-x="424" 
d="M306 124l66 -35c-27 -58 -83 -95 -149 -95c-133 0 -186 72 -186 253c0 126 33 254 175 254c111 0 173 -77 173 -201v-77h-267c0 -87 17 -156 102 -156c36 0 68 27 86 57zM305 288c0 90 -33 137 -92 137c-69 0 -90 -53 -93 -137h185zM219 632l125 100l37 -35l-133 -144
h-50l-141 146l37 33z" />
    <glyph glyph-name="Gcircumflex" unicode="&#x11c;" horiz-adv-x="506" 
d="M253 70c71 0 120 53 120 120v110h-114v74h198v-179c0 -123 -87 -202 -204 -202c-128 0 -204 87 -204 209v292c0 118 75 207 204 207c94 0 168 -49 193 -135l-80 -27c-13 49 -53 82 -113 82c-78 0 -121 -60 -121 -125v-299c0 -66 43 -127 121 -127zM378 733l-130 80
l-130 -80l-31 33l140 123h50l133 -121z" />
    <glyph glyph-name="gcircumflex" unicode="&#x11d;" horiz-adv-x="441" 
d="M385 -4c0 -123 -56 -203 -181 -203c-64 0 -120 33 -146 88l67 39c14 -27 43 -51 82 -51c67 0 97 43 97 114v69h-2c-31 -41 -73 -57 -113 -57c-136 0 -150 124 -150 248c0 129 14 258 150 258c46 0 84 -16 113 -53c1 0 1 1 2 1v46h81v-499zM211 75c80 0 94 78 94 160
c0 78 6 188 -91 188c-85 0 -92 -81 -92 -176c0 -107 13 -172 89 -172zM350 553l-125 100l-125 -101l-37 33l141 146h50l133 -144z" />
    <glyph glyph-name="Gbreve" unicode="&#x11e;" horiz-adv-x="506" 
d="M253 70c71 0 120 53 120 120v110h-114v74h198v-179c0 -123 -87 -202 -204 -202c-128 0 -204 87 -204 209v292c0 118 75 207 204 207c94 0 168 -49 193 -135l-80 -27c-13 49 -53 82 -113 82c-78 0 -121 -60 -121 -125v-299c0 -66 43 -127 121 -127zM107 876h69
c2 -27 28 -63 69 -63c45 0 70 36 70 63h67c-5 -52 -36 -126 -137 -126c-103 0 -137 74 -138 126z" />
    <glyph glyph-name="gbreve" unicode="&#x11f;" horiz-adv-x="441" 
d="M385 -4c0 -123 -56 -203 -181 -203c-64 0 -120 33 -146 88l67 39c14 -27 43 -51 82 -51c67 0 97 43 97 114v69h-2c-31 -41 -73 -57 -113 -57c-136 0 -150 124 -150 248c0 129 14 258 150 258c46 0 84 -16 113 -53c1 0 1 1 2 1v46h81v-499zM211 75c80 0 94 78 94 160
c0 78 6 188 -91 188c-85 0 -92 -81 -92 -176c0 -107 13 -172 89 -172zM86 699h69c2 -27 28 -63 69 -63c45 0 70 36 70 63h67c-5 -52 -36 -126 -137 -126c-103 0 -137 74 -138 126z" />
    <glyph glyph-name="Gdotaccent" unicode="&#x120;" horiz-adv-x="506" 
d="M253 70c71 0 120 53 120 120v110h-114v74h198v-179c0 -123 -87 -202 -204 -202c-128 0 -204 87 -204 209v292c0 118 75 207 204 207c94 0 168 -49 193 -135l-80 -27c-13 49 -53 82 -113 82c-78 0 -121 -60 -121 -125v-299c0 -66 43 -127 121 -127zM293 763h-78v84h78v-84
z" />
    <glyph glyph-name="gdotaccent" unicode="&#x121;" horiz-adv-x="441" 
d="M385 -4c0 -123 -56 -203 -181 -203c-64 0 -120 33 -146 88l67 39c14 -27 43 -51 82 -51c67 0 97 43 97 114v69h-2c-31 -41 -73 -57 -113 -57c-136 0 -150 124 -150 248c0 129 14 258 150 258c46 0 84 -16 113 -53c1 0 1 1 2 1v46h81v-499zM211 75c80 0 94 78 94 160
c0 78 6 188 -91 188c-85 0 -92 -81 -92 -176c0 -107 13 -172 89 -172zM246 593h-78v84h78v-84z" />
    <glyph glyph-name="Gcommaaccent" unicode="&#x122;" horiz-adv-x="506" 
d="M253 70c71 0 120 53 120 120v110h-114v74h198v-179c0 -123 -87 -202 -204 -202c-128 0 -204 87 -204 209v292c0 118 75 207 204 207c94 0 168 -49 193 -135l-80 -27c-13 49 -53 82 -113 82c-78 0 -121 -60 -121 -125v-299c0 -66 43 -127 121 -127zM301 -163l-51 -91h-47
l31 89h-28v103h95v-101z" />
    <glyph glyph-name="gcommaaccent" unicode="&#x123;" horiz-adv-x="441" 
d="M385 -4c0 -123 -56 -203 -181 -203c-64 0 -120 33 -146 88l67 39c14 -27 43 -51 82 -51c67 0 97 43 97 114v69h-2c-31 -41 -73 -57 -113 -57c-136 0 -150 124 -150 248c0 129 14 258 150 258c46 0 84 -16 113 -53c1 0 1 1 2 1v46h81v-499zM211 75c80 0 94 78 94 160
c0 78 6 188 -91 188c-85 0 -92 -81 -92 -176c0 -107 13 -172 89 -172zM163 676l45 82h47l-22 -80h25v-104h-95v102z" />
    <glyph glyph-name="Hcircumflex" unicode="&#x124;" horiz-adv-x="532" 
d="M467 0h-84v317h-235v-317h-83v696h83v-306h235v306h84v-696zM390 733l-130 80l-130 -80l-31 33l140 123h50l133 -121z" />
    <glyph glyph-name="hcircumflex" unicode="&#x125;" horiz-adv-x="438" 
d="M390 0h-81v323c0 60 -30 97 -90 97c-55 0 -92 -37 -92 -99v-321h-80v726h81v-287h3c28 39 71 61 119 61c79 0 140 -55 140 -150v-350zM217 733l-130 80l-130 -80l-31 33l140 123h50l133 -121z" />
    <glyph glyph-name="Hbar" unicode="&#x126;" horiz-adv-x="532" 
d="M467 0h-84v317h-235v-317h-83v535h-49v60h49v101h83v-101h235v101h84v-101h49v-60h-49v-535zM148 390h235v145h-235v-145z" />
    <glyph glyph-name="hbar" unicode="&#x127;" horiz-adv-x="438" 
d="M390 0h-81v323c0 60 -30 97 -90 97c-55 0 -92 -37 -92 -99v-321h-80v583h-47v62h47v81h81v-81h152v-62h-152v-144h3c28 39 71 61 119 61c79 0 140 -55 140 -150v-350z" />
    <glyph glyph-name="Itilde" unicode="&#x128;" horiz-adv-x="282" 
d="M183 0h-84v696h84v-696zM78 859c43 0 84 -42 122 -42c19 0 36 13 57 42l45 -28c-27 -54 -62 -82 -98 -82c-44 0 -87 41 -122 41c-20 0 -37 -12 -58 -38l-44 25c22 45 60 82 98 82z" />
    <glyph glyph-name="itilde" unicode="&#x129;" horiz-adv-x="282" 
d="M78 689c43 0 84 -42 122 -42c19 0 36 13 57 42l45 -28c-27 -54 -62 -82 -98 -82c-44 0 -87 41 -122 41c-20 0 -37 -12 -58 -38l-44 25c22 45 60 82 98 82zM183 0h-81v495h81v-495z" />
    <glyph glyph-name="Imacron" unicode="&#x12a;" horiz-adv-x="217" 
d="M150 0h-84v696h84v-696zM235 763h-248v75h248v-75z" />
    <glyph glyph-name="imacron" unicode="&#x12b;" horiz-adv-x="208" 
d="M228 588h-248v75h248v-75zM146 0h-81v495h81v-495z" />
    <glyph glyph-name="Ibreve" unicode="&#x12c;" horiz-adv-x="296" 
d="M10 881h69c2 -27 28 -63 69 -63c45 0 70 36 70 63h67c-5 -52 -36 -126 -137 -126c-103 0 -137 74 -138 126zM191 0h-84v696h84v-696z" />
    <glyph glyph-name="ibreve" unicode="&#x12d;" horiz-adv-x="235" 
d="M-20 705h69c2 -27 28 -63 69 -63c45 0 70 36 70 63h67c-5 -52 -36 -126 -137 -126c-103 0 -137 74 -138 126zM163 0h-81v495h81v-495z" />
    <glyph glyph-name="Iogonek" unicode="&#x12e;" horiz-adv-x="217" 
d="M39 -92c0 26 10 55 36 92h-9v696h84v-696h-15c-21 -30 -31 -54 -31 -77c0 -28 18 -44 48 -44c16 0 33 5 57 16l20 -50c-26 -14 -60 -25 -93 -25c-57 0 -97 40 -97 88z" />
    <glyph glyph-name="iogonek" unicode="&#x12f;" horiz-adv-x="197" 
d="M35 -91c0 26 10 55 35 91h-12v495h81v-495h-8c-21 -29 -31 -53 -31 -76c0 -28 18 -44 48 -44c16 0 33 5 57 16l20 -50c-26 -14 -60 -25 -93 -25c-57 0 -97 40 -97 88zM139 615h-81v81h81v-81z" />
    <glyph glyph-name="Idotaccent" unicode="&#x130;" horiz-adv-x="217" 
d="M150 0h-84v696h84v-696zM148 763h-78v84h78v-84z" />
    <glyph glyph-name="IJ" unicode="&#x132;" horiz-adv-x="612" 
d="M148 0h-84v696h84v-696zM545 696v-514c0 -135 -87 -188 -191 -188c-63 0 -117 26 -150 70l65 50c19 -22 50 -41 83 -41c61 0 109 30 109 110v513h84z" />
    <glyph glyph-name="ij" unicode="&#x133;" horiz-adv-x="424" 
d="M139 615h-81v81h81v-81zM139 0h-81v495h81v-495zM360 615h-81v81h81v-81zM360 495v-568c0 -74 -44 -132 -131 -132h-27v75c2 0 18 -1 19 0c41 1 58 28 58 75v550h81z" />
    <glyph glyph-name="Jcircumflex" unicode="&#x134;" horiz-adv-x="406" 
d="M339 697v-514c0 -135 -87 -188 -191 -188c-63 0 -117 26 -150 70l65 50c19 -22 50 -41 83 -41c61 0 109 30 109 110v513h84zM425 735l-130 80l-130 -80l-31 33l140 123h50l133 -121z" />
    <glyph glyph-name="jcircumflex" unicode="&#x135;" horiz-adv-x="284" 
d="M183 495v-568c0 -74 -44 -132 -131 -132h-27v75c2 0 18 -1 19 0c41 1 58 28 58 75v550h81zM267 553l-125 100l-125 -101l-37 33l141 146h50l133 -144z" />
    <glyph glyph-name="Kcommaaccent" unicode="&#x136;" horiz-adv-x="516" 
d="M507 0h-92l-166 345c-34 -49 -67 -100 -101 -148v-197h-84v696h84v-365c1 0 2 1 3 1c78 123 160 242 239 364h91c-60 -91 -120 -180 -179 -271zM310 -143l-51 -91h-47l31 89h-28v103h95v-101z" />
    <glyph glyph-name="kcommaaccent" unicode="&#x137;" horiz-adv-x="440" 
d="M435 0h-90l-131 241l-78 -108v-133h-81v726h81v-470h2l176 239h93l-141 -189zM280 -163l-51 -91h-47l31 89h-28v103h95v-101z" />
    <glyph glyph-name="kgreenlandic" unicode="&#x138;" horiz-adv-x="435" 
d="M432 0h-90l-128 241l-78 -110v-131h-81v495h81v-239h2l175 239h94l-141 -190z" />
    <glyph glyph-name="Lacute" unicode="&#x139;" horiz-adv-x="442" 
d="M426 0h-361v696h83v-615h278v-81zM104 727l-33 39l145 118l54 -59z" />
    <glyph glyph-name="lacute" unicode="&#x13a;" horiz-adv-x="227" 
d="M207 -3h-22c-78 0 -127 27 -126 118v611h81v-598c0 -37 13 -56 50 -56h17v-75zM92 737l-33 39l145 118l54 -59z" />
    <glyph glyph-name="Lcommaaccent" unicode="&#x13b;" horiz-adv-x="442" 
d="M426 0h-361v696h83v-615h278v-81zM280 -163l-51 -91h-47l31 89h-28v103h95v-101z" />
    <glyph glyph-name="lcommaaccent" unicode="&#x13c;" horiz-adv-x="227" 
d="M207 -3h-22c-78 0 -127 27 -126 118v611h81v-598c0 -37 13 -56 50 -56h17v-75zM166 -155l-51 -91h-47l31 89h-28v103h95v-101z" />
    <glyph glyph-name="Lcaron" unicode="&#x13d;" horiz-adv-x="442" 
d="M426 0h-361v696h83v-615h278v-81zM355 591l-51 -91h-47l31 89h-28v103h95v-101z" />
    <glyph glyph-name="lcaron" unicode="&#x13e;" horiz-adv-x="278" 
d="M286 620l-51 -91h-47l31 89h-28v103h95v-101zM207 -3h-22c-78 0 -127 27 -126 118v611h81v-598c0 -37 13 -56 50 -56h17v-75z" />
    <glyph glyph-name="Ldot" unicode="&#x13f;" horiz-adv-x="442" 
d="M426 0h-361v696h83v-615h278v-81zM373 307h-78v84h78v-84z" />
    <glyph glyph-name="ldot" unicode="&#x140;" horiz-adv-x="269" 
d="M278 334h-78v84h78v-84zM207 -3h-22c-78 0 -127 27 -126 118v611h81v-598c0 -37 13 -56 50 -56h17v-75z" />
    <glyph glyph-name="Lslash" unicode="&#x141;" horiz-adv-x="457" 
d="M441 0h-361v243l-51 -29l-29 49l80 46v387h83v-339l114 66l28 -50l-142 -82v-210h278v-81z" />
    <glyph glyph-name="lslash" unicode="&#x142;" horiz-adv-x="265" 
d="M239 -3h-22c-78 0 -127 27 -126 118v160l-53 -31l-29 49l82 48v385h81v-338l65 38l28 -50l-93 -54v-194c0 -37 13 -56 50 -56h17v-75z" />
    <glyph glyph-name="Nacute" unicode="&#x143;" horiz-adv-x="562" 
d="M500 0h-80l-199 366l-71 139h-3v-505h-84v696h81l195 -361l74 -143l4 1v503h83v-696zM264 727l-33 39l145 118l54 -59z" />
    <glyph glyph-name="nacute" unicode="&#x144;" horiz-adv-x="436" 
d="M389 0h-81v323c0 60 -32 96 -91 96c-54 0 -91 -38 -91 -98v-321h-80v495h81v-55h3c28 39 71 60 119 60c79 0 140 -57 140 -150v-350zM203 553l-48 19l70 173l76 -25z" />
    <glyph glyph-name="Ncommaaccent" unicode="&#x145;" horiz-adv-x="562" 
d="M500 0h-80l-199 366l-71 139h-3v-505h-84v696h81l195 -361l74 -143l4 1v503h83v-696zM320 -143l-51 -91h-47l31 89h-28v103h95v-101z" />
    <glyph glyph-name="ncommaaccent" unicode="&#x146;" horiz-adv-x="436" 
d="M389 0h-81v323c0 60 -32 96 -91 96c-54 0 -91 -38 -91 -98v-321h-80v495h81v-55h3c28 39 71 60 119 60c79 0 140 -57 140 -150v-350zM265 -163l-51 -91h-47l31 89h-28v103h95v-101z" />
    <glyph glyph-name="Ncaron" unicode="&#x147;" horiz-adv-x="562" 
d="M500 0h-80l-199 366l-71 139h-3v-505h-84v696h81l195 -361l74 -143l4 1v503h83v-696zM286 811l130 80l32 -34l-133 -122h-50l-140 124l31 33z" />
    <glyph glyph-name="ncaron" unicode="&#x148;" horiz-adv-x="436" 
d="M389 0h-81v323c0 60 -32 96 -91 96c-54 0 -91 -38 -91 -98v-321h-80v495h81v-55h3c28 39 71 60 119 60c79 0 140 -57 140 -150v-350zM206 632l125 100l37 -35l-133 -144h-50l-141 146l37 33z" />
    <glyph glyph-name="napostrophe" unicode="&#x149;" horiz-adv-x="477" 
d="M430 0h-81v323c0 60 -32 96 -91 96c-54 0 -91 -38 -91 -98v-321h-80v495h81v-55h3c28 39 71 60 119 60c79 0 140 -57 140 -150v-350zM88 564l-51 -91h-47l31 89h-28v103h95v-101z" />
    <glyph glyph-name="Eng" unicode="&#x14a;" horiz-adv-x="562" 
d="M500 696v-760c0 -75 -39 -105 -96 -105c-24 0 -46 4 -75 17l19 57c15 -4 29 -7 40 -7c20 0 31 10 31 40v66l-198 367l-71 139h-3v-510h-84v696h81l195 -366l74 -147l4 1v512h83z" />
    <glyph glyph-name="eng" unicode="&#x14b;" horiz-adv-x="436" 
d="M389 350v-414c0 -75 -39 -105 -96 -105c-24 0 -46 4 -75 17l19 57c15 -4 29 -7 40 -7c20 0 31 10 31 40v385c0 60 -26 96 -89 96c-54 0 -93 -40 -93 -100v-319h-80v495h81v-55h3c28 39 73 60 121 60c82 0 138 -57 138 -150z" />
    <glyph glyph-name="Omacron" unicode="&#x14c;" horiz-adv-x="497" 
d="M452 203c0 -128 -84 -209 -204 -209c-147 0 -204 104 -204 221v279c0 94 54 207 204 207c141 0 204 -106 204 -207v-291zM367 195v298c0 42 -24 129 -120 129c-95 0 -121 -80 -121 -131l1 -275c0 -81 34 -145 123 -145c64 0 117 47 117 124zM370 763h-248v75h248v-75z
" />
    <glyph glyph-name="omacron" unicode="&#x14d;" horiz-adv-x="438" 
d="M222 501c78 0 120 -35 147 -82c18 -31 26 -110 26 -172c0 -36 -6 -117 -17 -150c-25 -78 -96 -104 -167 -104c-76 0 -124 36 -148 86c-17 36 -23 100 -23 165c0 62 5 124 20 160c26 60 82 97 162 97zM220 428c-38 0 -72 -19 -86 -56c-9 -25 -14 -75 -14 -137
c0 -44 1 -85 11 -111c14 -36 43 -57 85 -57c41 0 74 19 89 63c7 19 9 68 9 122c0 47 -2 92 -10 116c-14 40 -45 60 -84 60zM348 588h-248v75h248v-75z" />
    <glyph glyph-name="Obreve" unicode="&#x14e;" horiz-adv-x="497" 
d="M452 203c0 -128 -84 -209 -204 -209c-147 0 -204 104 -204 221v279c0 94 54 207 204 207c141 0 204 -106 204 -207v-291zM367 195v298c0 42 -24 129 -120 129c-95 0 -121 -80 -121 -131l1 -275c0 -81 34 -145 123 -145c64 0 117 47 117 124zM112 876h69
c2 -27 28 -63 69 -63c45 0 70 36 70 63h67c-5 -52 -36 -126 -137 -126c-103 0 -137 74 -138 126z" />
    <glyph glyph-name="obreve" unicode="&#x14f;" horiz-adv-x="438" 
d="M222 501c78 0 120 -35 147 -82c18 -31 26 -110 26 -172c0 -36 -6 -117 -17 -150c-25 -78 -96 -104 -167 -104c-76 0 -124 36 -148 86c-17 36 -23 100 -23 165c0 62 5 124 20 160c26 60 82 97 162 97zM220 428c-38 0 -72 -19 -86 -56c-9 -25 -14 -75 -14 -137
c0 -44 1 -85 11 -111c14 -36 43 -57 85 -57c41 0 74 19 89 63c7 19 9 68 9 122c0 47 -2 92 -10 116c-14 40 -45 60 -84 60zM80 699h69c2 -27 28 -63 69 -63c45 0 70 36 70 63h67c-5 -52 -36 -126 -137 -126c-103 0 -137 74 -138 126z" />
    <glyph glyph-name="Ohungarumlaut" unicode="&#x150;" horiz-adv-x="497" 
d="M452 203c0 -128 -84 -209 -204 -209c-147 0 -204 104 -204 221v279c0 94 54 207 204 207c141 0 204 -106 204 -207v-291zM367 195v298c0 42 -24 129 -120 129c-95 0 -121 -80 -121 -131l1 -275c0 -81 34 -145 123 -145c64 0 117 47 117 124zM138 728l-33 39l145 117
l54 -59zM310 728l-33 39l145 117l54 -59z" />
    <glyph glyph-name="ohungarumlaut" unicode="&#x151;" horiz-adv-x="438" 
d="M222 501c78 0 120 -35 147 -82c18 -31 26 -110 26 -172c0 -36 -6 -117 -17 -150c-25 -78 -96 -104 -167 -104c-76 0 -124 36 -148 86c-17 36 -23 100 -23 165c0 62 5 124 20 160c26 60 82 97 162 97zM220 428c-38 0 -72 -19 -86 -56c-9 -25 -14 -75 -14 -137
c0 -44 1 -85 11 -111c14 -36 43 -57 85 -57c41 0 74 19 89 63c7 19 9 68 9 122c0 47 -2 92 -10 116c-14 40 -45 60 -84 60zM179 553l-48 19l70 173l76 -25zM308 553l-48 19l70 173l76 -25z" />
    <glyph glyph-name="Racute" unicode="&#x154;" horiz-adv-x="506" 
d="M472 0h-91l-116 306h-117v-306h-83v696h218c113 0 183 -71 183 -194c0 -87 -39 -154 -120 -184zM382 502c0 77 -36 118 -114 118h-120v-241h122c74 0 112 48 112 123zM198 727l-33 39l145 118l54 -59z" />
    <glyph glyph-name="racute" unicode="&#x155;" horiz-adv-x="311" 
d="M139 435h3c30 52 68 66 121 66c18 -1 35 -5 45 -11l-18 -87c-15 7 -32 11 -49 11c-61 0 -102 -33 -102 -107v-307h-80v494h80v-59zM181 553l-48 19l70 173l76 -25z" />
    <glyph glyph-name="Rcommaaccent" unicode="&#x156;" horiz-adv-x="506" 
d="M472 0h-91l-116 306h-117v-306h-83v696h218c113 0 183 -71 183 -194c0 -87 -39 -154 -120 -184zM382 502c0 77 -36 118 -114 118h-120v-241h122c74 0 112 48 112 123zM300 -143l-51 -91h-47l31 89h-28v103h95v-101z" />
    <glyph glyph-name="rcommaaccent" unicode="&#x157;" horiz-adv-x="311" 
d="M139 435h3c30 52 68 66 121 66c18 -1 35 -5 45 -11l-18 -87c-15 7 -32 11 -49 11c-61 0 -102 -33 -102 -107v-307h-80v494h80v-59zM144 -163l-51 -91h-47l31 89h-28v103h95v-101z" />
    <glyph glyph-name="Rcaron" unicode="&#x158;" horiz-adv-x="506" 
d="M472 0h-91l-116 306h-117v-306h-83v696h218c113 0 183 -71 183 -194c0 -87 -39 -154 -120 -184zM382 502c0 77 -36 118 -114 118h-120v-241h122c74 0 112 48 112 123zM237 811l130 80l32 -34l-133 -122h-50l-140 124l31 33z" />
    <glyph glyph-name="rcaron" unicode="&#x159;" horiz-adv-x="311" 
d="M139 435h3c30 52 68 66 121 66c18 -1 35 -5 45 -11l-18 -87c-15 7 -32 11 -49 11c-61 0 -102 -33 -102 -107v-307h-80v494h80v-59zM156 632l125 100l37 -35l-133 -144h-50l-141 146l37 33z" />
    <glyph glyph-name="Sacute" unicode="&#x15a;" horiz-adv-x="478" 
d="M444 190c0 -120 -77 -197 -207 -197c-107 0 -180 48 -215 123l74 43c27 -47 71 -85 142 -85c86 0 120 49 120 116c0 74 -47 101 -123 125c-139 42 -192 90 -192 196c0 112 78 191 201 191c102 0 164 -41 194 -97l-71 -49c-26 47 -65 66 -127 66c-77 0 -112 -49 -112 -111
c0 -73 68 -95 155 -123c120 -38 161 -94 161 -198zM222 727l-33 39l145 118l54 -59z" />
    <glyph glyph-name="sacute" unicode="&#x15b;" horiz-adv-x="405" 
d="M27 98l66 38c21 -43 56 -68 109 -68c55 0 89 22 89 74c0 50 -39 61 -93 76c-96 25 -158 57 -158 142c0 87 62 141 161 141c89 0 136 -36 159 -95l-63 -39c-19 39 -52 60 -97 60c-59 0 -80 -32 -80 -67c0 -45 53 -55 112 -72c93 -22 139 -58 139 -148
c0 -89 -64 -147 -171 -147c-85 0 -142 37 -173 105zM198 553l-48 19l70 173l76 -25z" />
    <glyph glyph-name="Scircumflex" unicode="&#x15c;" horiz-adv-x="478" 
d="M444 190c0 -120 -77 -197 -207 -197c-107 0 -180 48 -215 123l74 43c27 -47 71 -85 142 -85c86 0 120 49 120 116c0 74 -47 101 -123 125c-139 42 -192 90 -192 196c0 112 78 191 201 191c102 0 164 -41 194 -97l-71 -49c-26 47 -65 66 -127 66c-77 0 -112 -49 -112 -111
c0 -73 68 -95 155 -123c120 -38 161 -94 161 -198zM370 733l-130 80l-130 -80l-31 33l140 123h50l133 -121z" />
    <glyph glyph-name="scircumflex" unicode="&#x15d;" horiz-adv-x="405" 
d="M27 98l66 38c21 -43 56 -68 109 -68c55 0 89 22 89 74c0 50 -39 61 -93 76c-96 25 -158 57 -158 142c0 87 62 141 161 141c89 0 136 -36 159 -95l-63 -39c-19 39 -52 60 -97 60c-59 0 -80 -32 -80 -67c0 -45 53 -55 112 -72c93 -22 139 -58 139 -148
c0 -89 -64 -147 -171 -147c-85 0 -142 37 -173 105zM329 553l-125 100l-125 -101l-37 33l141 146h50l133 -144z" />
    <glyph glyph-name="Scedilla" unicode="&#x15e;" horiz-adv-x="478" 
d="M444 190c0 -113 -68 -187 -183 -196l-12 -41c69 -4 89 -49 89 -80c0 -33 -25 -78 -93 -78c-11 0 -56 0 -89 16l14 37c25 -12 50 -13 68 -13c23 0 44 14 44 37c0 27 -20 45 -64 42l-18 15l19 65c-97 5 -164 51 -197 122l74 43c27 -47 71 -85 142 -85c86 0 120 49 120 116
c0 74 -47 101 -123 125c-139 42 -192 90 -192 196c0 112 78 191 201 191c102 0 164 -41 194 -97l-71 -49c-26 47 -65 66 -127 66c-77 0 -112 -49 -112 -111c0 -73 68 -95 155 -123c120 -38 161 -94 161 -198z" />
    <glyph glyph-name="scedilla" unicode="&#x15f;" horiz-adv-x="405" 
d="M27 98l66 38c21 -43 56 -68 109 -68c55 0 89 22 89 74c0 50 -39 61 -93 76c-96 25 -158 57 -158 142c0 87 62 141 161 141c89 0 136 -36 159 -95l-63 -39c-19 39 -52 60 -97 60c-59 0 -80 -32 -80 -67c0 -45 53 -55 112 -72c93 -22 139 -58 139 -148
c0 -84 -57 -140 -153 -146l-12 -41c69 -4 89 -49 89 -80c0 -33 -25 -78 -93 -78c-11 0 -56 0 -89 16l14 37c25 -12 50 -13 68 -13c23 0 44 14 44 37c0 27 -20 45 -64 42l-18 15l19 65c-72 6 -121 42 -149 104z" />
    <glyph glyph-name="Tcommaaccent" unicode="&#x162;" horiz-adv-x="403" 
d="M402 620h-159v-620h-21l-14 -47c69 -4 89 -49 89 -80c0 -33 -25 -78 -93 -78c-11 0 -56 0 -89 16l14 37c25 -12 50 -13 68 -13c23 0 44 14 44 37c0 27 -20 45 -64 42l-18 15l21 71h-20v620h-159v76h401v-76z" />
    <glyph glyph-name="tcommaaccent" unicode="&#x163;" horiz-adv-x="249" 
d="M230 0h-45c-17 0 -32 2 -46 7l-16 -54c69 -4 89 -49 89 -80c0 -33 -25 -78 -93 -78c-11 0 -56 0 -89 16l14 37c25 -12 50 -13 68 -13c23 0 44 14 44 37c0 27 -20 45 -64 42l-18 15l30 99c-22 21 -33 51 -33 85v316h-55v66h55v127h81v-127h70v-66h-70v-293
c0 -41 15 -62 51 -62h27v-74z" />
    <glyph glyph-name="Tcaron" unicode="&#x164;" horiz-adv-x="403" 
d="M402 620h-159v-620h-83v620h-159v76h401v-76zM203 811l130 80l32 -34l-133 -122h-50l-140 124l31 33z" />
    <glyph glyph-name="tcaron" unicode="&#x165;" horiz-adv-x="296" 
d="M304 646l-51 -91h-47l31 89h-28v103h95v-101zM230 0h-45c-76 0 -114 50 -114 113v316h-55v66h55v127h81v-127h70v-66h-70v-293c0 -41 15 -62 51 -62h27v-74z" />
    <glyph glyph-name="Tbar" unicode="&#x166;" horiz-adv-x="403" 
d="M402 620h-159v-228h123v-70h-123v-322h-83v322h-122v70h122v228h-159v76h401v-76z" />
    <glyph glyph-name="tbar" unicode="&#x167;" horiz-adv-x="249" 
d="M230 0h-45c-76 0 -114 50 -114 113v156h-55v63h55v97h-55v66h55v127h81v-127h70v-66h-70v-97h70v-63h-70v-133c0 -41 15 -62 51 -62h27v-74z" />
    <glyph glyph-name="Utilde" unicode="&#x168;" horiz-adv-x="519" 
d="M380 696h84v-494c0 -128 -84 -208 -204 -208c-127 0 -204 87 -204 208v494h83v-497c0 -66 46 -126 121 -126c70 0 120 48 120 126v497zM194 859c43 0 84 -42 122 -42c19 0 36 13 57 42l45 -28c-27 -54 -62 -82 -98 -82c-44 0 -87 41 -122 41c-20 0 -37 -12 -58 -38
l-44 25c22 45 60 82 98 82z" />
    <glyph glyph-name="utilde" unicode="&#x169;" horiz-adv-x="442" 
d="M389 0h-80v53h-3c-28 -40 -72 -59 -119 -59c-80 0 -141 57 -141 150v350h81v-323c0 -59 36 -98 91 -98c54 0 91 39 91 100v321h80v-494zM149 689c43 0 84 -42 122 -42c19 0 36 13 57 42l45 -28c-27 -54 -62 -82 -98 -82c-44 0 -87 41 -122 41c-20 0 -37 -12 -58 -38
l-44 25c22 45 60 82 98 82z" />
    <glyph glyph-name="Umacron" unicode="&#x16a;" horiz-adv-x="519" 
d="M380 696h84v-494c0 -128 -84 -208 -204 -208c-127 0 -204 87 -204 208v494h83v-497c0 -66 46 -126 121 -126c70 0 120 48 120 126v497zM388 763h-248v75h248v-75z" />
    <glyph glyph-name="umacron" unicode="&#x16b;" horiz-adv-x="442" 
d="M389 0h-80v53h-3c-28 -40 -72 -59 -119 -59c-80 0 -141 57 -141 150v350h81v-323c0 -59 36 -98 91 -98c54 0 91 39 91 100v321h80v-494zM345 588h-248v75h248v-75z" />
    <glyph glyph-name="Ubreve" unicode="&#x16c;" horiz-adv-x="519" 
d="M380 696h84v-494c0 -128 -84 -208 -204 -208c-127 0 -204 87 -204 208v494h83v-497c0 -66 46 -126 121 -126c70 0 120 48 120 126v497zM128 849h69c2 -27 28 -63 69 -63c45 0 70 36 70 63h67c-5 -52 -36 -126 -137 -126c-103 0 -137 74 -138 126z" />
    <glyph glyph-name="ubreve" unicode="&#x16d;" horiz-adv-x="442" 
d="M389 0h-80v53h-3c-28 -40 -72 -59 -119 -59c-80 0 -141 57 -141 150v350h81v-323c0 -59 36 -98 91 -98c54 0 91 39 91 100v321h80v-494zM88 699h69c2 -27 28 -63 69 -63c45 0 70 36 70 63h67c-5 -52 -36 -126 -137 -126c-103 0 -137 74 -138 126z" />
    <glyph glyph-name="Uring" unicode="&#x16e;" horiz-adv-x="519" 
d="M380 696h84v-494c0 -128 -84 -208 -204 -208c-127 0 -204 87 -204 208v494h83v-497c0 -66 46 -126 121 -126c70 0 120 48 120 126v497zM262 713c-50 0 -89 38 -89 84c0 47 39 86 89 86c46 0 85 -39 85 -86c0 -46 -39 -84 -85 -84zM262 842c-27 0 -47 -20 -47 -45
c0 -24 20 -43 47 -43c24 0 44 19 44 43c0 25 -20 45 -44 45z" />
    <glyph glyph-name="uring" unicode="&#x16f;" horiz-adv-x="442" 
d="M389 0h-80v53h-3c-28 -40 -72 -59 -119 -59c-80 0 -141 57 -141 150v350h81v-323c0 -59 36 -98 91 -98c54 0 91 39 91 100v321h80v-494zM226 551c-50 0 -89 38 -89 84c0 47 39 86 89 86c46 0 85 -39 85 -86c0 -46 -39 -84 -85 -84zM226 680c-27 0 -47 -20 -47 -45
c0 -24 20 -43 47 -43c24 0 44 19 44 43c0 25 -20 45 -44 45z" />
    <glyph glyph-name="Uhungarumlaut" unicode="&#x170;" horiz-adv-x="519" 
d="M380 696h84v-494c0 -128 -84 -208 -204 -208c-127 0 -204 87 -204 208v494h83v-497c0 -66 46 -126 121 -126c70 0 120 48 120 126v497zM159 728l-33 39l145 117l54 -59zM331 728l-33 39l145 117l54 -59z" />
    <glyph glyph-name="uhungarumlaut" unicode="&#x171;" horiz-adv-x="442" 
d="M389 0h-80v53h-3c-28 -40 -72 -59 -119 -59c-80 0 -141 57 -141 150v350h81v-323c0 -59 36 -98 91 -98c54 0 91 39 91 100v321h80v-494zM172 553l-48 19l70 173l76 -25zM301 553l-48 19l70 173l76 -25z" />
    <glyph glyph-name="Uogonek" unicode="&#x172;" horiz-adv-x="519" 
d="M196 -90c0 25 9 52 32 86c-108 13 -172 95 -172 206v494h83v-497c0 -66 46 -126 121 -126c70 0 120 48 120 126v497h84v-494c0 -118 -71 -195 -176 -206c-18 -27 -27 -50 -27 -71c0 -28 18 -44 48 -44c16 0 33 5 57 16l20 -50c-26 -14 -60 -25 -93 -25
c-57 0 -97 40 -97 88z" />
    <glyph glyph-name="uogonek" unicode="&#x173;" horiz-adv-x="442" 
d="M273 -90c0 26 10 55 36 91v52h-3c-28 -40 -72 -59 -119 -59c-80 0 -141 57 -141 150v350h81v-323c0 -59 36 -98 91 -98c54 0 91 39 91 100v321h80v-494h-21c-20 -29 -30 -53 -30 -75c0 -28 18 -44 48 -44c16 0 33 5 57 16l20 -50c-26 -14 -60 -25 -93 -25
c-57 0 -97 40 -97 88z" />
    <glyph glyph-name="Wcircumflex" unicode="&#x174;" horiz-adv-x="702" 
d="M683 696l-138 -696h-74l-78 338l-41 191h-3l-40 -187l-78 -342h-74l-138 696h87l58 -319l32 -198h3l42 195l75 322h71l75 -323l42 -194h3l31 194l57 323h88zM479 733l-130 80l-130 -80l-31 33l140 123h50l133 -121z" />
    <glyph glyph-name="wcircumflex" unicode="&#x175;" horiz-adv-x="635" 
d="M625 495l-135 -495h-79c-21 80 -44 159 -64 240l-31 115h-2c-10 -42 -21 -87 -32 -128l-60 -227h-80l-134 495h86c22 -87 43 -175 64 -262l24 -102h4l25 101c21 86 45 174 67 263h79c22 -85 43 -171 64 -256l27 -113h4l25 108c21 87 40 174 61 261h87zM441 553l-125 100
l-125 -101l-37 33l141 146h50l133 -144z" />
    <glyph glyph-name="Ycircumflex" unicode="&#x176;" horiz-adv-x="442" 
d="M217 386h6l51 134l72 176h87l-172 -406v-290h-81v290l-173 406h88c24 -60 50 -120 74 -180c16 -40 33 -90 48 -130zM348 733l-130 80l-130 -80l-31 33l140 123h50l133 -121z" />
    <glyph glyph-name="ycircumflex" unicode="&#x177;" horiz-adv-x="384" 
d="M384 495l-178 -594c-21 -70 -67 -103 -129 -103h-26v70h24c32 0 53 24 64 71l21 73l-159 483h86l61 -198l47 -167h3l44 167l58 198h84zM314 553l-125 100l-125 -101l-37 33l141 146h50l133 -144z" />
    <glyph glyph-name="Zacute" unicode="&#x179;" horiz-adv-x="413" 
d="M387 0h-360v77l271 543h-260v76h350v-72l-271 -545h270v-79zM188 727l-33 39l145 118l54 -59z" />
    <glyph glyph-name="zacute" unicode="&#x17a;" horiz-adv-x="370" 
d="M342 0h-313v71l222 352h-208v71h299v-69l-221 -349h221v-76zM203 553l-48 19l70 173l76 -25z" />
    <glyph glyph-name="Zdotaccent" unicode="&#x17b;" horiz-adv-x="413" 
d="M387 0h-360v77l271 543h-260v76h350v-72l-271 -545h270v-79zM262 763h-78v84h78v-84z" />
    <glyph glyph-name="zdotaccent" unicode="&#x17c;" horiz-adv-x="370" 
d="M342 0h-313v71l222 352h-208v71h299v-69l-221 -349h221v-76zM242 593h-78v84h78v-84z" />
    <glyph glyph-name="AEacute" unicode="&#x1fc;" horiz-adv-x="801" 
d="M395 0v193h-206l-96 -193h-86c115 232 231 464 347 696h411v-78h-286v-228h245v-75h-245v-235h286v-80h-370zM394 617l-168 -349h169v349h-1zM507 727l-33 39l145 118l54 -59z" />
    <glyph glyph-name="aeacute" unicode="&#x1fd;" horiz-adv-x="690" 
d="M573 117l64 -35c-27 -58 -82 -88 -148 -88c-73 0 -121 21 -151 70c-58 -64 -119 -70 -160 -70c-97 0 -142 67 -142 145c0 88 52 153 172 153h91v61c0 45 -31 72 -89 72c-38 0 -76 -12 -91 -47c-21 12 -42 25 -63 38c26 54 86 85 154 85c60 0 113 -15 144 -55
c27 34 66 55 124 55c111 0 173 -77 173 -201v-77h-267c0 -87 17 -156 102 -156c36 0 69 20 87 50zM299 155v68h-97c-52 0 -89 -24 -89 -79c0 -44 29 -74 89 -74c56 0 97 23 97 85zM571 288c0 90 -33 137 -92 137c-69 0 -90 -53 -93 -137h185zM363 553l-48 19l70 173l76 -25z
" />
    <glyph glyph-name="Oslash" unicode="&#xd8;" horiz-adv-x="497" 
d="M452 203c0 -128 -84 -209 -204 -209c-64 0 -112 20 -144 52l-28 -50l-37 25l35 64c-21 37 -30 82 -30 130v279c0 94 54 207 204 207c61 0 107 -20 140 -51l28 51l39 -24l-36 -64c22 -36 33 -78 33 -119v-291zM367 195v298c0 6 -1 14 -2 22l-218 -391
c19 -33 52 -53 103 -53c64 0 117 47 117 124zM127 216c0 -12 0 -23 2 -33l215 388c-18 28 -48 51 -97 51c-95 0 -121 -80 -121 -131z" />
    <glyph glyph-name="oslash" unicode="&#xf8;" horiz-adv-x="438" 
d="M222 501c48 0 85 -15 112 -38l28 41l35 -26l-33 -49l6 -10c19 -34 25 -110 25 -172c0 -36 -6 -117 -17 -150c-25 -78 -96 -104 -167 -104c-50 0 -88 15 -115 40l-23 -34l-33 26l29 43l-6 11c-17 36 -23 100 -23 165c0 62 5 124 20 160c26 60 82 97 162 97zM314 252
c0 35 -1 70 -5 95l-167 -245c16 -23 41 -35 74 -35c41 0 74 19 89 63c7 19 9 68 9 122zM220 428c-38 0 -70 -19 -86 -56c-11 -24 -14 -75 -14 -137c0 -31 0 -61 4 -85l165 246c-16 21 -41 32 -69 32z" />
    <glyph glyph-name="Oslashacute" unicode="&#x1fe;" horiz-adv-x="497" 
d="M452 203c0 -128 -84 -209 -204 -209c-64 0 -112 20 -144 52l-28 -50l-37 25l35 64c-21 37 -30 82 -30 130v279c0 94 54 207 204 207c61 0 107 -20 140 -51l28 51l39 -24l-36 -64c22 -36 33 -78 33 -119v-291zM367 195v298c0 6 -1 14 -2 22l-218 -391
c19 -33 52 -53 103 -53c64 0 117 47 117 124zM127 216c0 -12 0 -23 2 -33l215 388c-18 28 -48 51 -97 51c-95 0 -121 -80 -121 -131zM208 727l-33 39l145 118l54 -59z" />
    <glyph glyph-name="oslashacute" unicode="&#x1ff;" horiz-adv-x="438" 
d="M222 501c51 0 86 -15 112 -39l28 42l35 -26l-34 -50l6 -9c18 -31 26 -110 26 -172c0 -36 -6 -117 -17 -150c-25 -78 -96 -104 -167 -104c-50 0 -88 15 -115 40l-23 -34l-33 26l29 43l-6 11c-17 36 -23 100 -23 165c0 62 5 124 20 160c26 60 82 97 162 97zM314 252
c0 35 -1 70 -5 95l-167 -245c16 -23 41 -35 74 -35c41 0 74 19 89 63c7 19 9 68 9 122zM220 428c-38 0 -72 -19 -86 -56c-9 -25 -14 -75 -14 -137c0 -31 0 -61 4 -85l165 246c-16 21 -41 32 -69 32zM223 553l-48 19l70 173l76 -25z" />
    <glyph glyph-name="paragraph" unicode="&#xb6;" horiz-adv-x="485" 
d="M206 -82v406h-3c-122 0 -162 102 -162 182c0 76 27 199 173 199h226v-65h-36v-722h-63v722h-72v-722h-63z" />
    <glyph glyph-name="cent" unicode="&#xa2;" horiz-adv-x="440" 
d="M249 -117h-45v113c-121 15 -153 116 -153 262c0 134 48 225 153 240v103h45v-101c66 -4 114 -38 139 -90l-66 -41c-14 31 -40 51 -73 54v-353c34 5 59 27 72 51c22 -13 45 -24 68 -37c-25 -52 -75 -86 -140 -89v-112zM132 256c0 -83 13 -160 72 -181v344
c-60 -17 -72 -82 -72 -163z" />
    <glyph glyph-name="currency" unicode="&#xa4;" horiz-adv-x="556" 
d="M142 319c0 -73 62 -133 133 -133c74 0 134 59 134 133c0 75 -59 134 -134 134c-72 0 -133 -60 -133 -134zM109 437l-69 68l49 49l68 -68c38 25 76 38 119 38s81 -13 119 -38l67 68l49 -50l-68 -67c25 -38 38 -77 38 -118s-12 -80 -38 -118l68 -66l-49 -50l-67 68
c-37 -26 -76 -39 -119 -39s-82 13 -119 39l-68 -68l-49 49l69 67c-28 36 -38 77 -38 118s13 80 38 118z" />
    <glyph glyph-name="afii10023" unicode="&#x401;" horiz-adv-x="455" 
d="M434 0h-369v696h369v-78h-286v-228h245v-75h-245v-234h286v-81zM369 748h-78v84h78v-84zM203 748h-79v84h79v-84z" />
    <glyph glyph-name="afii10051" unicode="&#x402;" horiz-adv-x="599" 
d="M243 413h3c46 37 101 57 146 57c115 0 163 -72 163 -236c0 -142 -38 -247 -180 -247c-9 0 -25 0 -36 2v69h15c99 0 117 70 117 172c0 96 -15 161 -98 161c-52 0 -99 -25 -130 -60v-331h-84v621h-154v74h440v-74h-202v-208z" />
    <glyph glyph-name="afii10052" unicode="&#x403;" horiz-adv-x="441" 
d="M426 618h-278v-618h-83v696h361v-78zM199 727l-33 39l145 118l54 -59z" />
    <glyph glyph-name="afii10053" unicode="&#x404;" horiz-adv-x="469" 
d="M367 158l79 -29c-24 -87 -98 -135 -193 -135c-126 0 -203 86 -203 208v292c0 118 74 207 203 207c94 0 168 -49 193 -133l-79 -31c-13 50 -52 84 -114 84c-78 0 -120 -60 -120 -125v-106h226v-77h-226v-113c0 -66 43 -127 120 -127c60 0 101 33 114 85z" />
    <glyph glyph-name="afii10054" unicode="&#x405;" horiz-adv-x="478" 
d="M444 190c0 -120 -77 -197 -207 -197c-107 0 -180 48 -215 123l74 43c27 -47 71 -85 142 -85c86 0 120 49 120 116c0 74 -47 101 -123 125c-139 42 -192 90 -192 196c0 112 78 191 201 191c102 0 164 -41 194 -97l-71 -49c-26 47 -65 66 -127 66c-77 0 -112 -49 -112 -111
c0 -73 68 -95 155 -123c120 -38 161 -94 161 -198z" />
    <glyph glyph-name="afii10055" unicode="&#x406;" horiz-adv-x="217" 
d="M150 0h-84v696h84v-696z" />
    <glyph glyph-name="afii10056" unicode="&#x407;" horiz-adv-x="217" 
d="M150 0h-84v696h84v-696zM232 772h-78v84h78v-84zM66 772h-79v84h79v-84z" />
    <glyph glyph-name="afii10057" unicode="&#x408;" horiz-adv-x="406" 
d="M339 696v-514c0 -135 -87 -188 -191 -188c-63 0 -117 26 -150 70l65 50c19 -22 50 -41 83 -41c61 0 109 30 109 110v513h84z" />
    <glyph glyph-name="afii10058" unicode="&#x409;" horiz-adv-x="772" 
d="M666 206c0 65 -27 124 -120 124h-113v-252h112c86 0 121 52 121 128zM433 696v-291h119c144 0 199 -89 199 -196c0 -135 -75 -209 -203 -209h-199v620h-126l-25 -300c-20 -237 -62 -293 -169 -334l-31 67c69 36 101 60 116 239l34 404h285z" />
    <glyph glyph-name="afii10059" unicode="&#x40a;" horiz-adv-x="785" 
d="M562 0h-200v321h-214v-321h-84v696h84v-298h214v298h84v-298h113c144 0 205 -77 205 -192c0 -136 -74 -206 -202 -206zM446 321v-244h112c86 0 121 48 121 126c0 64 -29 118 -122 118h-111z" />
    <glyph glyph-name="afii10060" unicode="&#x40b;" horiz-adv-x="609" 
d="M243 331v-331h-84v622h-155v74h444v-74h-205v-203l3 -2c51 42 99 53 142 53c104 0 162 -62 162 -166l1 -304h-84v261c0 73 -15 130 -98 130c-52 0 -95 -25 -126 -60z" />
    <glyph glyph-name="afii10145" unicode="&#x40f;" horiz-adv-x="530" 
d="M382 696h84v-696h-156v-162h-85v162h-160v696h83v-618h234v618z" />
    <glyph glyph-name="afii10017" unicode="&#x410;" horiz-adv-x="497" 
d="M489 0h-86l-44 158h-222l-43 -158h-85l202 696h75zM340 233l-51 180l-39 154h-4l-39 -153l-51 -181h184z" />
    <glyph glyph-name="afii10018" unicode="&#x411;" horiz-adv-x="495" 
d="M147 328v-250h112c86 0 121 49 121 127c0 65 -29 123 -122 123h-111zM147 619v-213h113c144 0 205 -83 205 -198c0 -136 -74 -208 -202 -208h-200v696h346v-77h-262z" />
    <glyph glyph-name="afii10019" unicode="&#x412;" horiz-adv-x="506" 
d="M465 199c0 -130 -73 -199 -187 -199h-213v696h200c128 0 189 -71 189 -183c0 -64 -19 -113 -89 -148v-3c71 -19 100 -88 100 -163zM257 620h-109v-223h109c79 0 115 46 115 113c0 66 -36 110 -115 110zM267 325h-119v-244h121c88 0 114 56 114 125s-32 119 -116 119z" />
    <glyph glyph-name="afii10020" unicode="&#x413;" horiz-adv-x="441" 
d="M426 618h-278v-618h-83v696h361v-78z" />
    <glyph glyph-name="afii10021" unicode="&#x414;" horiz-adv-x="606" 
d="M91 0v-142h-78v222h70c31 44 45 122 57 257l32 359h346v-617h69v-221h-78v142h-418zM173 79h261v541h-186l-32 -350c-6 -66 -20 -137 -43 -191z" />
    <glyph glyph-name="afii10022" unicode="&#x415;" horiz-adv-x="455" 
d="M434 0h-369v696h369v-78h-286v-228h245v-75h-245v-234h286v-81z" />
    <glyph glyph-name="afii10025" unicode="&#x417;" horiz-adv-x="467" 
d="M213 -6c-105 0 -186 52 -201 152l79 28c12 -69 62 -104 124 -104c68 0 118 38 118 132c0 73 -33 126 -107 126h-59v73h59c67 0 103 50 103 117c0 74 -46 105 -109 105s-106 -42 -120 -100l-80 27c20 94 97 151 200 151c126 0 193 -59 193 -179c0 -50 -20 -128 -80 -154
v-4c74 -32 86 -107 86 -163c0 -125 -72 -207 -206 -207z" />
    <glyph glyph-name="afii10026" unicode="&#x418;" horiz-adv-x="562" 
d="M144 0h-80v696h83v-525l4 -1l269 526h81v-696h-84v527h-3z" />
    <glyph glyph-name="afii10029" unicode="&#x41b;" horiz-adv-x="543" 
d="M29 -14l-31 67c69 36 101 60 116 239l34 404h328v-696h-83v620h-170l-25 -300c-20 -237 -62 -293 -169 -334z" />
    <glyph glyph-name="afii10030" unicode="&#x41c;" horiz-adv-x="656" 
d="M597 0h-83v486l-4 -1l-55 -134l-96 -215h-57l-97 219l-53 131l-4 -1v-485h-83v696h84l115 -263l66 -161h3l68 163l113 261h83v-696z" />
    <glyph glyph-name="afii10031" unicode="&#x41d;" horiz-adv-x="532" 
d="M467 0h-84v317h-235v-317h-83v696h83v-306h235v306h84v-696z" />
    <glyph glyph-name="afii10032" unicode="&#x41e;" horiz-adv-x="497" 
d="M452 203c0 -128 -84 -209 -204 -209c-147 0 -204 104 -204 221v279c0 94 54 207 204 207c141 0 204 -106 204 -207v-291zM367 195v298c0 42 -24 129 -120 129c-95 0 -121 -80 -121 -131l1 -275c0 -81 34 -145 123 -145c64 0 117 47 117 124z" />
    <glyph glyph-name="afii10033" unicode="&#x41f;" horiz-adv-x="525" 
d="M461 0h-84v623h-229v-623h-83v696h396v-696z" />
    <glyph glyph-name="afii10034" unicode="&#x420;" horiz-adv-x="484" 
d="M466 487c0 -107 -55 -207 -199 -207h-119v-280h-83v696h198c128 0 203 -69 203 -209zM382 488c0 80 -35 130 -121 130h-113v-260h114c93 0 120 64 120 130z" />
    <glyph glyph-name="afii10035" unicode="&#x421;" horiz-adv-x="469" 
d="M367 158l79 -29c-24 -87 -98 -135 -193 -135c-126 0 -203 86 -203 208v292c0 118 74 207 203 207c94 0 168 -49 193 -133l-79 -31c-13 50 -52 84 -114 84c-78 0 -120 -60 -120 -125v-296c0 -66 43 -127 120 -127c60 0 101 33 114 85z" />
    <glyph glyph-name="afii10036" unicode="&#x422;" horiz-adv-x="403" 
d="M402 620h-159v-620h-83v620h-159v76h401v-76z" />
    <glyph glyph-name="afii10037" unicode="&#x423;" horiz-adv-x="454" 
d="M442 695c-58 -179 -115 -359 -172 -538c-43 -144 -91 -159 -150 -161h-57v72h47c28 0 52 16 70 67l9 32c-58 176 -118 352 -176 528h86l75 -236l56 -179h4c12 39 110 370 124 415h84z" />
    <glyph glyph-name="afii10038" unicode="&#x424;" horiz-adv-x="613" 
d="M265 0v56h-1c-163 12 -221 106 -221 305c0 185 69 287 221 300h1v35h83v-35h4c155 -13 221 -115 221 -300c0 -199 -62 -284 -221 -305h-4v-56h-83zM264 128v463c-95 -4 -141 -76 -141 -229c0 -180 54 -228 141 -234zM350 591v-463c87 6 145 49 145 234
c0 156 -50 225 -145 229z" />
    <glyph glyph-name="afii10039" unicode="&#x425;" horiz-adv-x="450" 
d="M446 0h-90l-131 282l-130 -282h-91l177 361l-165 335h91l118 -259l118 259h91l-166 -335z" />
    <glyph glyph-name="afii10040" unicode="&#x426;" horiz-adv-x="557" 
d="M456 -142v142h-391v696h83v-618h233v618h83v-619h70v-219h-78z" />
    <glyph glyph-name="afii10041" unicode="&#x427;" horiz-adv-x="511" 
d="M47 696h82v-204c0 -109 27 -144 117 -144c30 0 79 10 116 36v312h84v-696h-84v312c-41 -23 -91 -34 -135 -34c-119 0 -180 61 -180 209v209z" />
    <glyph glyph-name="afii10042" unicode="&#x428;" horiz-adv-x="758" 
d="M613 696h84v-696h-635v696h83v-617h192v617h83v-617h193v617z" />
    <glyph glyph-name="afii10043" unicode="&#x429;" horiz-adv-x="793" 
d="M689 -142v142h-628v696h83v-618h192v618h83v-618h193v618h84v-619h71v-219h-78z" />
    <glyph glyph-name="afii10044" unicode="&#x42a;" horiz-adv-x="590" 
d="M370 0h-199v619h-159v77h242v-290h114c144 0 204 -83 204 -198c0 -136 -74 -208 -202 -208zM254 328v-250h113c86 0 121 49 121 127c0 65 -29 123 -122 123h-112z" />
    <glyph glyph-name="afii10045" unicode="&#x42b;" horiz-adv-x="677" 
d="M267 0h-199v696h83v-291h114c144 0 204 -82 204 -197c0 -136 -74 -208 -202 -208zM615 0h-84v696h84v-696zM385 205c0 64 -29 123 -122 123h-112v-250h113c86 0 121 49 121 127z" />
    <glyph glyph-name="afii10046" unicode="&#x42c;" horiz-adv-x="483" 
d="M263 0h-200v696h84v-290h113c144 0 205 -83 205 -198c0 -136 -74 -208 -202 -208zM147 328v-250h112c86 0 121 49 121 127c0 65 -29 123 -122 123h-111z" />
    <glyph glyph-name="afii10047" unicode="&#x42d;" horiz-adv-x="471" 
d="M21 136l82 28c12 -59 51 -93 110 -93c93 0 119 75 119 141v107h-201v77h201v87c0 75 -29 140 -116 140c-60 0 -100 -39 -114 -94l-80 28c23 88 92 145 197 145c157 0 196 -110 196 -222v-274c0 -122 -67 -213 -202 -213c-104 0 -170 53 -192 143z" />
    <glyph glyph-name="afii10048" unicode="&#x42e;" horiz-adv-x="658" 
d="M613 193c0 -128 -79 -199 -194 -199c-143 0 -194 94 -194 211v112h-85v-317h-83v696h83v-306h85v113c0 94 51 198 194 198c141 0 194 -97 194 -198v-310zM528 185v317c0 42 -17 120 -109 120c-87 0 -112 -69 -112 -120l1 -296c0 -81 31 -135 113 -135
c59 0 107 37 107 114z" />
    <glyph glyph-name="afii10065" unicode="&#x430;" horiz-adv-x="426" 
d="M299 36l-4 2c-23 -29 -65 -44 -117 -44c-97 0 -142 67 -142 145c0 88 52 153 172 153h91v61c0 45 -31 72 -89 72c-38 0 -76 -12 -91 -47c-21 12 -42 25 -63 38c26 54 86 85 154 85c94 0 171 -35 171 -149v-352h-82v36zM299 155v68h-97c-52 0 -89 -24 -89 -79
c0 -44 29 -74 89 -74c56 0 97 23 97 85z" />
    <glyph glyph-name="afii10070" unicode="&#x435;" horiz-adv-x="424" 
d="M306 124l66 -35c-27 -58 -83 -95 -149 -95c-133 0 -186 72 -186 253c0 126 33 254 175 254c111 0 173 -77 173 -201v-77h-267c0 -87 17 -156 102 -156c36 0 68 27 86 57zM305 288c0 90 -33 137 -92 137c-69 0 -90 -53 -93 -137h185z" />
    <glyph glyph-name="afii10080" unicode="&#x43e;" horiz-adv-x="438" 
d="M222 501c78 0 120 -35 147 -82c18 -31 26 -110 26 -172c0 -36 -6 -117 -17 -150c-25 -78 -96 -104 -167 -104c-76 0 -124 36 -148 86c-17 36 -23 100 -23 165c0 62 5 124 20 160c26 60 82 97 162 97zM220 428c-38 0 -72 -19 -86 -56c-9 -25 -14 -75 -14 -137
c0 -44 1 -85 11 -111c14 -36 43 -57 85 -57c41 0 74 19 89 63c7 19 9 68 9 122c0 47 -2 92 -10 116c-14 40 -45 60 -84 60z" />
    <glyph glyph-name="afii10081" unicode="&#x43f;" horiz-adv-x="458" 
d="M401 0h-81v423h-181v-423h-81v495h343v-495z" />
    <glyph glyph-name="afii10082" unicode="&#x440;" horiz-adv-x="432" 
d="M127 448c29 37 67 53 113 53c130 0 149 -118 149 -252c0 -124 -23 -254 -157 -254c-40 0 -76 16 -105 49h-2v-244h-81v695h81v-46c1 0 1 -1 2 -1zM214 75c82 0 93 80 93 172c0 95 -10 177 -92 177c-97 0 -91 -111 -91 -189c0 -71 7 -160 90 -160z" />
    <glyph glyph-name="afii10083" unicode="&#x441;" horiz-adv-x="385" 
d="M301 121c22 -13 45 -24 68 -37c-26 -55 -81 -90 -152 -90c-148 0 -186 106 -186 264c0 148 58 243 186 243c72 0 125 -36 151 -91l-66 -41c-15 34 -45 55 -84 55c-89 0 -106 -73 -106 -168c0 -96 18 -186 105 -186c40 0 70 24 84 51z" />
    <glyph glyph-name="afii10085" unicode="&#x443;" horiz-adv-x="389" 
d="M386 495l-178 -594c-21 -70 -67 -103 -129 -103h-26v70h24c32 0 53 24 64 71l21 73l-159 483h86l61 -198l47 -167h3l44 167l58 198h84z" />
    <glyph glyph-name="afii10087" unicode="&#x445;" horiz-adv-x="394" 
d="M386 0h-91l-97 190l-98 -190h-91l145 254l-138 241h91l91 -181l90 181h91l-138 -242z" />
    <glyph glyph-name="afii10071" unicode="&#x451;" horiz-adv-x="424" 
d="M306 124l66 -35c-27 -58 -83 -95 -149 -95c-133 0 -186 72 -186 253c0 126 33 254 175 254c111 0 173 -77 173 -201v-77h-267c0 -87 17 -156 102 -156c36 0 68 27 86 57zM305 288c0 90 -33 137 -92 137c-69 0 -90 -53 -93 -137h185zM338 600h-78v84h78v-84zM172 600h-79
v84h79v-84z" />
    <glyph glyph-name="afii10102" unicode="&#x455;" horiz-adv-x="405" 
d="M27 98l66 38c21 -43 56 -68 109 -68c55 0 89 22 89 74c0 50 -39 61 -93 76c-96 25 -158 57 -158 142c0 87 62 141 161 141c89 0 136 -36 159 -95l-63 -39c-19 39 -52 60 -97 60c-59 0 -80 -32 -80 -67c0 -45 53 -55 112 -72c93 -22 139 -58 139 -148
c0 -89 -64 -147 -171 -147c-85 0 -142 37 -173 105z" />
    <glyph glyph-name="afii10103" unicode="&#x456;" horiz-adv-x="197" 
d="M139 615h-81v81h81v-81zM139 0h-81v495h81v-495z" />
    <glyph glyph-name="afii10104" unicode="&#x457;" horiz-adv-x="197" 
d="M221 593h-78v84h78v-84zM55 593h-79v84h79v-84zM139 0h-81v495h81v-495z" />
    <glyph glyph-name="afii10105" unicode="&#x458;" horiz-adv-x="210" 
d="M146 615h-81v81h81v-81zM146 495v-568c0 -74 -44 -132 -131 -132h-27v75c2 0 18 -1 19 0c41 1 58 28 58 75v550h81z" />
    <glyph glyph-name="afii10110" unicode="&#x45e;" horiz-adv-x="384" 
d="M384 495l-178 -594c-21 -70 -67 -103 -129 -103h-26v70h24c32 0 53 24 64 71l21 73l-159 483h86l61 -198l47 -167h3l44 167l58 198h84zM266 699l66 -10c-8 -51 -41 -116 -136 -116c-97 0 -132 65 -137 116l68 10c2 -27 28 -63 69 -63c45 0 70 36 70 63z" />
    <glyph glyph-name="afii10050" unicode="&#x490;" horiz-adv-x="441" 
d="M425 813l1 -195h-278v-618h-83v696h284l-1 117h77z" />
    <glyph glyph-name="afii10067" unicode="&#x432;" horiz-adv-x="426" 
d="M394 148c0 -108 -77 -148 -176 -148h-166v495h170c110 0 163 -55 163 -136c0 -42 -17 -77 -59 -100h1c49 -19 67 -62 67 -111zM224 224h-90v-149h84c60 0 95 26 95 76c0 42 -24 73 -89 73zM216 424h-82v-135h81c59 0 89 13 89 69c0 41 -27 66 -88 66z" />
    <glyph glyph-name="afii10068" unicode="&#x433;" horiz-adv-x="372" 
d="M360 424h-227v-424h-81v495h308v-71z" />
    <glyph glyph-name="afii10069" unicode="&#x434;" horiz-adv-x="531" 
d="M152 494h294v-418h65v-202h-76v126h-341v-126h-77v203h64c34 58 44 108 55 233zM364 423h-141l-15 -157c-6 -65 -19 -135 -42 -190h198v347z" />
    <glyph glyph-name="afii10074" unicode="&#x438;" horiz-adv-x="497" 
d="M353 344h-4l-77 -126l-135 -218h-77v494h83v-353h2l74 123l140 230h78v-494h-84v344z" />
    <glyph glyph-name="afii10077" unicode="&#x43b;" horiz-adv-x="449" 
d="M29 -15c-10 21 -18 43 -28 65c55 29 76 51 85 155l25 290h286v-495h-82v424h-133l-20 -223c-13 -141 -50 -189 -133 -216z" />
    <glyph glyph-name="afii10078" unicode="&#x43c;" horiz-adv-x="554" 
d="M505 0h-82v325h-1c-13 -28 -26 -56 -40 -83c-26 -50 -52 -99 -77 -149h-52l-66 127l-51 101h-1v-321h-82v495h79l81 -157c23 -45 43 -88 67 -132h1l65 132l81 157h78v-495z" />
    <glyph glyph-name="afii10079" unicode="&#x43d;" horiz-adv-x="447" 
d="M395 0h-82v218h-179v-218h-82v495h82v-210h179v210h82v-495z" />
    <glyph glyph-name="afii10084" unicode="&#x442;" horiz-adv-x="350" 
d="M345 424h-131v-424h-80v424h-129v70h340v-70z" />
    <glyph glyph-name="afii10086" unicode="&#x444;" horiz-adv-x="531" 
d="M225 -196v187c-72 4 -128 30 -156 75c-26 43 -32 105 -32 178c0 61 3 115 21 156c26 62 87 100 167 102v204h80l1 -204c79 -2 136 -36 162 -93c20 -43 24 -100 24 -166c0 -72 -5 -132 -33 -174c-30 -48 -86 -73 -153 -78l-1 -187h-80zM224 66l1 359
c-43 -2 -80 -21 -95 -57c-11 -26 -13 -78 -13 -133c0 -45 2 -90 13 -114c16 -33 52 -53 94 -55zM305 425v-359c44 2 82 23 97 65c10 25 10 63 10 104c0 55 -1 104 -11 131c-15 39 -52 57 -96 59z" />
    <glyph glyph-name="afii10088" unicode="&#x446;" horiz-adv-x="476" 
d="M314 495h81v-420h64v-201h-77v126h-329v495h82v-420h179v420z" />
    <glyph glyph-name="afii10089" unicode="&#x447;" horiz-adv-x="419" 
d="M292 0v213h-1c-39 -23 -84 -35 -122 -35c-93 0 -139 49 -139 169v148h81v-159c0 -61 28 -83 78 -83c25 0 71 10 104 32v210h80v-495h-81z" />
    <glyph glyph-name="afii10090" unicode="&#x448;" horiz-adv-x="667" 
d="M533 495h80v-495h-559v495h81v-419h158v419h80v-419h160v419z" />
    <glyph glyph-name="afii10091" unicode="&#x449;" horiz-adv-x="703" 
d="M532 495h80v-420h65v-201h-76v126h-547v495h80v-420h158v420h81v-420h159v420z" />
    <glyph glyph-name="afii10092" unicode="&#x44a;" horiz-adv-x="502" 
d="M225 231v-156h90c66 0 88 36 88 79c0 39 -20 76 -89 76zM318 0h-176v424h-130v71h213v-190h91c126 0 169 -68 169 -150c0 -94 -47 -155 -167 -155z" />
    <glyph glyph-name="afii10093" unicode="&#x44b;" horiz-adv-x="580" 
d="M525 0h-83v495h83v-495zM132 231v-156h90c67 0 88 36 88 79c0 39 -19 76 -89 76zM226 0h-176v495h83v-190h91c125 0 168 -68 168 -150c0 -94 -46 -155 -166 -155z" />
    <glyph glyph-name="afii10094" unicode="&#x44c;" horiz-adv-x="407" 
d="M134 231v-156h90c67 0 88 36 88 79c0 39 -19 76 -89 76zM228 0h-176v495h83v-190h91c125 0 168 -68 168 -150c0 -94 -46 -155 -166 -155z" />
    <glyph glyph-name="afii10095" unicode="&#x44d;" horiz-adv-x="385" 
d="M8 84l68 37c14 -27 47 -51 87 -51c77 0 100 70 104 153h-176v65h176c-4 79 -26 136 -105 136c-35 0 -70 -21 -85 -55l-66 41c26 55 88 91 155 91c128 0 185 -100 183 -246c-2 -149 -42 -261 -190 -261c-71 0 -125 35 -151 90z" />
    <glyph glyph-name="afii10096" unicode="&#x44e;" horiz-adv-x="586" 
d="M542 169c-4 -113 -67 -175 -168 -175c-95 0 -157 54 -167 142c-2 23 -3 47 -3 71v10h-59v-217h-84v494h84v-208h59c0 23 1 46 3 67c9 86 75 147 169 147c90 0 152 -50 163 -138c3 -24 4 -51 4 -76zM375 426c-49 0 -82 -33 -89 -75c-3 -16 -4 -32 -4 -49v-88
c0 -24 1 -48 4 -72c6 -42 40 -74 89 -74c55 0 87 42 87 99v147c0 60 -18 112 -87 112z" />
    <glyph glyph-name="afii10101" unicode="&#x454;" horiz-adv-x="385" 
d="M301 121c22 -13 45 -24 68 -37c-26 -55 -81 -90 -152 -90c-148 0 -186 106 -186 264c0 148 58 243 186 243c72 0 125 -36 151 -91l-66 -41c-15 34 -45 55 -84 55c-79 0 -101 -57 -105 -136h176v-65h-176c4 -83 27 -153 104 -153c40 0 70 24 84 51z" />
    <glyph glyph-name="afii10098" unicode="&#x491;" horiz-adv-x="372" 
d="M360 602v-178h-226v-424h-82v495h234v107h74z" />
    <glyph glyph-name="afii10106" unicode="&#x459;" horiz-adv-x="644" 
d="M283 424h-101l-20 -223c-13 -141 -50 -189 -133 -216c-10 21 -18 43 -28 65c55 29 76 51 85 155l25 290h255v-190h91c125 0 168 -68 168 -150c0 -93 -46 -155 -166 -155h-176v424zM543 154c0 39 -19 76 -89 76h-89v-154h90c67 0 88 34 88 78z" />
    <glyph glyph-name="afii10107" unicode="&#x45a;" horiz-adv-x="661" 
d="M380 225v-150h90c67 0 88 36 88 79c0 38 -19 71 -89 71h-89zM474 0h-176v226h-161v-226h-82v495h82v-194h161v194h83v-194h91c125 0 168 -66 168 -146c0 -94 -46 -155 -166 -155z" />
    <glyph glyph-name="afii10073" unicode="&#x437;" horiz-adv-x="398" 
d="M289 259c54 -27 67 -62 67 -113c0 -96 -67 -151 -175 -151c-80 0 -142 27 -167 93l66 35c13 -37 52 -55 101 -55c53 0 93 26 93 80c0 47 -31 75 -77 75h-60v68h61c49 0 71 26 71 68c0 40 -29 66 -79 66c-47 0 -84 -16 -100 -54l-63 37c24 60 87 92 160 92
c112 0 163 -54 163 -135c0 -40 -16 -88 -61 -106z" />
    <glyph glyph-name="afii10108" unicode="&#x45b;" horiz-adv-x="438" 
d="M390 0h-81v323c0 60 -30 97 -90 97c-55 0 -92 -37 -92 -99v-321h-80v583h-47v62h47v81h81v-81h152v-62h-152v-144h3c28 39 71 61 119 61c79 0 140 -55 140 -150v-350z" />
    <glyph glyph-name="afii10099" unicode="&#x452;" horiz-adv-x="467" 
d="M140 434h3c28 39 71 60 122 60c62 0 117 -32 136 -92c14 -35 18 -98 18 -160c0 -54 -7 -117 -24 -155c-24 -54 -70 -95 -156 -95c-9 0 -13 1 -23 2v71c7 -1 14 -1 20 -1c41 0 66 19 82 49c14 28 19 73 19 119c0 67 -1 117 -21 147c-14 23 -37 37 -76 37
c-79 0 -100 -74 -100 -139v-277h-80v573h-54v64h54v89h80v-89h153v-64h-153v-139z" />
    <glyph glyph-name="afii10066" unicode="&#x431;" horiz-adv-x="438" 
d="M222 409c-37 0 -66 -17 -81 -48c-15 -29 -18 -77 -18 -135c0 -44 1 -77 11 -103c15 -36 41 -56 87 -56c41 0 74 23 88 67c6 19 8 56 8 102c0 40 -4 93 -10 113c-14 37 -37 60 -85 60zM236 482c69 0 110 -28 135 -76c21 -40 26 -111 26 -178c0 -52 -3 -85 -16 -124
c-27 -84 -99 -111 -166 -111c-76 0 -124 36 -148 85c-17 36 -26 95 -25 190c1 44 4 115 6 125c10 159 54 232 152 274c44 20 85 33 153 60l27 -59c-66 -32 -91 -38 -136 -59c-81 -38 -115 -90 -120 -178c1 0 2 0 2 -1c31 37 76 52 110 52z" />
    <glyph glyph-name="afii10193" unicode="&#x45f;" horiz-adv-x="448" 
d="M315 495h80v-495h-129v-139h-84v139h-129v495h82v-419h180v419z" />
    <glyph glyph-name="zero.text" unicode="&#xe000;" horiz-adv-x="446" 
d="M388 159c0 -107 -80 -165 -168 -165s-167 58 -167 165v377c0 106 79 166 167 166s168 -60 168 -166v-377zM307 159v377c0 55 -35 88 -87 88s-87 -33 -87 -88v-377c0 -55 35 -87 87 -87s87 32 87 87z" />
    <glyph glyph-name="one.text" unicode="&#xe001;" horiz-adv-x="294" 
d="M210 696v-696h-81v611l-96 -73l1 86l94 72h82z" />
    <glyph glyph-name="two.text" unicode="&#xe002;" horiz-adv-x="462" 
d="M223 625c-53 -1 -84 -42 -88 -114l-82 13c8 108 71 177 172 177c105 0 169 -60 169 -165c0 -48 -17 -101 -47 -148l-199 -311h238v-77h-334v75l225 352c22 34 30 79 30 108c0 45 -20 90 -84 90z" />
    <glyph glyph-name="three.text" unicode="&#xe003;" horiz-adv-x="441" 
d="M29 146l81 16c8 -55 27 -92 86 -92c67 0 93 55 93 127c0 85 -30 130 -95 130h-41v70h37c66 0 95 38 95 110c0 60 -20 118 -87 118c-62 0 -77 -44 -84 -94l-80 13c12 89 63 158 163 158c135 0 169 -87 169 -193c0 -53 -14 -121 -77 -145c71 -17 81 -80 81 -160
c0 -120 -45 -210 -178 -210c-83 0 -154 51 -163 152z" />
    <glyph glyph-name="four.text" unicode="&#xe004;" horiz-adv-x="451" 
d="M413 106h-53v-106h-80v106h-254v78l193 512h84l-194 -514h171v199h80v-199h53v-76z" />
    <glyph glyph-name="five.text" unicode="&#xe005;" horiz-adv-x="446" 
d="M244 457c129 0 143 -105 143 -211c0 -162 -33 -252 -173 -252c-101 0 -157 52 -170 155l81 13c6 -61 31 -95 90 -95c89 0 91 93 91 174c0 69 -6 144 -85 144c-37 0 -64 -20 -81 -50h-75v361h316v-75h-243l3 -202c32 30 67 38 103 38z" />
    <glyph glyph-name="six.text" unicode="&#xe006;" horiz-adv-x="451" 
d="M216 332c-80 0 -90 -78 -90 -137c0 -74 17 -126 87 -126c57 0 89 38 89 130c-1 68 -13 133 -86 133zM315 696l-138 -305l3 -1c15 9 39 14 59 14c107 0 145 -101 145 -192c0 -128 -48 -218 -173 -218c-116 0 -164 72 -164 199c0 77 13 133 40 191c43 96 126 276 142 312
h86z" />
    <glyph glyph-name="seven.text" unicode="&#xe007;" horiz-adv-x="386" 
d="M354 621l-210 -621h-84l209 620h-178v-94h-75v170h338v-75z" />
    <glyph glyph-name="eight.text" unicode="&#xe008;" horiz-adv-x="435" 
d="M395 194c0 -149 -88 -200 -175 -200c-93 0 -175 51 -175 200c0 88 25 143 77 168c-59 35 -70 78 -70 151c0 131 79 189 168 189c93 0 168 -57 168 -189c0 -73 -19 -118 -66 -151c57 -27 73 -85 73 -168zM220 625c-61 0 -87 -40 -87 -117s30 -113 87 -113s87 36 87 118
c0 72 -26 112 -87 112zM220 330c-56 0 -94 -36 -94 -130c0 -98 42 -131 94 -131c65 0 92 41 92 133s-33 128 -92 128z" />
    <glyph glyph-name="nine.text" unicode="&#xe009;" horiz-adv-x="424" 
d="M212 627c-57 0 -90 -36 -90 -128c0 -70 15 -135 94 -135c67 0 82 62 82 134c0 74 -16 129 -86 129zM109 0l138 305l-3 1c-15 -9 -38 -13 -58 -13c-107 0 -146 100 -146 191c0 128 51 218 176 218c116 0 163 -72 163 -199c1 -77 -15 -133 -42 -191
c-12 -26 -138 -302 -142 -312h-86z" />
    <glyph glyph-name="numbersign.text" unicode="&#xe00a;" horiz-adv-x="473" 
d="M28 220v55h86l24 151h-77v55h86l35 216h57l-35 -216h100l35 216h57l-36 -216h81v-55h-90l-24 -151h81v-55h-90l-35 -220h-57l35 220h-100l-35 -220h-57l36 220h-77zM195 426l-25 -151h100l25 151h-100z" />
    <glyph glyph-name="dollar.text" unicode="&#xe00b;" horiz-adv-x="455" 
d="M208 -105v100c-85 5 -145 56 -173 118l66 41c19 -41 53 -76 107 -83v247c-109 41 -161 92 -161 189c0 103 59 179 161 188v81h44v-81c83 -6 137 -55 158 -104l-67 -44c-17 39 -47 65 -91 71v-229c125 -29 163 -96 163 -200c0 -112 -56 -186 -163 -194v-100h-44zM333 188
c0 68 -28 93 -81 115v-231c61 9 81 55 81 116zM130 506c0 -50 27 -78 78 -101v214c-53 -9 -78 -55 -78 -113z" />
    <glyph glyph-name="euro.text" unicode="&#xe00c;" horiz-adv-x="483" 
d="M341 378h-177v-59h177v-52h-177v-77c0 -63 36 -120 109 -120c59 0 91 35 110 87l75 -23c-23 -88 -94 -140 -185 -140c-119 0 -192 82 -192 205v68h-39v52h39v59h-39v51h39v69c0 118 71 203 192 203c90 0 163 -51 185 -139l-80 -23c-14 47 -47 85 -105 85
c-77 0 -109 -59 -109 -124v-71h177v-51z" />
    <glyph glyph-name="florin.text" unicode="&#xe00d;" horiz-adv-x="409" 
d="M72 350v69h88l11 81c12 92 47 198 165 198c26 0 53 -5 71 -13c-6 -26 -12 -47 -17 -73c-17 7 -41 10 -58 10c-54 0 -74 -53 -82 -117l-12 -86h94v-69h-103l-31 -236c-15 -127 -51 -204 -149 -204c-25 0 -60 7 -85 18c8 27 14 39 23 64c20 -8 38 -11 53 -11
c50 0 68 49 79 132l31 237h-78z" />
    <glyph glyph-name="sterling.text" unicode="&#xe00e;" horiz-adv-x="451" 
d="M50 298v66h61c-13 68 -40 109 -40 170c0 94 64 167 166 167c84 0 156 -37 189 -131l-76 -29c-29 66 -65 83 -110 83c-41 0 -81 -33 -81 -92c0 -50 27 -101 38 -168h127v-66h-121c0 -88 -17 -152 -56 -223h262v-75h-360v67c38 61 67 120 72 199l2 32h-73z" />
    <glyph glyph-name="cent.text" unicode="&#xe00f;" horiz-adv-x="411" 
d="M228 -117h-45v114c-118 16 -150 116 -150 261c0 133 47 223 150 240v103h45v-100c67 -3 117 -39 142 -91l-66 -41c-14 31 -41 52 -76 55v-354c35 4 62 26 75 51c22 -13 45 -24 68 -37c-25 -53 -77 -87 -143 -90v-111zM114 256c0 -81 13 -158 69 -180v342
c-57 -18 -69 -82 -69 -162z" />
    <glyph glyph-name="yen.text" unicode="&#xe010;" horiz-adv-x="442" 
d="M417 696l-135 -349h111v-51h-130l-5 -15v-64h135v-52h-135v-165h-76v165h-134v52h134v63l-5 16h-129v51h109l-137 349h82c39 -105 77 -210 115 -315h4c38 105 76 210 113 315h83z" />
    <glyph glyph-name="zero.taboldstyle" unicode="&#xe024;" horiz-adv-x="440" 
d="M387 159c0 -107 -80 -165 -168 -165s-167 58 -167 165v177c0 106 79 166 167 166s168 -60 168 -166v-177zM306 159v177c0 55 -35 88 -87 88s-87 -33 -87 -88v-177c0 -55 35 -87 87 -87s87 32 87 87z" />
    <glyph glyph-name="one.taboldstyle" unicode="&#xe025;" horiz-adv-x="440" 
d="M67 0v69h120v341l-96 -73l1 86l94 72h82v-426h124v-69h-325z" />
    <glyph glyph-name="two.taboldstyle" unicode="&#xe026;" horiz-adv-x="440" 
d="M131 338l-81 15c15 91 76 149 171 149c101 0 162 -55 162 -149c0 -41 -28 -97 -78 -142l-145 -137h230v-74h-341v72l207 197c27 25 40 59 40 82c0 40 -22 75 -77 75c-48 0 -80 -34 -88 -88z" />
    <glyph glyph-name="three.taboldstyle" unicode="&#xe027;" horiz-adv-x="440" 
d="M36 -19l81 15c8 -51 26 -85 82 -85c64 0 88 50 88 116c0 78 -28 119 -90 119h-42v70h38c63 0 90 35 90 101c0 55 -20 109 -83 109c-58 0 -72 -42 -79 -89l-81 12c12 86 62 152 159 152c132 0 165 -82 165 -183c0 -45 -18 -108 -69 -135c64 -19 73 -77 73 -149
c0 -113 -43 -199 -173 -199c-81 0 -151 49 -159 146z" />
    <glyph glyph-name="four.taboldstyle" unicode="&#xe028;" horiz-adv-x="440" 
d="M411 1h-59v-159h-80v159h-238v76l183 419h87l-184 -420h152v186h80v-186h59v-75z" />
    <glyph glyph-name="five.taboldstyle" unicode="&#xe029;" horiz-adv-x="440" 
d="M248 275c126 0 139 -100 139 -200c0 -152 -35 -238 -171 -238c-98 0 -150 50 -163 149l81 12c6 -57 29 -88 86 -88c84 0 86 85 86 161c0 62 -6 132 -81 132c-35 0 -61 -19 -77 -47h-75v341h309v-73h-232v-183c31 26 65 34 98 34z" />
    <glyph glyph-name="six.taboldstyle" unicode="&#xe02a;" horiz-adv-x="440" 
d="M319 654l-129 -282c14 6 33 10 51 10c118 0 144 -91 144 -176c0 -27 -2 -54 -4 -79c-12 -91 -86 -133 -164 -133c-86 0 -147 46 -159 132c-2 27 -3 55 -3 84c0 49 16 100 40 152l137 292h87zM221 310c-75 0 -85 -62 -85 -123c0 -69 17 -118 82 -118c55 0 85 30 85 112
c0 65 -6 128 -82 129z" />
    <glyph glyph-name="seven.taboldstyle" unicode="&#xe02b;" horiz-adv-x="440" 
d="M377 424l-202 -582h-86l202 580h-167v-89h-77v163h330v-72z" />
    <glyph glyph-name="eight.taboldstyle" unicode="&#xe02c;" horiz-adv-x="440" 
d="M390 183c0 -140 -85 -189 -171 -189c-90 0 -170 49 -170 189c0 82 21 134 71 157c-56 34 -65 74 -65 141c0 124 77 179 164 179c91 0 164 -54 164 -179c0 -65 -20 -110 -62 -141c55 -25 69 -79 69 -157zM219 308c-53 0 -88 -33 -88 -119c0 -91 39 -120 88 -120
c62 0 88 36 88 122c0 84 -31 117 -88 117zM219 585c-58 0 -82 -37 -82 -108s28 -104 82 -104c55 0 83 33 83 108c0 67 -24 104 -83 104z" />
    <glyph glyph-name="nine.taboldstyle" unicode="&#xe02d;" horiz-adv-x="440" 
d="M52 266c0 35 -1 68 3 100c10 92 85 135 164 135c80 0 152 -46 161 -124c2 -19 3 -44 3 -65c0 -59 -5 -98 -37 -167l-142 -304h-87l136 289c-14 -8 -40 -15 -60 -15c-92 0 -141 65 -141 151zM132 269c0 -55 37 -86 84 -86c44 0 70 31 80 68c3 14 4 31 4 47
c0 23 0 48 -4 69c-7 37 -33 60 -82 60c-43 0 -79 -32 -79 -73c-2 -27 -3 -58 -3 -85z" />
    <glyph glyph-name="numbersign.taboldstyle" unicode="&#xe02e;" horiz-adv-x="440" 
d="M33 186v49h77l22 126h-69v49h77l32 182h52l-31 -182h87l32 182h53l-32 -182h73v-49h-81l-22 -126h73v-49h-81l-32 -186h-53l32 186h-87l-32 -186h-53l32 186h-69zM185 361l-22 -126h87l22 126h-87z" />
    <glyph glyph-name="dollar.taboldstyle" unicode="&#xe02f;" horiz-adv-x="440" 
d="M202 -88v84c-74 5 -128 49 -156 103l65 38c16 -32 46 -63 91 -71v201c-90 36 -144 84 -144 164c0 86 56 150 144 161v68h46v-68c72 -6 123 -50 142 -93l-65 -40c-17 33 -41 57 -77 62v-187c102 -26 146 -85 146 -171c0 -92 -51 -156 -146 -167v-84h-46zM316 162
c0 54 -25 74 -68 93v-188c48 9 68 46 68 95zM136 430c0 -36 29 -62 66 -81v173c-47 -9 -66 -48 -66 -92z" />
    <glyph glyph-name="euro.taboldstyle" unicode="&#xe030;" horiz-adv-x="440" 
d="M304 318h-160v-44h160v-49h-160v-61c0 -52 32 -98 96 -98c51 0 78 28 96 73l72 -20c-20 -78 -87 -124 -168 -124c-110 0 -175 71 -175 176v54h-34v49h34v44h-34v50h34v55c0 102 65 174 175 174c81 0 149 -45 168 -122l-78 -21c-13 40 -40 71 -90 71
c-68 0 -96 -48 -96 -100v-57h160v-50z" />
    <glyph glyph-name="florin.taboldstyle" unicode="&#xe031;" horiz-adv-x="440" 
d="M110 311v65h85l11 76c11 87 45 187 160 187c25 0 51 -5 69 -13l-17 -71c-16 6 -38 9 -54 9c-52 0 -72 -47 -80 -107l-11 -81h91v-65h-100l-30 -221c-15 -120 -51 -192 -147 -192c-24 0 -58 6 -82 17l24 63c20 -8 37 -10 52 -10c48 0 64 43 74 121l30 222h-75z" />
    <glyph glyph-name="sterling.taboldstyle" unicode="&#xe032;" horiz-adv-x="440" 
d="M49 251v61h55c-12 50 -36 91 -36 141c0 81 67 144 155 144c74 0 132 -25 169 -108l-73 -34c-25 57 -58 69 -96 69c-32 0 -71 -25 -71 -73c0 -37 21 -82 34 -139h114v-61h-108c-1 -68 -16 -127 -47 -181h231v-70h-328v62c37 57 67 116 67 189h-66z" />
    <glyph glyph-name="cent.taboldstyle" unicode="&#xe033;" horiz-adv-x="440" 
d="M248 -50h-46v95c-106 15 -137 102 -137 223c0 113 44 192 137 207v86h46v-85c58 -5 102 -36 125 -81l-64 -38c-13 26 -35 44 -61 47v-289c26 4 49 25 60 44l66 -36c-23 -45 -67 -74 -126 -79v-94zM143 267c0 -66 12 -129 59 -148v281c-48 -16 -59 -70 -59 -133z" />
    <glyph glyph-name="yen.taboldstyle" unicode="&#xe034;" horiz-adv-x="440" 
d="M320 593h81l-120 -295h98v-48h-117l-4 -10v-52h121v-49h-121v-139h-74v139h-120v49h120v51l-4 11h-116v48h96l-121 295h80l101 -265z" />
    <glyph glyph-name="zero.textoldstyle" unicode="&#xe048;" horiz-adv-x="440" 
d="M387 159c0 -107 -80 -165 -168 -165s-167 58 -167 165v177c0 106 79 166 167 166s168 -60 168 -166v-177zM306 159v177c0 55 -35 88 -87 88s-87 -33 -87 -88v-177c0 -55 35 -87 87 -87s87 32 87 87z" />
    <glyph glyph-name="one.textoldstyle" unicode="&#xe049;" horiz-adv-x="394" 
d="M47 0v69h120v341l-96 -73l1 86l94 72h82v-426h124v-69h-325z" />
    <glyph glyph-name="two.textoldstyle" unicode="&#xe04a;" horiz-adv-x="424" 
d="M116 338l-81 15c15 91 76 149 171 149c101 0 162 -55 162 -149c0 -41 -28 -97 -78 -142l-145 -137h230v-74h-341v72l207 197c27 25 40 59 40 82c0 40 -22 75 -77 75c-48 0 -80 -34 -88 -88z" />
    <glyph glyph-name="three.textoldstyle" unicode="&#xe04b;" horiz-adv-x="424" 
d="M20 -19l81 15c8 -51 26 -85 82 -85c64 0 88 50 88 116c0 78 -28 119 -90 119h-42v70h38c63 0 90 35 90 101c0 55 -20 109 -83 109c-58 0 -72 -42 -79 -89l-81 12c12 86 62 152 159 152c132 0 165 -82 165 -183c0 -45 -18 -108 -69 -135c64 -19 73 -77 73 -149
c0 -113 -43 -199 -173 -199c-81 0 -151 49 -159 146z" />
    <glyph glyph-name="four.textoldstyle" unicode="&#xe04c;" horiz-adv-x="428" 
d="M401 1h-59v-159h-80v159h-238v76l183 419h87l-184 -420h152v186h80v-186h59v-75z" />
    <glyph glyph-name="five.textoldstyle" unicode="&#xe04d;" horiz-adv-x="420" 
d="M238 275c126 0 139 -100 139 -200c0 -152 -35 -238 -171 -238c-98 0 -150 50 -163 149l81 12c6 -57 29 -88 86 -88c84 0 86 85 86 161c0 62 -6 132 -81 132c-35 0 -61 -19 -77 -47h-75v341h309v-73h-232v-183c31 26 65 34 98 34z" />
    <glyph glyph-name="six.textoldstyle" unicode="&#xe04e;" horiz-adv-x="440" 
d="M322 654l-129 -282c14 6 33 10 51 10c118 0 144 -91 144 -176c0 -27 -2 -54 -4 -79c-12 -91 -86 -133 -164 -133c-86 0 -147 46 -159 132c-2 27 -3 55 -3 84c0 49 16 100 40 152l137 292h87zM224 310c-75 0 -85 -62 -85 -123c0 -69 17 -118 82 -118c55 0 85 30 85 112
c0 65 -6 128 -82 129z" />
    <glyph glyph-name="seven.textoldstyle" unicode="&#xe04f;" horiz-adv-x="386" 
d="M357 424l-202 -582h-86l202 580h-167v-89h-77v163h330v-72z" />
    <glyph glyph-name="eight.textoldstyle" unicode="&#xe050;" horiz-adv-x="440" 
d="M390 183c0 -140 -85 -189 -171 -189c-90 0 -170 49 -170 189c0 82 21 134 71 157c-56 34 -65 74 -65 141c0 124 77 179 164 179c91 0 164 -54 164 -179c0 -65 -20 -110 -62 -141c55 -25 69 -79 69 -157zM219 308c-53 0 -88 -33 -88 -119c0 -91 39 -120 88 -120
c62 0 88 36 88 122c0 84 -31 117 -88 117zM219 585c-58 0 -82 -37 -82 -108s28 -104 82 -104c55 0 83 33 83 108c0 67 -24 104 -83 104z" />
    <glyph glyph-name="nine.textoldstyle" unicode="&#xe051;" horiz-adv-x="428" 
d="M42 266c0 35 -1 68 3 100c10 92 85 135 164 135c80 0 152 -46 161 -124c2 -19 3 -44 3 -65c0 -59 -5 -98 -37 -167l-142 -304h-87l136 289c-14 -8 -40 -15 -60 -15c-92 0 -141 65 -141 151zM122 269c0 -55 37 -86 84 -86c44 0 70 31 80 68c3 14 4 31 4 47
c0 23 0 48 -4 69c-7 37 -33 60 -82 60c-43 0 -79 -32 -79 -73c-2 -27 -3 -58 -3 -85z" />
    <glyph glyph-name="numbersign.textoldstyle" unicode="&#xe052;" horiz-adv-x="440" 
d="M33 186v49h77l22 126h-69v49h77l32 182h52l-31 -182h87l32 182h53l-32 -182h73v-49h-81l-22 -126h73v-49h-81l-32 -186h-53l32 186h-87l-32 -186h-53l32 186h-69zM185 361l-22 -126h87l22 126h-87z" />
    <glyph glyph-name="dollar.textoldstyle" unicode="&#xe053;" horiz-adv-x="440" 
d="M202 -88v84c-74 5 -128 49 -156 103l65 38c16 -32 46 -63 91 -71v201c-90 36 -144 84 -144 164c0 86 56 150 144 161v68h46v-68c72 -6 123 -50 142 -93l-65 -40c-17 33 -41 57 -77 62v-187c102 -26 146 -85 146 -171c0 -92 -51 -156 -146 -167v-84h-46zM316 162
c0 54 -25 74 -68 93v-188c48 9 68 46 68 95zM136 430c0 -36 29 -62 66 -81v173c-47 -9 -66 -48 -66 -92z" />
    <glyph glyph-name="euro.textoldstyle" unicode="&#xe054;" horiz-adv-x="440" 
d="M304 318h-160v-44h160v-49h-160v-61c0 -52 32 -98 96 -98c51 0 78 28 96 73l72 -20c-20 -78 -87 -124 -168 -124c-110 0 -175 71 -175 176v54h-34v49h34v44h-34v50h34v55c0 102 65 174 175 174c81 0 149 -45 168 -122l-78 -21c-13 40 -40 71 -90 71
c-68 0 -96 -48 -96 -100v-57h160v-50z" />
    <glyph glyph-name="florin.textoldstyle" unicode="&#xe055;" horiz-adv-x="386" 
d="M80 311v65h85l11 76c11 87 45 187 160 187c25 0 51 -5 69 -13l-17 -71c-16 6 -38 9 -54 9c-52 0 -72 -47 -80 -107l-11 -81h91v-65h-100l-30 -221c-15 -120 -51 -192 -147 -192c-24 0 -58 6 -82 17l24 63c20 -8 37 -10 52 -10c48 0 64 43 74 121l30 222h-75z" />
    <glyph glyph-name="sterling.textoldstyle" unicode="&#xe056;" horiz-adv-x="411" 
d="M49 251v61h55c-12 50 -36 91 -36 141c0 81 67 144 155 144c74 0 132 -25 169 -108l-73 -34c-25 57 -58 69 -96 69c-32 0 -71 -25 -71 -73c0 -37 21 -82 34 -139h114v-61h-108c-1 -68 -16 -127 -47 -181h231v-70h-328v62c37 57 67 116 67 189h-66z" />
    <glyph glyph-name="cent.textoldstyle" unicode="&#xe057;" horiz-adv-x="407" 
d="M238 -50h-46v95c-106 15 -137 102 -137 223c0 113 44 192 137 207v86h46v-85c58 -5 102 -36 125 -81l-64 -38c-13 26 -35 44 -61 47v-289c26 4 49 25 60 44l66 -36c-23 -45 -67 -74 -126 -79v-94zM133 267c0 -66 12 -129 59 -148v281c-48 -16 -59 -70 -59 -133z" />
    <glyph glyph-name="yen.textoldstyle" unicode="&#xe058;" horiz-adv-x="411" 
d="M306 593h81l-120 -295h98v-48h-117l-4 -10v-52h121v-49h-121v-139h-74v139h-120v49h120v51l-4 11h-116v48h96l-121 295h80l101 -265z" />
    <glyph glyph-name="percent.text" unicode="&#xe059;" horiz-adv-x="617" 
d="M567 82c0 -55 -46 -85 -99 -85c-52 0 -99 30 -99 85v178c0 55 47 86 99 86c53 0 99 -31 99 -86v-178zM248 331c0 -56 -47 -86 -99 -86c-53 0 -99 30 -99 86v178c0 54 46 85 99 85c52 0 99 -31 99 -85v-178zM501 606l-333 -620h-53l333 620h53zM511 83v177
c0 22 -18 36 -43 36c-24 0 -42 -14 -42 -36v-177c0 -24 18 -37 42 -37c25 0 43 13 43 37zM191 331v178c0 22 -18 35 -42 35c-25 0 -43 -13 -43 -35v-178c0 -24 18 -37 43 -37c24 0 42 13 42 37z" />
    <glyph glyph-name="perthousand.text" unicode="&#xe05a;" horiz-adv-x="849" 
d="M567 82c0 -55 -46 -85 -99 -85c-52 0 -99 30 -99 85v178c0 55 47 86 99 86c53 0 99 -31 99 -86v-178zM248 331c0 -56 -47 -86 -99 -86c-53 0 -99 30 -99 86v178c0 54 46 85 99 85c52 0 99 -31 99 -85v-178zM501 606l-333 -620h-53l333 620h53zM511 83v177
c0 22 -18 36 -43 36c-24 0 -42 -14 -42 -36v-177c0 -24 18 -37 42 -37c25 0 43 13 43 37zM191 331v178c0 22 -18 35 -42 35c-25 0 -43 -13 -43 -35v-178c0 -24 18 -37 43 -37c24 0 42 13 42 37zM800 82c0 -55 -46 -85 -99 -85c-52 0 -99 30 -99 85v178c0 55 47 86 99 86
c53 0 99 -31 99 -86v-178zM744 83v177c0 22 -18 36 -43 36c-24 0 -42 -14 -42 -36v-177c0 -24 18 -37 42 -37c25 0 43 13 43 37z" />
    <glyph glyph-name="parenleft.numerator" unicode="&#xe2da;" horiz-adv-x="163" 
d="M165 233l-35 -24c-57 65 -107 154 -107 253c0 101 49 186 106 250l37 -18c-48 -67 -79 -152 -79 -229c0 -83 32 -168 78 -232z" />
    <glyph glyph-name="parenright.numerator" unicode="&#xe2db;" horiz-adv-x="163" 
d="M45 209l-35 24c47 64 79 149 79 232c0 76 -30 162 -79 229l36 18c58 -64 107 -149 107 -250c0 -99 -50 -187 -108 -253z" />
    <glyph glyph-name="comma.numerator" unicode="&#xe2dc;" horiz-adv-x="145" 
d="M106 285l-34 -72h-43l18 66h-14v72h73v-66z" />
    <glyph glyph-name="period.numerator" unicode="&#xe2dd;" horiz-adv-x="142" 
d="M107 279h-73v70h73v-70z" />
    <glyph glyph-name="zero.denominator" unicode="&#xe2f4;" horiz-adv-x="281" 
d="M254 99c0 -66 -53 -103 -113 -103s-113 37 -113 103v218c0 65 53 103 113 103s113 -38 113 -103v-218zM191 99v218c0 28 -20 45 -50 45s-50 -17 -50 -45v-218c0 -30 20 -46 50 -46s50 16 50 46z" />
    <glyph glyph-name="one.denominator" unicode="&#xe2f5;" horiz-adv-x="241" 
d="M173 417v-417h-63v350l-62 -43v65l64 45h61z" />
    <glyph glyph-name="two.denominator" unicode="&#xe2f6;" horiz-adv-x="279" 
d="M253 0h-227v52l145 203c14 20 20 40 20 61c0 23 -13 46 -48 46c-30 0 -50 -24 -53 -67l-64 9c5 70 48 115 118 115s113 -37 113 -102c0 -29 -10 -62 -31 -91l-121 -167h148v-59z" />
    <glyph glyph-name="three.denominator" unicode="&#xe2f7;" horiz-adv-x="281" 
d="M141 419c83 0 112 -51 112 -110c0 -35 -5 -69 -41 -91c35 -20 43 -49 43 -96c0 -76 -37 -126 -117 -126c-67 0 -108 34 -113 103l64 8c2 -36 20 -56 50 -56c43 0 53 38 53 75s-15 63 -57 63h-32v53h30c44 0 56 27 56 63s-14 57 -49 57c-27 0 -47 -21 -52 -56l-64 9
c7 60 51 104 117 104z" />
    <glyph glyph-name="four.denominator" unicode="&#xe2f8;" horiz-adv-x="285" 
d="M273 62h-35v-62h-63v62h-162v53l124 302h67l-123 -299h94v116h63v-116h35v-56z" />
    <glyph glyph-name="five.denominator" unicode="&#xe2f9;" horiz-adv-x="277" 
d="M152 279c65 0 98 -37 98 -133c0 -84 -26 -150 -115 -150c-71 0 -110 34 -116 103c22 2 43 6 65 8c2 -37 20 -56 51 -56c51 0 52 55 52 92c0 38 -3 81 -50 81c-22 0 -38 -10 -49 -28h-57v222h215v-55h-156v-100h1c19 10 39 16 61 16z" />
    <glyph glyph-name="six.denominator" unicode="&#xe2fa;" horiz-adv-x="279" 
d="M138 -4c-74 0 -114 35 -114 123c0 44 9 78 21 102l99 195h69l-87 -175c10 3 20 4 29 4c77 0 99 -55 99 -118c0 -88 -46 -131 -116 -131zM141 194c-44 0 -52 -38 -52 -73c0 -38 4 -71 49 -71c39 0 51 31 51 66c0 33 -2 77 -48 78z" />
    <glyph glyph-name="seven.denominator" unicode="&#xe2fb;" horiz-adv-x="254" 
d="M243 365l-137 -365h-65l133 360h-98v-55h-62v112h229v-52z" />
    <glyph glyph-name="eight.denominator" unicode="&#xe2fc;" horiz-adv-x="281" 
d="M257 117c0 -90 -58 -121 -117 -121c-62 0 -117 31 -117 121c0 51 14 85 45 99c-31 13 -40 46 -40 87c0 80 52 115 112 115c62 0 112 -35 112 -115c0 -41 -10 -70 -40 -87c32 -16 45 -52 45 -99zM140 191c-33 0 -55 -24 -55 -70c0 -53 24 -72 55 -72c38 0 54 25 54 73
c0 47 -19 69 -54 69zM140 363c-35 0 -51 -24 -51 -63c0 -41 18 -60 51 -60c34 0 51 23 51 63c0 36 -15 60 -51 60z" />
    <glyph glyph-name="nine.denominator" unicode="&#xe2fd;" horiz-adv-x="277" 
d="M140 420c74 0 114 -35 114 -123c0 -44 -9 -78 -21 -102l-99 -195h-69l87 175c-10 -3 -20 -4 -29 -4c-77 0 -99 55 -99 118c0 88 46 131 116 131zM137 222c44 0 52 38 52 73c0 38 -4 71 -49 71c-39 0 -51 -31 -51 -66c0 -33 2 -77 48 -78z" />
    <glyph glyph-name="parenleft.denominator" unicode="&#xe2fe;" horiz-adv-x="163" 
d="M165 -46l-35 -24c-57 65 -107 154 -107 253c0 101 49 186 106 250l37 -18c-48 -67 -79 -152 -79 -229c0 -83 32 -168 78 -232z" />
    <glyph glyph-name="parenright.denominator" unicode="&#xe2ff;" horiz-adv-x="163" 
d="M45 -70l-35 24c47 64 79 149 79 232c0 76 -30 162 -79 229l36 18c58 -64 107 -149 107 -250c0 -99 -50 -187 -108 -253z" />
    <glyph glyph-name="comma.denominator" unicode="&#xe300;" horiz-adv-x="145" 
d="M106 6l-34 -72h-43l18 66h-14v72h73v-66z" />
    <glyph glyph-name="period.denominator" unicode="&#xe301;" horiz-adv-x="142" 
d="M107 0h-73v70h73v-70z" />
    <glyph glyph-name="afii61352" unicode="&#x2116;" horiz-adv-x="788" 
d="M742 270h-227v58h227v-58zM454 0h-80l-168 366l-62 139h-3v-505h-84v696h81l167 -361l62 -143l4 1v503h83v-696zM629 702c54 0 88 -23 106 -56c12 -21 17 -57 17 -109c0 -53 -4 -90 -18 -115c-22 -39 -65 -56 -110 -56c-59 0 -99 26 -114 69c-8 23 -10 62 -10 97
c0 34 2 68 12 94c19 49 53 76 117 76zM627 644c-20 0 -37 -8 -47 -23c-9 -13 -15 -52 -15 -95c0 -24 0 -46 6 -62c8 -25 24 -40 55 -40c27 0 46 14 55 37c6 15 7 42 7 77c0 32 -2 52 -6 67c-7 25 -26 39 -55 39z" />
    <glyph glyph-name="estimated" unicode="&#x212e;" horiz-adv-x="817" 
d="M763 316h-568c0 -59 1 -124 1 -184c43 -69 132 -115 217 -115c87 0 167 42 220 108h62c-68 -83 -172 -136 -283 -136c-193 0 -351 155 -351 340c0 184 158 332 351 332c197 0 344 -145 351 -345zM627 342v179c-40 68 -133 112 -214 112c-76 0 -157 -46 -217 -116
c0 -44 -1 -131 -1 -175h432z" />
    <glyph glyph-name="partialdiff" unicode="&#x2202;" horiz-adv-x="440" 
d="M102 218c0 -111 48 -157 101 -157c84 0 118 125 118 238c-41 66 -80 80 -119 80c-69 0 -100 -82 -100 -161zM32 216c0 140 72 227 165 227c40 0 82 -10 124 -58c0 160 -62 272 -159 272c-15 0 -34 -2 -57 -10v64c23 7 43 10 64 10c164 0 226 -184 226 -370
c0 -239 -83 -361 -195 -361c-96 0 -168 78 -168 226z" />
    <glyph glyph-name="product" unicode="&#x220f;" horiz-adv-x="525" 
d="M461 -83h-84v706h-229v-706h-83v779h396v-779z" />
    <glyph glyph-name="summation" unicode="&#x2211;" horiz-adv-x="408" 
d="M387 -84h-362v72l134 322l-135 317v69h351v-76h-260l136 -310l-135 -317h271v-77z" />
    <glyph glyph-name="minus" unicode="&#x2212;" horiz-adv-x="440" 
d="M421 263h-402v62h402v-62z" />
    <glyph glyph-name="radical" unicode="&#x221a;" horiz-adv-x="450" 
d="M447 797l-168 -878h-62l-126 411c-17 -7 -38 -18 -55 -24l-18 60l117 48l109 -359c45 249 91 492 136 742h67z" />
    <glyph glyph-name="infinity" unicode="&#x221e;" horiz-adv-x="582" 
d="M148 420c61 0 113 -48 143 -100c38 60 82 100 148 100c71 0 125 -57 125 -148c0 -84 -58 -148 -132 -148c-58 0 -106 49 -141 99c-40 -54 -84 -99 -150 -99c-70 0 -126 56 -126 148c0 84 60 148 133 148zM148 356c-38 0 -73 -35 -73 -84c0 -52 33 -85 71 -85
c42 0 82 35 106 84c-21 41 -62 85 -104 85zM436 356c-43 0 -77 -33 -109 -84c32 -47 63 -85 106 -85c38 0 72 36 72 85c0 52 -33 84 -69 84z" />
    <glyph glyph-name="logicaland" unicode="&#x2227;" horiz-adv-x="440" 
d="M242 524l157 -524h-66l-120 403l-121 -403h-65l157 524h58z" />
    <glyph glyph-name="logicalor" unicode="&#x2228;" horiz-adv-x="440" 
d="M333 524h66l-157 -524h-58l-157 524h65l121 -405z" />
    <glyph glyph-name="intersection" unicode="&#x2229;" horiz-adv-x="440" 
d="M397 314v-314h-65v314c0 72 -45 142 -121 142c-74 0 -119 -63 -119 -142v-314h-62v314c0 111 65 209 181 209c115 0 186 -88 186 -209z" />
    <glyph glyph-name="union" unicode="&#x222a;" horiz-adv-x="440" 
d="M397 523v-315c0 -120 -71 -208 -186 -208c-116 0 -181 98 -181 208v315h62v-315c0 -78 45 -140 119 -140c76 0 121 70 121 140v315h65z" />
    <glyph glyph-name="integral" unicode="&#x222b;" horiz-adv-x="316" 
d="M117 79c4 82 5 213 8 372c0 49 3 97 7 139c11 125 55 183 141 183c19 0 47 -4 68 -11c-4 -19 -10 -39 -14 -58c-18 4 -33 6 -44 6c-55 0 -77 -37 -84 -166c-4 -81 -2 -238 -6 -350c-2 -58 -4 -113 -9 -161c-14 -130 -62 -183 -149 -183c-19 0 -41 3 -62 10
c4 19 10 39 14 58c20 -4 31 -5 41 -5c56 0 81 33 89 166z" />
    <glyph glyph-name="approxequal" unicode="&#x2248;" horiz-adv-x="440" 
d="M422 393c-31 -51 -65 -86 -119 -86c-51 0 -114 57 -169 57c-30 0 -42 -14 -68 -45l-49 34c29 50 69 81 118 81c63 0 116 -55 169 -55c29 0 42 17 67 49zM422 245c-31 -51 -65 -86 -119 -86c-51 0 -114 57 -169 57c-30 0 -42 -14 -68 -45l-49 34c29 50 69 81 118 81
c63 0 116 -55 169 -55c29 0 42 17 67 49z" />
    <glyph glyph-name="notequal" unicode="&#x2260;" horiz-adv-x="440" 
d="M96 55l-64 2l66 120h-78v65h114l59 108h-173v65h209l74 133h66l-74 -133h127v-65h-163l-60 -108h223v-65h-259z" />
    <glyph glyph-name="lessequal" unicode="&#x2264;" horiz-adv-x="440" 
d="M418 174v-74l-396 165v60l396 167v-75l-319 -122c95 -40 225 -81 319 -121zM419 1h-397v66h397v-66z" />
    <glyph glyph-name="greaterequal" unicode="&#x2265;" horiz-adv-x="440" 
d="M24 100v74c94 40 224 81 319 121l-319 122v75l396 -167v-60zM420 1h-397v66h397v-66z" />
    <glyph glyph-name="gradient" unicode="&#x2207;" horiz-adv-x="497" 
d="M9 696h479l-202 -696h-75zM381 621h-267c28 -95 59 -211 89 -318c18 -75 35 -142 44 -168h2c10 39 116 425 132 486z" />
    <glyph glyph-name="fraction" unicode="&#x2044;" horiz-adv-x="138" 
d="M270 714l-370 -731h-56l369 731h57z" />
    <glyph glyph-name="fraction" unicode="&#x2215;" horiz-adv-x="138" 
d="M270 714l-370 -731h-56l369 731h57z" />
    <glyph glyph-name="slashedzero" unicode="&#xe23f;" horiz-adv-x="440" 
d="M388 159c0 -107 -80 -165 -168 -165s-167 58 -167 165v377c0 106 79 166 167 166s168 -60 168 -166v-377zM133 536v-318l174 316v2c0 55 -35 88 -87 88s-87 -33 -87 -88zM307 159v281l-171 -309c10 -38 41 -59 84 -59c52 0 87 32 87 87z" />
    <glyph glyph-name="Scommaaccent" unicode="&#x218;" horiz-adv-x="477" 
d="M444 190c0 -120 -77 -197 -207 -197c-107 0 -180 48 -215 123l74 43c27 -47 71 -85 142 -85c86 0 120 49 120 116c0 74 -47 101 -123 125c-139 42 -192 90 -192 196c0 112 78 191 201 191c102 0 164 -41 194 -97l-71 -49c-26 47 -65 66 -127 66c-77 0 -112 -49 -112 -111
c0 -73 68 -95 155 -123c120 -38 161 -94 161 -198zM276 -163l-51 -91h-47l31 89h-28v103h95v-101z" />
    <glyph glyph-name="scommaaccent" unicode="&#x219;" horiz-adv-x="405" 
d="M27 98l66 38c21 -43 56 -68 109 -68c55 0 89 22 89 74c0 50 -39 61 -93 76c-96 25 -158 57 -158 142c0 87 62 141 161 141c89 0 136 -36 159 -95l-63 -39c-19 39 -52 60 -97 60c-59 0 -80 -32 -80 -67c0 -45 53 -55 112 -72c93 -22 139 -58 139 -148
c0 -89 -64 -147 -171 -147c-85 0 -142 37 -173 105zM237 -163l-51 -91h-47l31 89h-28v103h95v-101z" />
    <glyph glyph-name="primemod" unicode="&#x2b9;" horiz-adv-x="250" 
d="M146 694l93 -24l-138 -266l-54 18z" />
    <glyph glyph-name="schwacyrillic" unicode="&#x4d9;" horiz-adv-x="419" 
d="M112 372l-66 35c27 58 89 95 155 95c125 0 180 -72 180 -253c0 -126 -33 -254 -175 -254c-111 0 -173 77 -173 201v77h267c0 87 -17 156 -102 156c-36 0 -68 -27 -86 -57zM113 208c0 -90 33 -137 92 -137c69 0 90 53 93 137h-185z" />
    <glyph glyph-name="Wgrave" unicode="&#x1e80;" horiz-adv-x="702" 
d="M683 696l-138 -696h-74l-78 338l-41 191h-3l-40 -187l-78 -342h-74l-138 696h87l58 -319l32 -198h3l42 195l75 322h71l75 -323l42 -194h3l31 194l57 323h88zM460 795l-37 -42l-170 103l59 61z" />
    <glyph glyph-name="schwa" unicode="&#x259;" horiz-adv-x="419" 
d="M112 372l-66 35c27 58 89 95 155 95c125 0 180 -72 180 -253c0 -126 -33 -254 -175 -254c-111 0 -173 77 -173 201v77h267c0 87 -17 156 -102 156c-36 0 -68 -27 -86 -57zM113 208c0 -90 33 -137 92 -137c69 0 90 53 93 137h-185z" />
    <glyph glyph-name="wgrave" unicode="&#x1e81;" horiz-adv-x="634" 
d="M625 495l-135 -495h-79c-21 80 -44 159 -64 240l-31 115h-2c-10 -42 -21 -87 -32 -128l-60 -227h-80l-134 495h86c22 -87 43 -175 64 -262l24 -102h4l25 101c21 86 45 174 67 263h79c22 -85 43 -171 64 -256l27 -113h4l25 108c21 87 40 174 61 261h87zM358 572l-48 -19
l-98 167l76 25z" />
    <glyph glyph-name="Wacute" unicode="&#x1e82;" horiz-adv-x="702" 
d="M683 696l-138 -696h-74l-78 338l-41 191h-3l-40 -187l-78 -342h-74l-138 696h87l58 -319l32 -198h3l42 195l75 322h71l75 -323l42 -194h3l31 194l57 323h88zM325 727l-33 39l145 118l54 -59z" />
    <glyph glyph-name="wacute" unicode="&#x1e83;" horiz-adv-x="634" 
d="M625 495l-135 -495h-79c-21 80 -44 159 -64 240l-31 115h-2c-10 -42 -21 -87 -32 -128l-60 -227h-80l-134 495h86c22 -87 43 -175 64 -262l24 -102h4l25 101c21 86 45 174 67 263h79c22 -85 43 -171 64 -256l27 -113h4l25 108c21 87 40 174 61 261h87zM336 553l-48 19
l70 173l76 -25z" />
    <glyph glyph-name="Wdieresis" unicode="&#x1e84;" horiz-adv-x="702" 
d="M683 696l-138 -696h-74l-78 338l-41 191h-3l-40 -187l-78 -342h-74l-138 696h87l58 -319l32 -198h3l42 195l75 322h71l75 -323l42 -194h3l31 194l57 323h88zM466 748h-78v84h78v-84zM300 748h-79v84h79v-84z" />
    <glyph glyph-name="wdieresis" unicode="&#x1e85;" horiz-adv-x="634" 
d="M625 495l-135 -495h-79c-21 80 -44 159 -64 240l-31 115h-2c-10 -42 -21 -87 -32 -128l-60 -227h-80l-134 495h86c22 -87 43 -175 64 -262l24 -102h4l25 101c21 86 45 174 67 263h79c22 -85 43 -171 64 -256l27 -113h4l25 108c21 87 40 174 61 261h87zM272 594h-79v84h79
v-84zM438 594h-78v84h78v-84z" />
    <glyph glyph-name="Ygrave" unicode="&#x1ef2;" horiz-adv-x="442" 
d="M217 386h6l51 134l72 176h87l-172 -406v-290h-81v290l-173 406h88c24 -60 50 -120 74 -180c16 -40 33 -90 48 -130zM298 780l-37 -42l-170 103l59 61z" />
    <glyph glyph-name="ygrave" unicode="&#x1ef3;" horiz-adv-x="387" 
d="M384 495l-178 -594c-21 -70 -67 -103 -129 -103h-26v70h24c32 0 53 24 64 71l21 73l-159 483h86l61 -198l47 -167h3l44 167l58 198h84zM225 572l-48 -19l-98 167l76 25z" />
    <glyph glyph-name="trianglebullet" unicode="&#x2023;" horiz-adv-x="506" 
d="M81 477l393 -200l-393 -211v411z" />
    <glyph glyph-name="published" unicode="&#x2117;" horiz-adv-x="753" 
d="M274 543h128c81 0 127 -42 127 -130c0 -67 -34 -130 -125 -130h-69v-168h-61v428zM335 488v-148h66c52 0 67 36 67 73c0 45 -19 75 -67 75h-66zM376 -8c-200 0 -325 150 -325 349c0 201 128 351 325 351c196 0 326 -150 326 -351c0 -199 -130 -349 -326 -349zM376 637
c-164 0 -265 -130 -265 -296c0 -164 105 -293 265 -293c164 0 265 129 265 293c0 166 -103 296 -265 296z" />
    <glyph glyph-name="Ohm" unicode="&#x2126;" horiz-adv-x="497" 
d="M291 93c49 17 77 64 77 127v270c0 77 -46 131 -120 131c-78 0 -121 -58 -121 -131v-270c0 -58 28 -108 79 -127l-1 -93h-172v78h71c-45 29 -60 91 -60 151v262c0 122 81 211 204 211c115 0 204 -83 204 -211v-262c0 -63 -16 -118 -60 -151h71v-78h-172v93z" />
    <glyph glyph-name="angstrom" unicode="&#x212b;" horiz-adv-x="496" 
d="M489 0h-86l-44 158h-222l-43 -158h-85l202 696h75zM340 233l-51 180l-39 154h-4l-39 -153l-51 -181h184zM245 709c-50 0 -89 38 -89 84c0 47 39 86 89 86c46 0 85 -39 85 -86c0 -46 -39 -84 -85 -84zM245 838c-27 0 -47 -20 -47 -45c0 -24 20 -43 47 -43
c24 0 44 19 44 43c0 25 -20 45 -44 45z" />
    <glyph glyph-name="centigrade" unicode="&#x2103;" horiz-adv-x="741" 
d="M645 158l79 -29c-24 -87 -98 -135 -193 -135c-126 0 -203 86 -203 208v292c0 118 74 207 203 207c94 0 168 -49 193 -133l-79 -31c-13 50 -52 84 -114 84c-78 0 -120 -60 -120 -125v-296c0 -66 43 -127 120 -127c60 0 101 33 114 85zM273 584c0 -65 -53 -117 -118 -117
s-117 52 -117 117s52 117 117 117s118 -52 118 -117zM223 584c0 38 -30 68 -68 68c-37 0 -68 -30 -68 -68s31 -69 68 -69c38 0 68 31 68 69z" />
    <glyph glyph-name="afii61248" unicode="&#x2105;" horiz-adv-x="667" 
d="M501 353c96 0 125 -65 125 -181c0 -123 -48 -178 -132 -178c-100 0 -124 69 -124 177c0 112 31 182 131 182zM178 704c59 0 99 -31 114 -81c-19 -10 -42 -20 -61 -30c-9 31 -30 46 -53 46c-44 0 -67 -26 -67 -123c0 -66 15 -107 67 -107c26 0 44 18 53 45l58 -30
c-19 -53 -55 -80 -114 -80c-94 0 -132 63 -132 177c0 129 46 183 135 183zM545 713c-123 -243 -246 -487 -370 -730h-56c124 243 246 487 370 730h56zM500 289c-45 0 -62 -33 -62 -124c0 -58 5 -108 59 -108c48 0 61 37 61 120c0 75 -16 112 -58 112z" />
    <glyph glyph-name="fahrenheit" unicode="&#x2109;" horiz-adv-x="717" 
d="M706 618h-286v-231h245v-75h-245v-312h-83v696h369v-78zM271 584c0 -65 -53 -117 -118 -117s-117 52 -117 117s52 117 117 117s118 -52 118 -117zM221 584c0 38 -30 68 -68 68c-37 0 -68 -30 -68 -68s31 -69 68 -69c38 0 68 31 68 69z" />
    <glyph glyph-name="afii61289" unicode="&#x2113;" horiz-adv-x="405" 
d="M322 159l52 -19c-27 -75 -73 -150 -150 -150c-76 0 -130 70 -130 163v54c-6 -6 -41 -32 -45 -37l-25 37l69 61v253c0 140 55 190 126 190c57 0 98 -42 98 -127c0 -110 -54 -210 -161 -333v-56c0 -102 39 -140 75 -140s66 32 91 104zM156 531v-202c69 96 105 176 105 257
c0 26 -9 68 -46 68c-28 0 -59 -35 -59 -123z" />
    <glyph glyph-name="ampersandsmall" unicode="&#xe0fb;" horiz-adv-x="493" 
d="M384 0l-39 46c-43 -36 -93 -50 -143 -50c-94 0 -153 58 -153 135c0 62 36 108 102 153l-24 28c-20 26 -33 58 -33 91c0 68 50 122 143 122c45 0 103 -12 143 -57l-60 -49c-27 27 -53 35 -83 35c-46 0 -63 -25 -63 -50c0 -22 21 -49 51 -89l123 -152c13 25 19 50 25 78
l78 -5c-8 -47 -24 -97 -51 -135c28 -32 60 -70 86 -101h-102zM213 68c32 0 67 14 87 32l-105 128c-42 -29 -65 -59 -65 -94c0 -37 29 -66 83 -66z" />
    <glyph glyph-name="exclamsmall" unicode="&#xe0fc;" horiz-adv-x="213" 
d="M147 520l-7 -393h-67l-7 393h81zM150 -1h-85v83h85v-83z" />
    <glyph glyph-name="questionsmall" unicode="&#xe0fd;" horiz-adv-x="390" 
d="M364 387c-2 -45 -18 -75 -47 -109s-68 -66 -68 -97v-51h-84v46c0 36 10 64 33 88c45 50 79 81 79 119c0 30 -13 65 -79 65c-55 0 -78 -40 -81 -79l-82 12c10 96 79 142 167 142c104 0 162 -54 162 -136zM248 0h-85v83h85v-83z" />
    <glyph glyph-name="Asmall" unicode="&#xe0fe;" horiz-adv-x="423" 
d="M418 0h-84l-36 113h-174l-36 -113h-82l171 520h68zM212 401h-4l-36 -122l-28 -93h133l-28 92z" />
    <glyph glyph-name="Bsmall" unicode="&#xe0ff;" horiz-adv-x="428" 
d="M394 153c0 -100 -63 -153 -162 -153h-179v520h174c109 0 158 -55 158 -141c0 -44 -14 -80 -58 -107c48 -20 67 -68 67 -119zM228 233h-94v-158h91c69 0 89 39 89 83c0 41 -24 75 -86 75zM216 447h-82v-142h84c61 0 87 33 87 71c0 42 -27 71 -89 71z" />
    <glyph glyph-name="Csmall" unicode="&#xe100;" horiz-adv-x="392" 
d="M301 147l77 -24c-17 -80 -72 -128 -167 -128c-120 0 -170 83 -170 176v168c0 89 45 185 171 185c96 0 147 -44 165 -122l-75 -29c-11 44 -38 76 -89 76c-70 0 -92 -63 -92 -109v-167c0 -48 25 -103 91 -103c49 0 79 28 89 77z" />
    <glyph glyph-name="Dsmall" unicode="&#xe101;" horiz-adv-x="440" 
d="M53 520h166c84 0 140 -27 166 -92c14 -35 14 -89 14 -152c0 -101 -1 -146 -15 -181c-30 -73 -97 -95 -175 -95h-156v520zM317 178v164c0 71 -36 103 -105 103h-78v-370h78c77 0 105 42 105 103z" />
    <glyph glyph-name="Esmall" unicode="&#xe102;" horiz-adv-x="384" 
d="M367 0h-314v520h314v-75h-233v-145h201v-74h-201v-151h233v-75z" />
    <glyph glyph-name="Fsmall" unicode="&#xe103;" horiz-adv-x="376" 
d="M367 445h-233v-147h201v-74h-201v-224h-81v520h314v-75z" />
    <glyph glyph-name="Gsmall" unicode="&#xe104;" horiz-adv-x="428" 
d="M213 67c63 0 93 52 93 102v47h-93v73h174v-113c0 -117 -70 -182 -173 -182c-127 0 -174 84 -174 177v168c0 90 46 185 174 185c94 0 147 -49 164 -125l-78 -24c-8 44 -36 74 -87 74c-70 0 -92 -66 -92 -111v-168c0 -55 26 -103 92 -103z" />
    <glyph glyph-name="Hsmall" unicode="&#xe105;" horiz-adv-x="448" 
d="M395 0h-81v228h-180v-228h-81v520h81v-220h180v220h81v-520z" />
    <glyph glyph-name="Ismall" unicode="&#xe106;" horiz-adv-x="184" 
d="M133 0h-82v520h82v-520z" />
    <glyph glyph-name="Jsmall" unicode="&#xe107;" horiz-adv-x="343" 
d="M288 520v-369c0 -113 -66 -155 -162 -155c-54 0 -100 21 -133 63l60 51c16 -18 48 -39 75 -39c51 0 80 27 80 80v369h80z" />
    <glyph glyph-name="Ksmall" unicode="&#xe108;" horiz-adv-x="440" 
d="M436 0h-90l-137 244l-74 -97v-147h-81v520h82v-252l92 125l96 127h92l-156 -211z" />
    <glyph glyph-name="Lsmall" unicode="&#xe109;" horiz-adv-x="372" 
d="M360 0h-307v520h81v-445h226v-75z" />
    <glyph glyph-name="Msmall" unicode="&#xe10a;" horiz-adv-x="556" 
d="M279 197h4l70 159l74 164h77v-520h-79v338h-5l-52 -118l-63 -138h-51l-58 124l-58 127h-3v-333h-80v520h77l75 -162z" />
    <glyph glyph-name="Nsmall" unicode="&#xe10b;" horiz-adv-x="474" 
d="M422 0h-74l-163 274l-52 88v-362h-80v520h75l159 -269l55 -96v365h80v-520z" />
    <glyph glyph-name="Osmall" unicode="&#xe10c;" horiz-adv-x="427" 
d="M214 524c124 0 173 -83 173 -189v-151c0 -115 -60 -189 -174 -189c-120 0 -173 80 -173 178v161c0 97 47 190 174 190zM214 450c-74 0 -94 -66 -94 -116v-159c0 -50 25 -106 93 -106c65 0 93 51 93 112v159c0 55 -25 110 -92 110z" />
    <glyph glyph-name="Psmall" unicode="&#xe10d;" horiz-adv-x="409" 
d="M395 360c0 -82 -48 -159 -172 -159h-89v-201h-81v520h170c111 0 172 -52 172 -160zM313 361c0 51 -24 84 -92 84h-87v-168h88c73 0 91 41 91 84z" />
    <glyph glyph-name="Qsmall" unicode="&#xe10e;" horiz-adv-x="433" 
d="M214 524c124 0 173 -80 173 -190v-148c0 -40 -6 -73 -19 -101c11 -9 53 -39 64 -47l-40 -55l-64 47c-28 -22 -68 -35 -115 -35c-119 0 -172 78 -172 180v158c0 99 46 191 173 191zM214 449c-73 0 -93 -69 -93 -121v-150c0 -50 24 -108 93 -108c16 0 33 4 46 11
c-20 13 -43 31 -61 44l42 54l59 -44c5 15 7 32 7 50v154c0 54 -25 110 -93 110z" />
    <glyph glyph-name="Rsmall" unicode="&#xe10f;" horiz-adv-x="428" 
d="M405 0h-88l-94 220h-89v-220h-80v520h191c94 0 150 -54 150 -149c0 -64 -29 -116 -92 -140c21 -37 81 -194 102 -231zM313 371c0 49 -26 76 -85 76h-94v-154h95c59 0 84 30 84 78z" />
    <glyph glyph-name="Ssmall" unicode="&#xe110;" horiz-adv-x="403" 
d="M374 147c0 -94 -58 -151 -173 -151c-91 0 -147 37 -179 98l63 42c23 -35 60 -64 116 -64c68 0 93 34 93 74c0 48 -35 64 -97 80c-118 30 -163 72 -163 151c0 86 60 147 169 147c88 0 139 -41 165 -88l-61 -46c-24 37 -58 57 -108 57c-54 0 -81 -30 -81 -70
c0 -42 42 -56 113 -78c103 -27 145 -68 143 -152z" />
    <glyph glyph-name="Tsmall" unicode="&#xe111;" horiz-adv-x="344" 
d="M342 447h-130v-447h-80v447h-130v73h340v-73z" />
    <glyph glyph-name="Usmall" unicode="&#xe112;" horiz-adv-x="438" 
d="M312 520h81v-343c0 -106 -56 -182 -173 -182c-127 0 -174 83 -174 174v351h80v-346c0 -43 22 -104 93 -104c67 0 93 52 93 104v346z" />
    <glyph glyph-name="Vsmall" unicode="&#xe113;" horiz-adv-x="402" 
d="M198 136h5c5 25 28 114 33 139l68 245h86l-154 -520h-73l-152 520h84l69 -247c5 -25 29 -113 34 -137z" />
    <glyph glyph-name="Wsmall" unicode="&#xe114;" horiz-adv-x="593" 
d="M296 369h-4c-4 -18 -28 -109 -31 -127l-59 -242h-70l-117 520h85l46 -229c3 -20 22 -110 25 -130l2 -1l32 135l57 225h68l58 -228c4 -20 27 -117 32 -137h3l25 138l42 227h86l-118 -520h-69l-60 238z" />
    <glyph glyph-name="Xsmall" unicode="&#xe115;" horiz-adv-x="382" 
d="M382 0h-88l-103 207c-13 -33 -89 -174 -102 -207h-88l144 268c-18 40 -116 213 -134 252h88l92 -189c12 30 81 160 93 189h87l-133 -252c20 -42 124 -226 144 -268z" />
    <glyph glyph-name="Ysmall" unicode="&#xe116;" horiz-adv-x="382" 
d="M190 297h3l57 127l41 96h82l-144 -307v-213h-78v213l-143 307h85l42 -97z" />
    <glyph glyph-name="Zsmall" unicode="&#xe117;" horiz-adv-x="348" 
d="M327 0h-306v66l215 381h-205v73h297v-63l-215 -382h214v-75z" />
    <glyph glyph-name="Scaronsmall" unicode="&#xe118;" horiz-adv-x="403" 
d="M374 147c0 -94 -58 -151 -173 -151c-91 0 -147 37 -179 98l63 42c23 -35 60 -64 116 -64c68 0 93 34 93 74c0 48 -35 64 -97 80c-118 30 -163 72 -163 151c0 86 60 147 169 147c88 0 139 -41 165 -88l-61 -46c-24 37 -58 57 -108 57c-54 0 -81 -30 -81 -70
c0 -42 42 -56 113 -78c103 -27 145 -68 143 -152zM198 632l125 100l37 -35l-133 -144h-50l-141 146l37 33z" />
    <glyph glyph-name="OEsmall" unicode="&#xe119;" horiz-adv-x="618" 
d="M597 0h-321c-15 -3 -35 -5 -52 -5c-127 0 -183 72 -183 163v194c0 89 47 172 183 172c17 0 35 -1 49 -4h324v-74h-249v-146h214v-73h-214v-154h249v-73zM224 69c17 0 30 2 40 7v367c-10 4 -24 7 -40 7c-78 0 -99 -58 -99 -101v-189c0 -43 26 -91 99 -91z" />
    <glyph glyph-name="Zcaronsmall" unicode="&#xe11a;" horiz-adv-x="348" 
d="M327 0h-306v66l215 381h-205v73h297v-63l-215 -382h214v-75zM182 632l125 100l37 -35l-133 -144h-50l-141 146l37 33z" />
    <glyph glyph-name="Ydieresissmall" unicode="&#xe11b;" horiz-adv-x="382" 
d="M190 297h3l57 127l41 96h82l-144 -307v-213h-78v213l-143 307h85l42 -97zM314 593h-78v84h78v-84zM148 593h-79v84h79v-84z" />
    <glyph glyph-name="Agravesmall" unicode="&#xe11c;" horiz-adv-x="423" 
d="M418 0h-84l-36 113h-174l-36 -113h-82l171 520h68zM212 401h-4l-36 -122l-28 -93h133l-28 92zM245 572l-48 -19l-98 167l76 25z" />
    <glyph glyph-name="Aacutesmall" unicode="&#xe11d;" horiz-adv-x="423" 
d="M418 0h-84l-36 113h-174l-36 -113h-82l171 520h68zM212 401h-4l-36 -122l-28 -93h133l-28 92zM224 553l-48 19l70 173l76 -25z" />
    <glyph glyph-name="Acircumflexsmall" unicode="&#xe11e;" horiz-adv-x="423" 
d="M418 0h-84l-36 113h-174l-36 -113h-82l171 520h68zM212 401h-4l-36 -122l-28 -93h133l-28 92zM333 553l-125 100l-125 -101l-37 33l141 146h50l133 -144z" />
    <glyph glyph-name="Atildesmall" unicode="&#xe11f;" horiz-adv-x="423" 
d="M418 0h-84l-36 113h-174l-36 -113h-82l171 520h68zM212 401h-4l-36 -122l-28 -93h133l-28 92zM144 689c43 0 84 -42 122 -42c19 0 36 13 57 42l45 -28c-27 -54 -62 -82 -98 -82c-44 0 -87 41 -122 41c-20 0 -37 -12 -58 -38l-44 25c22 45 60 82 98 82z" />
    <glyph glyph-name="Adieresissmall" unicode="&#xe120;" horiz-adv-x="423" 
d="M418 0h-84l-36 113h-174l-36 -113h-82l171 520h68zM212 401h-4l-36 -122l-28 -93h133l-28 92zM329 593h-78v84h78v-84zM163 593h-79v84h79v-84z" />
    <glyph glyph-name="Aringsmall" unicode="&#xe121;" horiz-adv-x="423" 
d="M418 0h-84l-36 113h-174l-36 -113h-82l171 520h68zM212 401h-4l-36 -122l-28 -93h133l-28 92zM211 551c-50 0 -89 38 -89 84c0 47 39 86 89 86c46 0 85 -39 85 -86c0 -46 -39 -84 -85 -84zM211 680c-27 0 -47 -20 -47 -45c0 -24 20 -43 47 -43c24 0 44 19 44 43
c0 25 -20 45 -44 45z" />
    <glyph glyph-name="AEsmall" unicode="&#xe122;" horiz-adv-x="716" 
d="M347 0v139h-174c-17 -24 -62 -115 -80 -139h-91l306 520h373v-74h-249v-146h214v-73h-214v-153h249v-74h-334zM347 446l-132 -235h132v235z" />
    <glyph glyph-name="Ccedillasmall" unicode="&#xe123;" horiz-adv-x="392" 
d="M301 147l77 -24c-16 -75 -66 -122 -150 -127l-13 -43c69 -4 89 -49 89 -80c0 -33 -25 -78 -93 -78c-11 0 -56 0 -89 16l14 37c25 -12 50 -13 68 -13c23 0 44 14 44 37c0 27 -20 45 -64 42l-18 15l20 68c-102 10 -145 87 -145 174v168c0 89 45 185 171 185
c96 0 147 -44 165 -122l-75 -29c-11 44 -38 76 -89 76c-70 0 -92 -63 -92 -109v-167c0 -48 25 -103 91 -103c49 0 79 28 89 77z" />
    <glyph glyph-name="Egravesmall" unicode="&#xe124;" horiz-adv-x="384" 
d="M367 0h-314v520h314v-75h-233v-145h201v-74h-201v-151h233v-75zM253 572l-48 -19l-98 167l76 25z" />
    <glyph glyph-name="Eacutesmall" unicode="&#xe125;" horiz-adv-x="384" 
d="M367 0h-314v520h314v-75h-233v-145h201v-74h-201v-151h233v-75zM209 553l-48 19l70 173l76 -25z" />
    <glyph glyph-name="Ecircumflexsmall" unicode="&#xe126;" horiz-adv-x="384" 
d="M367 0h-314v520h314v-75h-233v-145h201v-74h-201v-151h233v-75zM330 553l-125 100l-125 -101l-37 33l141 146h50l133 -144z" />
    <glyph glyph-name="Edieresissmall" unicode="&#xe127;" horiz-adv-x="384" 
d="M367 0h-314v520h314v-75h-233v-145h201v-74h-201v-151h233v-75zM332 593h-78v84h78v-84zM166 593h-79v84h79v-84z" />
    <glyph glyph-name="Igravesmall" unicode="&#xe128;" horiz-adv-x="184" 
d="M133 0h-82v520h82v-520zM127 572l-48 -19l-98 167l76 25z" />
    <glyph glyph-name="Iacutesmall" unicode="&#xe129;" horiz-adv-x="184" 
d="M133 0h-82v520h82v-520zM112 553l-48 19l70 173l76 -25z" />
    <glyph glyph-name="Icircumflexsmall" unicode="&#xe12a;" horiz-adv-x="184" 
d="M133 0h-82v520h82v-520zM220 553l-125 100l-125 -101l-37 33l141 146h50l133 -144z" />
    <glyph glyph-name="Idieresissmall" unicode="&#xe12b;" horiz-adv-x="184" 
d="M133 0h-82v520h82v-520zM218 593h-78v84h78v-84zM52 593h-79v84h79v-84z" />
    <glyph glyph-name="Ethsmall" unicode="&#xe12c;" horiz-adv-x="440" 
d="M53 520h166c84 0 140 -27 166 -92c14 -35 14 -89 14 -152c0 -101 -1 -146 -15 -181c-30 -73 -97 -95 -175 -95h-156v236h-47v62h47v222zM317 178v164c0 71 -36 103 -105 103h-78v-147h83v-62h-83v-161h78c77 0 105 42 105 103z" />
    <glyph glyph-name="Ntildesmall" unicode="&#xe12d;" horiz-adv-x="474" 
d="M422 0h-74l-163 274l-52 88v-362h-80v520h75l159 -269l55 -96v365h80v-520zM174 689c43 0 84 -42 122 -42c19 0 36 13 57 42l45 -28c-27 -54 -62 -82 -98 -82c-44 0 -87 41 -122 41c-20 0 -37 -12 -58 -38l-44 25c22 45 60 82 98 82z" />
    <glyph glyph-name="Ogravesmall" unicode="&#xe12e;" horiz-adv-x="427" 
d="M214 524c124 0 173 -83 173 -189v-151c0 -115 -60 -189 -174 -189c-120 0 -173 80 -173 178v161c0 97 47 190 174 190zM214 450c-74 0 -94 -66 -94 -116v-159c0 -50 25 -106 93 -106c65 0 93 51 93 112v159c0 55 -25 110 -92 110zM255 572l-48 -19l-98 167l76 25z" />
    <glyph glyph-name="Oacutesmall" unicode="&#xe12f;" horiz-adv-x="427" 
d="M214 524c124 0 173 -83 173 -189v-151c0 -115 -60 -189 -174 -189c-120 0 -173 80 -173 178v161c0 97 47 190 174 190zM214 450c-74 0 -94 -66 -94 -116v-159c0 -50 25 -106 93 -106c65 0 93 51 93 112v159c0 55 -25 110 -92 110zM225 553l-48 19l70 173l76 -25z" />
    <glyph glyph-name="Ocircumflexsmall" unicode="&#xe130;" horiz-adv-x="427" 
d="M214 524c124 0 173 -83 173 -189v-151c0 -115 -60 -189 -174 -189c-120 0 -173 80 -173 178v161c0 97 47 190 174 190zM214 450c-74 0 -94 -66 -94 -116v-159c0 -50 25 -106 93 -106c65 0 93 51 93 112v159c0 55 -25 110 -92 110zM339 553l-125 100l-125 -101l-37 33
l141 146h50l133 -144z" />
    <glyph glyph-name="Otildesmall" unicode="&#xe131;" horiz-adv-x="427" 
d="M214 524c124 0 173 -83 173 -189v-151c0 -115 -60 -189 -174 -189c-120 0 -173 80 -173 178v161c0 97 47 190 174 190zM214 450c-74 0 -94 -66 -94 -116v-159c0 -50 25 -106 93 -106c65 0 93 51 93 112v159c0 55 -25 110 -92 110zM151 689c43 0 84 -42 122 -42
c19 0 36 13 57 42l45 -28c-27 -54 -62 -82 -98 -82c-44 0 -87 41 -122 41c-20 0 -37 -12 -58 -38l-44 25c22 45 60 82 98 82z" />
    <glyph glyph-name="Odieresissmall" unicode="&#xe132;" horiz-adv-x="427" 
d="M214 524c124 0 173 -83 173 -189v-151c0 -115 -60 -189 -174 -189c-120 0 -173 80 -173 178v161c0 97 47 190 174 190zM214 450c-74 0 -94 -66 -94 -116v-159c0 -50 25 -106 93 -106c65 0 93 51 93 112v159c0 55 -25 110 -92 110zM338 593h-78v84h78v-84zM172 593h-79v84
h79v-84z" />
    <glyph glyph-name="Oslashsmall" unicode="&#xe133;" horiz-adv-x="453" 
d="M226 524c51 0 89 -14 117 -38l29 45l40 -27l-38 -58c17 -31 25 -69 25 -111v-151c0 -115 -60 -189 -174 -189c-51 0 -90 14 -118 38l-29 -44l-39 27l36 56c-16 29 -23 64 -23 101v161c0 97 47 190 174 190zM318 340c0 6 -1 12 -1 18l-165 -254c15 -21 38 -35 73 -35
c65 0 93 51 93 112v159zM226 450c-74 0 -94 -66 -94 -116v-159v-14l165 254c-15 21 -38 35 -71 35z" />
    <glyph glyph-name="Ugravesmall" unicode="&#xe134;" horiz-adv-x="438" 
d="M312 520h81v-343c0 -106 -56 -182 -173 -182c-127 0 -174 83 -174 174v351h80v-346c0 -43 22 -104 93 -104c67 0 93 52 93 104v346zM270 572l-48 -19l-98 167l76 25z" />
    <glyph glyph-name="Uacutesmall" unicode="&#xe135;" horiz-adv-x="438" 
d="M312 520h81v-343c0 -106 -56 -182 -173 -182c-127 0 -174 83 -174 174v351h80v-346c0 -43 22 -104 93 -104c67 0 93 52 93 104v346zM225 553l-48 19l70 173l76 -25z" />
    <glyph glyph-name="Ucircumflexsmall" unicode="&#xe136;" horiz-adv-x="438" 
d="M312 520h81v-343c0 -106 -56 -182 -173 -182c-127 0 -174 83 -174 174v351h80v-346c0 -43 22 -104 93 -104c67 0 93 52 93 104v346zM344 553l-125 100l-125 -101l-37 33l141 146h50l133 -144z" />
    <glyph glyph-name="Udieresissmall" unicode="&#xe137;" horiz-adv-x="438" 
d="M312 520h81v-343c0 -106 -56 -182 -173 -182c-127 0 -174 83 -174 174v351h80v-346c0 -43 22 -104 93 -104c67 0 93 52 93 104v346zM343 593h-78v84h78v-84zM177 593h-79v84h79v-84z" />
    <glyph glyph-name="Yacutesmall" unicode="&#xe138;" horiz-adv-x="382" 
d="M190 297h3l57 127l41 96h82l-144 -307v-213h-78v213l-143 307h85l42 -97zM202 553l-48 19l70 173l76 -25z" />
    <glyph glyph-name="Thornsmall" unicode="&#xe139;" horiz-adv-x="433" 
d="M55 0l-1 519h84v-94h94c118 0 184 -54 184 -161c0 -81 -49 -158 -181 -158h-96v-106h-84zM139 350v-169h92c78 0 100 41 100 84c0 52 -28 85 -101 85h-91z" />
    <glyph glyph-name="Amacronsmall" unicode="&#xe13a;" horiz-adv-x="423" 
d="M418 0h-84l-36 113h-174l-36 -113h-82l171 520h68zM212 401h-4l-36 -122l-28 -93h133l-28 92zM332 588h-248v75h248v-75z" />
    <glyph glyph-name="Abrevesmall" unicode="&#xe13b;" horiz-adv-x="423" 
d="M418 0h-84l-36 113h-174l-36 -113h-82l171 520h68zM212 401h-4l-36 -122l-28 -93h133l-28 92zM71 699h69c2 -27 28 -63 69 -63c45 0 70 36 70 63h67c-5 -52 -36 -126 -137 -126c-103 0 -137 74 -138 126z" />
    <glyph glyph-name="Aogoneksmall" unicode="&#xe13c;" horiz-adv-x="423" 
d="M297 -92c0 26 10 56 36 93l-35 112h-174l-36 -113h-82l171 520h68l173 -520h-25c-21 -30 -31 -54 -31 -77c0 -28 18 -44 48 -44c16 0 33 5 57 16l20 -50c-26 -14 -60 -25 -93 -25c-57 0 -97 40 -97 88zM212 401h-4l-36 -122l-28 -93h133l-28 92z" />
    <glyph glyph-name="Cacutesmall" unicode="&#xe13d;" horiz-adv-x="392" 
d="M301 147l77 -24c-17 -80 -72 -128 -167 -128c-120 0 -170 83 -170 176v168c0 89 45 185 171 185c96 0 147 -44 165 -122l-75 -29c-11 44 -38 76 -89 76c-70 0 -92 -63 -92 -109v-167c0 -48 25 -103 91 -103c49 0 79 28 89 77zM230 553l-48 19l70 173l76 -25z" />
    <glyph glyph-name="Ccircumflexsmall" unicode="&#xe13e;" horiz-adv-x="392" 
d="M301 147l77 -24c-17 -80 -72 -128 -167 -128c-120 0 -170 83 -170 176v168c0 89 45 185 171 185c96 0 147 -44 165 -122l-75 -29c-11 44 -38 76 -89 76c-70 0 -92 -63 -92 -109v-167c0 -48 25 -103 91 -103c49 0 79 28 89 77zM340 553l-125 100l-125 -101l-37 33l141 146
h50l133 -144z" />
    <glyph glyph-name="Cdotaccentsmall" unicode="&#xe13f;" horiz-adv-x="392" 
d="M301 147l77 -24c-17 -80 -72 -128 -167 -128c-120 0 -170 83 -170 176v168c0 89 45 185 171 185c96 0 147 -44 165 -122l-75 -29c-11 44 -38 76 -89 76c-70 0 -92 -63 -92 -109v-167c0 -48 25 -103 91 -103c49 0 79 28 89 77zM254 593h-78v84h78v-84z" />
    <glyph glyph-name="Ccaronsmall" unicode="&#xe140;" horiz-adv-x="392" 
d="M301 147l77 -24c-17 -80 -72 -128 -167 -128c-120 0 -170 83 -170 176v168c0 89 45 185 171 185c96 0 147 -44 165 -122l-75 -29c-11 44 -38 76 -89 76c-70 0 -92 -63 -92 -109v-167c0 -48 25 -103 91 -103c49 0 79 28 89 77zM212 632l125 100l37 -35l-133 -144h-50
l-141 146l37 33z" />
    <glyph glyph-name="Dcaronsmall" unicode="&#xe141;" horiz-adv-x="440" 
d="M53 520h166c84 0 140 -27 166 -92c14 -35 14 -89 14 -152c0 -101 -1 -146 -15 -181c-30 -73 -97 -95 -175 -95h-156v520zM317 178v164c0 71 -36 103 -105 103h-78v-370h78c77 0 105 42 105 103zM205 632l125 100l37 -35l-133 -144h-50l-141 146l37 33z" />
    <glyph glyph-name="Dcroatsmall" unicode="&#xe142;" horiz-adv-x="440" 
d="M53 520h166c84 0 140 -27 166 -92c14 -35 14 -89 14 -152c0 -101 -1 -146 -15 -181c-30 -73 -97 -95 -175 -95h-156v236h-47v62h47v222zM317 178v164c0 71 -36 103 -105 103h-78v-147h83v-62h-83v-161h78c77 0 105 42 105 103z" />
    <glyph glyph-name="Emacronsmall" unicode="&#xe143;" horiz-adv-x="384" 
d="M367 0h-314v520h314v-75h-233v-145h201v-74h-201v-151h233v-75zM330 588h-248v75h248v-75z" />
    <glyph glyph-name="Ebrevesmall" unicode="&#xe144;" horiz-adv-x="384" 
d="M367 0h-314v520h314v-75h-233v-145h201v-74h-201v-151h233v-75zM72 699h69c2 -27 28 -63 69 -63c45 0 70 36 70 63h67c-5 -52 -36 -126 -137 -126c-103 0 -137 74 -138 126z" />
    <glyph glyph-name="Edotaccentsmall" unicode="&#xe145;" horiz-adv-x="384" 
d="M367 0h-314v520h314v-75h-233v-145h201v-74h-201v-151h233v-75zM263 593h-78v84h78v-84z" />
    <glyph glyph-name="Eogoneksmall" unicode="&#xe146;" horiz-adv-x="384" 
d="M270 -92c0 26 10 55 36 92h-253v520h314v-75h-233v-145h201v-74h-201v-151h233v-71l1 -2c-1 -1 -1 -1 -1 -2h-1c-21 -30 -31 -54 -31 -77c0 -28 18 -44 48 -44c16 0 33 5 57 16l20 -50c-26 -14 -60 -25 -93 -25c-57 0 -97 40 -97 88z" />
    <glyph glyph-name="Ecaronsmall" unicode="&#xe147;" horiz-adv-x="384" 
d="M367 0h-314v520h314v-75h-233v-145h201v-74h-201v-151h233v-75zM205 632l125 100l37 -35l-133 -144h-50l-141 146l37 33z" />
    <glyph glyph-name="Gcircumflexsmall" unicode="&#xe148;" horiz-adv-x="428" 
d="M213 67c63 0 93 52 93 102v47h-93v73h174v-113c0 -117 -70 -182 -173 -182c-127 0 -174 84 -174 177v168c0 90 46 185 174 185c94 0 147 -49 164 -125l-78 -24c-8 44 -36 74 -87 74c-70 0 -92 -66 -92 -111v-168c0 -55 26 -103 92 -103zM332 553l-125 100l-125 -101
l-37 33l141 146h50l133 -144z" />
    <glyph glyph-name="Gbrevesmall" unicode="&#xe149;" horiz-adv-x="428" 
d="M213 67c63 0 93 52 93 102v47h-93v73h174v-113c0 -117 -70 -182 -173 -182c-127 0 -174 84 -174 177v168c0 90 46 185 174 185c94 0 147 -49 164 -125l-78 -24c-8 44 -36 74 -87 74c-70 0 -92 -66 -92 -111v-168c0 -55 26 -103 92 -103zM76 699h69c2 -27 28 -63 69 -63
c45 0 70 36 70 63h67c-5 -52 -36 -126 -137 -126c-103 0 -137 74 -138 126z" />
    <glyph glyph-name="Gdotaccentsmall" unicode="&#xe14a;" horiz-adv-x="428" 
d="M213 67c63 0 93 52 93 102v47h-93v73h174v-113c0 -117 -70 -182 -173 -182c-127 0 -174 84 -174 177v168c0 90 46 185 174 185c94 0 147 -49 164 -125l-78 -24c-8 44 -36 74 -87 74c-70 0 -92 -66 -92 -111v-168c0 -55 26 -103 92 -103zM251 593h-78v84h78v-84z" />
    <glyph glyph-name="Gcommaaccentsmall" unicode="&#xe14b;" horiz-adv-x="428" 
d="M213 67c63 0 93 52 93 102v47h-93v73h174v-113c0 -117 -70 -182 -173 -182c-127 0 -174 84 -174 177v168c0 90 46 185 174 185c94 0 147 -49 164 -125l-78 -24c-8 44 -36 74 -87 74c-70 0 -92 -66 -92 -111v-168c0 -55 26 -103 92 -103zM256 -163l-51 -91h-47l31 89h-28
v103h95v-101z" />
    <glyph glyph-name="Hcircumflexsmall" unicode="&#xe14c;" horiz-adv-x="448" 
d="M395 0h-81v228h-180v-228h-81v520h81v-220h180v220h81v-520zM348 553l-125 100l-125 -101l-37 33l141 146h50l133 -144z" />
    <glyph glyph-name="Hbarsmall" unicode="&#xe14d;" horiz-adv-x="448" 
d="M395 0h-81v228h-180v-228h-81v388h-55v59h55v73h81v-73h180v73h81v-73h53v-59h-53v-388zM134 300h180v88h-180v-88z" />
    <glyph glyph-name="Itildesmall" unicode="&#xe14e;" horiz-adv-x="184" 
d="M133 0h-82v520h82v-520zM28 689c43 0 84 -42 122 -42c19 0 36 13 57 42l45 -28c-27 -54 -62 -82 -98 -82c-44 0 -87 41 -122 41c-20 0 -37 -12 -58 -38l-44 25c22 45 60 82 98 82z" />
    <glyph glyph-name="Imacronsmall" unicode="&#xe14f;" horiz-adv-x="184" 
d="M133 0h-82v520h82v-520zM217 588h-248v75h248v-75z" />
    <glyph glyph-name="Ibrevesmall" unicode="&#xe150;" horiz-adv-x="184" 
d="M133 0h-82v520h82v-520zM-45 699h69c2 -27 28 -63 69 -63c45 0 70 36 70 63h67c-5 -52 -36 -126 -137 -126c-103 0 -137 74 -138 126z" />
    <glyph glyph-name="Iogoneksmall" unicode="&#xe151;" horiz-adv-x="184" 
d="M31 -92c0 26 10 55 36 92h-16v520h82v-520h-6c-21 -30 -31 -54 -31 -77c0 -28 18 -44 48 -44c16 0 33 5 57 16l20 -50c-26 -14 -60 -25 -93 -25c-57 0 -97 40 -97 88z" />
    <glyph glyph-name="Idotaccentsmall" unicode="&#xe152;" horiz-adv-x="184" 
d="M133 0h-82v520h82v-520zM133 593h-78v84h78v-84z" />
    <glyph glyph-name="IJsmall" unicode="&#xe153;" horiz-adv-x="513" 
d="M133 0h-82v520h82v-520zM458 520v-369c0 -113 -66 -155 -162 -155c-54 0 -100 21 -133 63l60 51c16 -18 48 -39 75 -39c51 0 80 27 80 80v369h80z" />
    <glyph glyph-name="Jcircumflexsmall" unicode="&#xe154;" horiz-adv-x="343" 
d="M288 520v-369c0 -113 -66 -155 -162 -155c-54 0 -100 21 -133 63l60 51c16 -18 48 -39 75 -39c51 0 80 27 80 80v369h80zM374 553l-125 100l-125 -101l-37 33l141 146h50l133 -144z" />
    <glyph glyph-name="Kcommaaccentsmall" unicode="&#xe155;" horiz-adv-x="440" 
d="M436 0h-90l-137 244l-74 -97v-147h-81v520h82v-252l92 125l96 127h92l-156 -211zM271 -163l-51 -91h-47l31 89h-28v103h95v-101z" />
    <glyph glyph-name="Lacutesmall" unicode="&#xe156;" horiz-adv-x="372" 
d="M360 0h-307v520h81v-445h226v-75zM117 553l-48 19l70 173l76 -25z" />
    <glyph glyph-name="Lcommaaccentsmall" unicode="&#xe157;" horiz-adv-x="372" 
d="M360 0h-307v520h81v-445h226v-75zM243 -163l-51 -91h-47l31 89h-28v103h95v-101z" />
    <glyph glyph-name="Lcaronsmall" unicode="&#xe158;" horiz-adv-x="372" 
d="M360 0h-307v520h81v-445h226v-75zM317 418l-51 -91h-47l31 89h-28v103h95v-101z" />
    <glyph glyph-name="Ldotsmall" unicode="&#xe159;" horiz-adv-x="372" 
d="M360 0h-307v520h81v-445h226v-75zM319 237h-78v84h78v-84z" />
    <glyph glyph-name="Lslashsmall" unicode="&#xe15a;" horiz-adv-x="372" 
d="M360 0h-307v158l-44 -25l-29 50l73 42v295h81v-248l114 66l30 -50l-144 -83v-130h226v-75z" />
    <glyph glyph-name="Nacutesmall" unicode="&#xe15b;" horiz-adv-x="474" 
d="M422 0h-74l-163 274l-52 88v-362h-80v520h75l159 -269l55 -96v365h80v-520zM257 553l-48 19l70 173l76 -25z" />
    <glyph glyph-name="Ncommaaccentsmall" unicode="&#xe15c;" horiz-adv-x="474" 
d="M422 0h-74l-163 274l-52 88v-362h-80v520h75l159 -269l55 -96v365h80v-520zM287 -163l-51 -91h-47l31 89h-28v103h95v-101z" />
    <glyph glyph-name="Ncaronsmall" unicode="&#xe15d;" horiz-adv-x="474" 
d="M422 0h-74l-163 274l-52 88v-362h-80v520h75l159 -269l55 -96v365h80v-520zM236 632l125 100l37 -35l-133 -144h-50l-141 146l37 33z" />
    <glyph glyph-name="Engsmall" unicode="&#xe15e;" horiz-adv-x="474" 
d="M310 -102c20 0 31 10 31 40v74l-156 262l-52 88v-362h-80v520h75l159 -269l55 -96v365h80v-584c0 -75 -39 -105 -96 -105c-24 0 -46 4 -75 17l19 57c15 -4 29 -7 40 -7z" />
    <glyph glyph-name="Omacronsmall" unicode="&#xe15f;" horiz-adv-x="427" 
d="M214 524c124 0 173 -83 173 -189v-151c0 -115 -60 -189 -174 -189c-120 0 -173 80 -173 178v161c0 97 47 190 174 190zM214 450c-74 0 -94 -66 -94 -116v-159c0 -50 25 -106 93 -106c65 0 93 51 93 112v159c0 55 -25 110 -92 110zM336 588h-248v75h248v-75z" />
    <glyph glyph-name="Obrevesmall" unicode="&#xe160;" horiz-adv-x="427" 
d="M214 524c124 0 173 -83 173 -189v-151c0 -115 -60 -189 -174 -189c-120 0 -173 80 -173 178v161c0 97 47 190 174 190zM214 450c-74 0 -94 -66 -94 -116v-159c0 -50 25 -106 93 -106c65 0 93 51 93 112v159c0 55 -25 110 -92 110zM76 699h69c2 -27 28 -63 69 -63
c45 0 70 36 70 63h67c-5 -52 -36 -126 -137 -126c-103 0 -137 74 -138 126z" />
    <glyph glyph-name="Ohungarumlautsmall" unicode="&#xe161;" horiz-adv-x="427" 
d="M214 524c124 0 173 -83 173 -189v-151c0 -115 -60 -189 -174 -189c-120 0 -173 80 -173 178v161c0 97 47 190 174 190zM214 450c-74 0 -94 -66 -94 -116v-159c0 -50 25 -106 93 -106c65 0 93 51 93 112v159c0 55 -25 110 -92 110zM179 552l-48 19l70 173l76 -25zM308 552
l-48 19l70 173l76 -25z" />
    <glyph glyph-name="Racutesmall" unicode="&#xe162;" horiz-adv-x="428" 
d="M405 0h-88l-94 220h-89v-220h-80v520h191c94 0 150 -54 150 -149c0 -64 -29 -116 -92 -140c21 -37 81 -194 102 -231zM313 371c0 49 -26 76 -85 76h-94v-154h95c59 0 84 30 84 78zM211 553l-48 19l70 173l76 -25z" />
    <glyph glyph-name="Rcommaaccentsmall" unicode="&#xe163;" horiz-adv-x="428" 
d="M405 0h-88l-94 220h-89v-220h-80v520h191c94 0 150 -54 150 -149c0 -64 -29 -116 -92 -140c21 -37 81 -194 102 -231zM313 371c0 49 -26 76 -85 76h-94v-154h95c59 0 84 30 84 78zM254 -163l-51 -91h-47l31 89h-28v103h95v-101z" />
    <glyph glyph-name="Rcaronsmall" unicode="&#xe164;" horiz-adv-x="428" 
d="M405 0h-88l-94 220h-89v-220h-80v520h191c94 0 150 -54 150 -149c0 -64 -29 -116 -92 -140c21 -37 81 -194 102 -231zM313 371c0 49 -26 76 -85 76h-94v-154h95c59 0 84 30 84 78zM211 632l125 100l37 -35l-133 -144h-50l-141 146l37 33z" />
    <glyph glyph-name="Sacutesmall" unicode="&#xe165;" horiz-adv-x="403" 
d="M374 147c0 -94 -58 -151 -173 -151c-91 0 -147 37 -179 98l63 42c23 -35 60 -64 116 -64c68 0 93 34 93 74c0 48 -35 64 -97 80c-118 30 -163 72 -163 151c0 86 60 147 169 147c88 0 139 -41 165 -88l-61 -46c-24 37 -58 57 -108 57c-54 0 -81 -30 -81 -70
c0 -42 42 -56 113 -78c103 -27 145 -68 143 -152zM212 553l-48 19l70 173l76 -25z" />
    <glyph glyph-name="Scircumflexsmall" unicode="&#xe166;" horiz-adv-x="403" 
d="M374 147c0 -94 -58 -151 -173 -151c-91 0 -147 37 -179 98l63 42c23 -35 60 -64 116 -64c68 0 93 34 93 74c0 48 -35 64 -97 80c-118 30 -163 72 -163 151c0 86 60 147 169 147c88 0 139 -41 165 -88l-61 -46c-24 37 -58 57 -108 57c-54 0 -81 -30 -81 -70
c0 -42 42 -56 113 -78c103 -27 145 -68 143 -152zM327 553l-125 100l-125 -101l-37 33l141 146h50l133 -144z" />
    <glyph glyph-name="Scedillasmall" unicode="&#xe167;" horiz-adv-x="403" 
d="M374 147c0 -93 -56 -149 -167 -151l-13 -43c69 -4 89 -49 89 -80c0 -33 -25 -78 -93 -78c-11 0 -56 0 -89 16l14 37c25 -12 50 -13 68 -13c23 0 44 14 44 37c0 27 -20 45 -64 42l-18 15l20 69c-70 8 -116 43 -143 96l63 42c23 -35 60 -64 116 -64c68 0 93 34 93 74
c0 48 -35 64 -97 80c-118 30 -163 72 -163 151c0 86 60 147 169 147c88 0 139 -41 165 -88l-61 -46c-24 37 -58 57 -108 57c-54 0 -81 -30 -81 -70c0 -42 42 -56 113 -78c103 -27 145 -68 143 -152z" />
    <glyph glyph-name="Tcommaaccentsmall" unicode="&#xe168;" horiz-adv-x="344" 
d="M342 447h-130v-447h-80v447h-130v73h340v-73zM219 -163l-51 -91h-47l31 89h-28v103h95v-101z" />
    <glyph glyph-name="Tcaronsmall" unicode="&#xe169;" horiz-adv-x="344" 
d="M342 447h-130v-447h-80v447h-130v73h340v-73zM175 632l125 100l37 -35l-133 -144h-50l-141 146l37 33z" />
    <glyph glyph-name="Tbarsmall" unicode="&#xe16a;" horiz-adv-x="344" 
d="M342 447h-130v-134h107v-63h-107v-250h-80v250h-109v63h109v134h-130v73h340v-73z" />
    <glyph glyph-name="Utildesmall" unicode="&#xe16b;" horiz-adv-x="438" 
d="M312 520h81v-343c0 -106 -56 -182 -173 -182c-127 0 -174 83 -174 174v351h80v-346c0 -43 22 -104 93 -104c67 0 93 52 93 104v346zM153 689c43 0 84 -42 122 -42c19 0 36 13 57 42l45 -28c-27 -54 -62 -82 -98 -82c-44 0 -87 41 -122 41c-20 0 -37 -12 -58 -38l-44 25
c22 45 60 82 98 82z" />
    <glyph glyph-name="Umacronsmall" unicode="&#xe16c;" horiz-adv-x="438" 
d="M312 520h81v-343c0 -106 -56 -182 -173 -182c-127 0 -174 83 -174 174v351h80v-346c0 -43 22 -104 93 -104c67 0 93 52 93 104v346zM348 588h-248v75h248v-75z" />
    <glyph glyph-name="Ubrevesmall" unicode="&#xe16d;" horiz-adv-x="438" 
d="M312 520h81v-343c0 -106 -56 -182 -173 -182c-127 0 -174 83 -174 174v351h80v-346c0 -43 22 -104 93 -104c67 0 93 52 93 104v346zM84 699h69c2 -27 28 -63 69 -63c45 0 70 36 70 63h67c-5 -52 -36 -126 -137 -126c-103 0 -137 74 -138 126z" />
    <glyph glyph-name="Uringsmall" unicode="&#xe16e;" horiz-adv-x="438" 
d="M312 520h81v-343c0 -106 -56 -182 -173 -182c-127 0 -174 83 -174 174v351h80v-346c0 -43 22 -104 93 -104c67 0 93 52 93 104v346zM221 551c-50 0 -89 38 -89 84c0 47 39 86 89 86c46 0 85 -39 85 -86c0 -46 -39 -84 -85 -84zM221 680c-27 0 -47 -20 -47 -45
c0 -24 20 -43 47 -43c24 0 44 19 44 43c0 25 -20 45 -44 45z" />
    <glyph glyph-name="Uhungarumlautsmall" unicode="&#xe16f;" horiz-adv-x="438" 
d="M312 520h81v-343c0 -106 -56 -182 -173 -182c-127 0 -174 83 -174 174v351h80v-346c0 -43 22 -104 93 -104c67 0 93 52 93 104v346zM173 553l-48 19l70 173l76 -25zM302 553l-48 19l70 173l76 -25z" />
    <glyph glyph-name="Uogoneksmall" unicode="&#xe170;" horiz-adv-x="438" 
d="M149 -92c0 26 10 54 34 90c-99 14 -137 89 -137 171v351h80v-346c0 -43 22 -104 93 -104c67 0 93 52 93 104v346h81v-343c0 -99 -49 -172 -151 -181c-19 -28 -28 -51 -28 -73c0 -28 18 -44 48 -44c16 0 33 5 57 16l20 -50c-26 -14 -60 -25 -93 -25c-57 0 -97 40 -97 88z
" />
    <glyph glyph-name="Wcircumflexsmall" unicode="&#xe171;" horiz-adv-x="593" 
d="M296 369h-4c-4 -18 -28 -109 -31 -127l-59 -242h-70l-117 520h85l46 -229c3 -20 22 -110 25 -130l2 -1l32 135l57 225h68l58 -228c4 -20 27 -117 32 -137h3l25 138l42 227h86l-118 -520h-69l-60 238zM419 553l-125 100l-125 -101l-37 33l141 146h50l133 -144z" />
    <glyph glyph-name="Ycircumflexsmall" unicode="&#xe172;" horiz-adv-x="382" 
d="M190 297h3l57 127l41 96h82l-144 -307v-213h-78v213l-143 307h85l42 -97zM317 553l-125 100l-125 -101l-37 33l141 146h50l133 -144z" />
    <glyph glyph-name="Zacutesmall" unicode="&#xe173;" horiz-adv-x="348" 
d="M327 0h-306v66l215 381h-205v73h297v-63l-215 -382h214v-75zM188 553l-48 19l70 173l76 -25z" />
    <glyph glyph-name="Zdotaccentsmall" unicode="&#xe174;" horiz-adv-x="348" 
d="M327 0h-306v66l215 381h-205v73h297v-63l-215 -382h214v-75zM223 593h-78v84h78v-84z" />
    <glyph glyph-name="AEacutesmall" unicode="&#xe175;" horiz-adv-x="716" 
d="M347 0v139h-174c-17 -24 -62 -115 -80 -139h-91l306 520h373v-74h-249v-146h214v-73h-214v-153h249v-74h-334zM347 446l-132 -235h132v235zM464 553l-48 19l70 173l76 -25z" />
    <glyph glyph-name="Oslashacutesmall" unicode="&#xe176;" horiz-adv-x="427" 
d="M214 524c56 0 96 -17 124 -46l30 46l40 -27l-40 -62c13 -29 19 -63 19 -100v-151c0 -115 -60 -189 -174 -189c-47 0 -83 12 -110 32l-25 -38l-39 27l30 47c-20 30 -29 68 -29 110v161c0 97 47 190 174 190zM214 450c-74 0 -94 -66 -94 -116v-159c0 -10 1 -20 3 -30
l168 260c-14 26 -39 45 -77 45zM306 181v159l-159 -245c15 -16 36 -26 66 -26c65 0 93 51 93 112zM230 553l-48 19l70 173l76 -25z" />
    <glyph glyph-name="exclamdownsmall" unicode="&#xe177;" horiz-adv-x="213" 
d="M68 -88l5 393h71l5 -393h-81zM65 432h85v-82h-85v82z" />
    <glyph glyph-name="questiondownsmall" unicode="&#xe178;" horiz-adv-x="370" 
d="M48 45c2 48 17 77 47 112c26 31 66 64 68 94v52h83v-46c0 -37 -9 -63 -33 -89c-48 -50 -79 -79 -79 -118c0 -29 13 -65 80 -65c55 0 78 40 80 79l82 -11c-10 -96 -78 -143 -167 -143c-104 0 -161 55 -161 135zM163 433h85v-82h-85v82z" />
    <glyph glyph-name="Scommaaccentsmall" unicode="&#xe179;" horiz-adv-x="403" 
d="M374 147c0 -94 -58 -151 -173 -151c-91 0 -147 37 -179 98l63 42c23 -35 60 -64 116 -64c68 0 93 34 93 74c0 48 -35 64 -97 80c-118 30 -163 72 -163 151c0 86 60 147 169 147c88 0 139 -41 165 -88l-61 -46c-24 37 -58 57 -108 57c-54 0 -81 -30 -81 -70
c0 -42 42 -56 113 -78c103 -27 145 -68 143 -152zM247 -163l-51 -91h-47l31 89h-28v103h95v-101z" />
    <glyph glyph-name="Wacutesmall" unicode="&#xe17a;" horiz-adv-x="593" 
d="M296 369h-4c-4 -18 -28 -109 -31 -127l-59 -242h-70l-117 520h85l46 -229c3 -20 22 -110 25 -130l2 -1l32 135l57 225h68l58 -228c4 -20 27 -117 32 -137h3l25 138l42 227h86l-118 -520h-69l-60 238zM323 568l-48 19l70 173l76 -25z" />
    <glyph glyph-name="Wgravesmall" unicode="&#xe17b;" horiz-adv-x="593" 
d="M296 369h-4c-4 -18 -28 -109 -31 -127l-59 -242h-70l-117 520h85l46 -229c3 -20 22 -110 25 -130l2 -1l32 135l57 225h68l58 -228c4 -20 27 -117 32 -137h3l25 138l42 227h86l-118 -520h-69l-60 238zM332 587l-48 -19l-98 167l76 25z" />
    <glyph glyph-name="Wdieresissmall" unicode="&#xe17c;" horiz-adv-x="593" 
d="M296 369h-4c-4 -18 -28 -109 -31 -127l-59 -242h-70l-117 520h85l46 -229c3 -20 22 -110 25 -130l2 -1l32 135l57 225h68l58 -228c4 -20 27 -117 32 -137h3l25 138l42 227h86l-118 -520h-69l-60 238zM252 608h-79v84h79v-84zM418 608h-78v84h78v-84z" />
    <glyph glyph-name="Ygravesmall" unicode="&#xe17d;" horiz-adv-x="382" 
d="M190 297h3l57 127l41 96h82l-144 -307v-213h-78v213l-143 307h85l42 -97zM230 587l-48 -19l-98 167l76 25z" />
    <glyph glyph-name="Alphasmall" unicode="&#xe183;" horiz-adv-x="423" 
d="M418 0h-84l-36 113h-174l-36 -113h-82l171 520h68zM212 401h-4l-36 -122l-28 -93h133l-28 92z" />
    <glyph glyph-name="Betasmall" unicode="&#xe184;" horiz-adv-x="428" 
d="M394 153c0 -100 -63 -153 -162 -153h-179v520h174c109 0 158 -55 158 -141c0 -44 -14 -80 -58 -107c48 -20 67 -68 67 -119zM228 233h-94v-158h91c69 0 89 39 89 83c0 41 -24 75 -86 75zM216 447h-82v-142h84c61 0 87 33 87 71c0 42 -27 71 -89 71z" />
    <glyph glyph-name="Epsilonsmall" unicode="&#xe187;" horiz-adv-x="384" 
d="M367 0h-314v520h314v-75h-233v-145h201v-74h-201v-151h233v-75z" />
    <glyph glyph-name="Zetasmall" unicode="&#xe188;" horiz-adv-x="348" 
d="M327 0h-306v66l215 381h-205v73h297v-63l-215 -382h214v-75z" />
    <glyph glyph-name="Etasmall" unicode="&#xe189;" horiz-adv-x="448" 
d="M395 0h-81v228h-180v-228h-81v520h81v-220h180v220h81v-520z" />
    <glyph glyph-name="Iotasmall" unicode="&#xe18b;" horiz-adv-x="184" 
d="M133 0h-82v520h82v-520z" />
    <glyph glyph-name="Kappasmall" unicode="&#xe18c;" horiz-adv-x="440" 
d="M436 0h-90l-137 244l-74 -97v-147h-81v520h82v-252l92 125l96 127h92l-156 -211z" />
    <glyph glyph-name="Musmall" unicode="&#xe18e;" horiz-adv-x="556" 
d="M279 197h4l70 159l74 164h77v-520h-79v338h-5l-52 -118l-63 -138h-51l-58 124l-58 127h-3v-333h-80v520h77l75 -162z" />
    <glyph glyph-name="Nusmall" unicode="&#xe18f;" horiz-adv-x="474" 
d="M422 0h-74l-163 274l-52 88v-362h-80v520h75l159 -269l55 -96v365h80v-520z" />
    <glyph glyph-name="Omicronsmall" unicode="&#xe191;" horiz-adv-x="427" 
d="M214 524c124 0 173 -83 173 -189v-151c0 -115 -60 -189 -174 -189c-120 0 -173 80 -173 178v161c0 97 47 190 174 190zM214 450c-74 0 -94 -66 -94 -116v-159c0 -50 25 -106 93 -106c65 0 93 51 93 112v159c0 55 -25 110 -92 110z" />
    <glyph glyph-name="Rhosmall" unicode="&#xe193;" horiz-adv-x="409" 
d="M395 360c0 -82 -48 -159 -172 -159h-89v-201h-81v520h170c111 0 172 -52 172 -160zM313 361c0 51 -24 84 -92 84h-87v-168h88c73 0 91 41 91 84z" />
    <glyph glyph-name="Tausmall" unicode="&#xe195;" horiz-adv-x="344" 
d="M342 447h-130v-447h-80v447h-130v73h340v-73z" />
    <glyph glyph-name="Upsilonsmall" unicode="&#xe196;" horiz-adv-x="382" 
d="M190 297h3l57 127l41 96h82l-144 -307v-213h-78v213l-143 307h85l42 -97z" />
    <glyph glyph-name="Chismall" unicode="&#xe198;" horiz-adv-x="382" 
d="M382 0h-88l-103 207c-13 -33 -89 -174 -102 -207h-88l144 268c-18 40 -116 213 -134 252h88l92 -189c12 30 81 160 93 189h87l-133 -252c20 -42 124 -226 144 -268z" />
    <glyph glyph-name="Alphatonossmall" unicode="&#xe19b;" horiz-adv-x="423" 
d="M418 0h-84l-36 113h-174l-36 -113h-82l171 520h68zM212 401h-4l-36 -122l-28 -93h133l-28 92zM239 553l-48 19l70 173l76 -25z" />
    <glyph glyph-name="Epsilontonossmall" unicode="&#xe19c;" horiz-adv-x="384" 
d="M221 554l-48 18l70 172l76 -25zM367 0h-314v520h314v-75h-233v-145h201v-74h-201v-151h233v-75z" />
    <glyph glyph-name="Etatonossmall" unicode="&#xe19d;" horiz-adv-x="448" 
d="M395 0h-81v228h-180v-228h-81v520h81v-220h180v220h81v-520zM244 553l-48 19l70 173l76 -25z" />
    <glyph glyph-name="Iotatonossmall" unicode="&#xe19e;" horiz-adv-x="184" 
d="M133 0h-82v520h82v-520zM120 553l-48 19l70 173l76 -25z" />
    <glyph glyph-name="Omicrontonossmall" unicode="&#xe19f;" horiz-adv-x="427" 
d="M214 524c124 0 173 -83 173 -189v-151c0 -115 -60 -189 -174 -189c-120 0 -173 80 -173 178v161c0 97 47 190 174 190zM214 450c-74 0 -94 -66 -94 -116v-159c0 -50 25 -106 93 -106c65 0 93 51 93 112v159c0 55 -25 110 -92 110zM229 553l-48 19l70 173l76 -25z" />
    <glyph glyph-name="Ypsilontonossmall" unicode="&#xe1a0;" horiz-adv-x="382" 
d="M190 297h3l57 127l41 96h82l-144 -307v-213h-78v213l-143 307h85l42 -97zM198 553l-48 19l70 173l76 -25z" />
    <glyph glyph-name="Omegatonossmall" unicode="&#xe1a1;" horiz-adv-x="421" 
d="M222 553l-48 19l70 173l76 -25zM29 75h41c-29 29 -33 72 -33 119v139c0 99 45 191 172 191c124 0 173 -80 173 -190v-129c0 -54 -7 -103 -33 -130h42v-75h-152v74c50 16 63 51 63 135v131c0 55 -23 111 -93 111c-74 0 -93 -67 -93 -117v-132c0 -75 13 -115 64 -125v-77
h-151v75z" />
    </font>
</defs>
</svg>
